<svg width="36" height="36" viewBox="0 0 36 36" fill="none" xmlns="http://www.w3.org/2000/svg">
<path d="M34 18C34 22.2434 32.3142 26.3132 29.3138 29.3138C26.3132 32.3142 22.2434 34 18 34C13.7565 34 9.68688 32.3142 6.6863 29.3138C3.68571 26.3132 2 22.2434 2 18C2 13.7565 3.68571 9.68688 6.6863 6.6863C9.68688 3.68571 13.7565 2 18 2C22.2434 2 26.3132 3.68571 29.3138 6.6863C32.3142 9.68688 34 13.7565 34 18Z" fill="url(#paint0_linear_2569_89230)"/>
<path d="M8 18.016C8 22.046 10.012 30 18 30C25.986 30 28 22.046 28 18.016C28 17.698 24.78 16 18 16C11.22 16 8 17.698 8 18.016Z" fill="url(#paint1_linear_2569_89230)"/>
<path d="M11.082 27C12.69 28.99 14.896 30 18.02 30C21.146 30 23.33 28.99 24.938 27C23.836 25.824 21.74 24 18.02 24C14.3 24 12.186 25.824 11.082 27Z" fill="url(#paint2_linear_2569_89230)"/>
<path d="M14.4259 10.2876C14.9519 10.6636 15.4299 11.1976 15.2459 11.8636C15.1039 12.3716 14.8579 12.6016 14.4019 12.6056C12.8419 12.6276 10.9859 13.1156 9.38994 13.8296C9.25994 13.8876 8.99594 14.0056 8.72594 13.9996C8.47794 13.9936 8.22394 13.8836 8.07194 13.5256C7.93794 13.2116 7.92594 12.7496 8.62394 12.3296C9.71394 11.6696 11.1379 11.3696 12.4419 11.1216C11.6231 10.5165 10.7413 10.0015 9.81194 9.58557C8.95794 9.19757 9.05194 8.67157 9.16594 8.38557C9.41994 7.75157 10.3839 7.99357 11.3219 8.43757C12.416 8.94857 13.4559 9.56835 14.4259 10.2876ZM21.5799 10.2876C22.5484 9.56805 23.587 8.94823 24.68 8.43757C25.62 7.99357 26.58 7.75157 26.836 8.38557C26.95 8.67157 27.044 9.19757 26.19 9.58557C25.2616 10.0011 24.3812 10.5161 23.564 11.1216C24.864 11.3676 26.29 11.6696 27.378 12.3296C28.076 12.7496 28.062 13.2096 27.93 13.5256C27.776 13.8856 27.524 13.9936 27.276 13.9996C27.006 14.0056 26.742 13.8876 26.612 13.8296C25.018 13.1156 23.162 12.6296 21.6039 12.6056C21.1479 12.6016 20.9019 12.3716 20.7599 11.8656C20.5779 11.1996 21.0539 10.6656 21.5799 10.2896V10.2876Z" fill="#2A3755"/>
<defs>
<linearGradient id="paint0_linear_2569_89230" x1="18" y1="5.28" x2="18" y2="34" gradientUnits="userSpaceOnUse">
<stop stop-color="#FEEA70"/>
<stop offset="1" stop-color="#F69B30"/>
</linearGradient>
<linearGradient id="paint1_linear_2569_89230" x1="18" y1="16" x2="18" y2="30" gradientUnits="userSpaceOnUse">
<stop stop-color="#472315"/>
<stop offset="1" stop-color="#8B3A0E"/>
</linearGradient>
<linearGradient id="paint2_linear_2569_89230" x1="18.01" y1="24" x2="18.01" y2="28.914" gradientUnits="userSpaceOnUse">
<stop stop-color="#FC607C"/>
<stop offset="1" stop-color="#D91F3A"/>
</linearGradient>
</defs>
</svg>
