<svg width="24" height="24" viewBox="0 0 24 24" fill="none" xmlns="http://www.w3.org/2000/svg">
<path d="M10.2 9.3C10.2 9.53869 10.1052 9.76761 9.9364 9.9364C9.76761 10.1052 9.53869 10.2 9.3 10.2C9.0613 10.2 8.83239 10.1052 8.6636 9.9364C8.49482 9.76761 8.4 9.53869 8.4 9.3C8.4 9.0613 8.49482 8.83239 8.6636 8.6636C8.83239 8.49482 9.0613 8.4 9.3 8.4C9.53869 8.4 9.76761 8.49482 9.9364 8.6636C10.1052 8.83239 10.2 9.0613 10.2 9.3ZM14.7 10.2C14.9387 10.2 15.1676 10.1052 15.3364 9.9364C15.5052 9.76761 15.6 9.53869 15.6 9.3C15.6 9.0613 15.5052 8.83239 15.3364 8.6636C15.1676 8.49482 14.9387 8.4 14.7 8.4C14.4613 8.4 14.2324 8.49482 14.0636 8.6636C13.8948 8.83239 13.8 9.0613 13.8 9.3C13.8 9.53869 13.8948 9.76761 14.0636 9.9364C14.2324 10.1052 14.4613 10.2 14.7 10.2ZM3 6.6C3 5.64522 3.37928 4.72955 4.05442 4.05442C4.72955 3.37928 5.64522 3 6.6 3H17.4C18.3548 3 19.2705 3.37928 19.9456 4.05442C20.6207 4.72955 21 5.64522 21 6.6V14.7C21.0002 14.8183 20.9771 14.9354 20.932 15.0448C20.8869 15.1541 20.8207 15.2535 20.7372 15.3372L15.3372 20.7372C15.2535 20.8207 15.1541 20.8869 15.0448 20.932C14.9354 20.9771 14.8183 21.0002 14.7 21H6.6C5.64522 21 4.72955 20.6207 4.05442 19.9456C3.37928 19.2705 3 18.3548 3 17.4V6.6ZM6.6 4.8C6.12261 4.8 5.66477 4.98964 5.32721 5.32721C4.98964 5.66477 4.8 6.12261 4.8 6.6V17.4C4.8 17.8774 4.98964 18.3352 5.32721 18.6728C5.66477 19.0104 6.12261 19.2 6.6 19.2H12V15.618H11.9928C10.7724 15.618 9.8832 15.0024 9.3378 14.4534C9.01574 14.1289 8.73958 13.7619 8.517 13.3626L8.5026 13.3356L8.499 13.3266L8.4972 13.323L8.4954 13.3212C8.393 13.1052 8.38061 12.8573 8.46095 12.6322C8.54129 12.407 8.70778 12.223 8.9238 12.1206C9.13982 12.0182 9.38767 12.0058 9.61282 12.0861C9.83798 12.1665 10.022 12.333 10.1244 12.549C10.2594 12.7796 10.4227 12.9924 10.6104 13.1826C10.9632 13.5354 11.4204 13.818 11.9928 13.818C12.1727 13.8182 12.3515 13.7891 12.522 13.7316C13.152 12.693 14.295 12 15.6 12H19.2V6.6C19.2 6.12261 19.0104 5.66477 18.6728 5.32721C18.3352 4.98964 17.8774 4.8 17.4 4.8H6.6ZM19.2 13.8H15.6C15.1226 13.8 14.6648 13.9896 14.3272 14.3272C13.9896 14.6648 13.8 15.1226 13.8 15.6V19.2H14.3274L19.2 14.3274V13.8Z" fill="#4D4D4D"/>
</svg>
