<svg width="36" height="36" viewBox="0 0 36 36" fill="none" xmlns="http://www.w3.org/2000/svg">
<path d="M18 2C13.7565 2 9.68688 3.68571 6.6863 6.6863C3.68571 9.68688 2 13.7565 2 18C2 22.2434 3.68571 26.3132 6.6863 29.3138C9.68688 32.3142 13.7565 34 18 34C22.2434 34 26.3132 32.3142 29.3138 29.3138C32.3142 26.3132 34 22.2434 34 18C34 13.7565 32.3142 9.68688 29.3138 6.6863C26.3132 3.68571 22.2434 2 18 2Z" fill="url(#paint0_linear_2569_89225)"/>
<path d="M22.9445 10C18.5485 10 17.9985 13.648 17.9985 13.648C17.9985 13.648 17.4505 10 13.0545 10C8.82651 10 7.59451 14.444 8.11051 16.82C9.47052 23.1 17.9985 27.5 17.9985 27.5C17.9985 27.5 26.5285 23.1 27.8885 16.82C28.4025 14.444 27.1685 10 22.9445 10Z" fill="white"/>
<defs>
<linearGradient id="paint0_linear_2569_89225" x1="18" y1="2" x2="18" y2="34" gradientUnits="userSpaceOnUse">
<stop stop-color="#FF6680"/>
<stop offset="1" stop-color="#E61739"/>
</linearGradient>
</defs>
</svg>
