<svg width="36" height="36" viewBox="0 0 36 36" fill="none" xmlns="http://www.w3.org/2000/svg">
<path d="M34 20C34 24.2434 32.3142 28.3132 29.3138 31.3138C26.3132 34.3142 22.2434 36 18 36C13.7565 36 9.68688 34.3142 6.6863 31.3138C3.68571 28.3132 2 24.2434 2 20C2 15.7565 3.68571 11.6869 6.6863 8.6863C9.68688 5.68571 13.7565 4 18 4C22.2434 4 26.3132 5.68571 29.3138 8.6863C32.3142 11.6869 34 15.7565 34 20Z" fill="url(#paint0_linear_2569_89237)"/>
<path d="M13.2862 25.776C12.9702 29.466 14.7382 32 18.0002 32C21.2602 32 23.0302 29.466 22.7142 25.776C22.4002 22.084 20.4842 20 18.0002 20C15.5162 20 13.6002 22.084 13.2862 25.776Z" fill="url(#paint1_linear_2569_89237)"/>
<path d="M9 15C9 13.344 10.118 12 11.5 12C12.882 12 14 13.344 14 15C14 16.658 12.882 18 11.5 18C10.118 18 9 16.658 9 15ZM22 15C22 13.344 23.12 12 24.5 12C25.882 12 27 13.344 27 15C27 16.658 25.882 18 24.5 18C23.12 18 22 16.658 22 15Z" fill="url(#paint2_linear_2569_89237)"/>
<g filter="url(#filter0_i_2569_89237)">
<path d="M9 15C9 13.344 10.118 12 11.5 12C12.882 12 14 13.344 14 15C14 16.658 12.882 18 11.5 18C10.118 18 9 16.658 9 15ZM22 15C22 13.344 23.12 12 24.5 12C25.882 12 27 13.344 27 15C27 16.658 25.882 18 24.5 18C23.12 18 22 16.658 22 15Z" fill="black"/>
</g>
<path d="M10.9629 13.1343C11.3349 13.2183 11.5429 13.6383 11.4269 14.0723C11.3129 14.5083 10.9189 14.7923 10.5469 14.7083C10.1749 14.6243 9.96691 14.2043 10.0829 13.7683C10.1969 13.3363 10.5909 13.0483 10.9629 13.1343ZM24.279 13.2603C24.691 13.3543 24.923 13.8203 24.795 14.3003C24.667 14.7863 24.231 15.1003 23.817 15.0083C23.405 14.9163 23.173 14.4483 23.301 13.9663C23.427 13.4823 23.865 13.1663 24.281 13.2603H24.279Z" fill="#4E506A"/>
<g filter="url(#filter1_d_2569_89237)">
<path d="M24.1364 7.39165C24.2404 7.38165 24.3444 7.37765 24.4504 7.37765C25.4244 7.37765 26.4304 7.78565 27.1944 8.50165C27.3322 8.63297 27.4138 8.81259 27.422 9.00277C27.4302 9.19297 27.3644 9.37895 27.2384 9.52165C27.1776 9.59163 27.103 9.64859 27.0196 9.68907C26.9362 9.72955 26.8454 9.75273 26.7526 9.75721C26.66 9.76169 26.5674 9.74739 26.4804 9.71515C26.3934 9.68293 26.3138 9.63343 26.2464 9.56965C25.6964 9.05165 24.9344 8.76965 24.2624 8.83165C24.0294 8.84909 23.8028 8.91741 23.599 9.03177C23.3952 9.14615 23.2188 9.30381 23.0824 9.49365C23.0276 9.56805 22.9584 9.63073 22.879 9.67799C22.7996 9.72525 22.7116 9.75613 22.6202 9.76881C22.5286 9.78147 22.4354 9.77569 22.3462 9.75179C22.257 9.72789 22.1734 9.68637 22.1004 9.62965C21.951 9.51097 21.8535 9.33889 21.8285 9.14973C21.8035 8.96055 21.8529 8.76907 21.9664 8.61565C22.2184 8.26713 22.5428 7.97727 22.9174 7.76599C23.292 7.55471 23.7078 7.42701 24.1364 7.39165ZM8.80643 8.50165C9.54797 7.79643 10.5272 7.39529 11.5504 7.37765C12.0338 7.36717 12.5125 7.47437 12.9452 7.69005C13.378 7.90571 13.7518 8.22337 14.0344 8.61565C14.1476 8.76899 14.1971 8.96019 14.1725 9.14921C14.1479 9.33823 14.0511 9.51039 13.9024 9.62965C13.8293 9.68641 13.7456 9.72799 13.6562 9.75191C13.5668 9.77583 13.4735 9.78163 13.3818 9.76895C13.2901 9.75629 13.2018 9.72541 13.1223 9.67811C13.0427 9.63083 12.9734 9.56811 12.9184 9.49365C12.7819 9.30389 12.6056 9.14631 12.4017 9.03195C12.1979 8.91759 11.9715 8.84923 11.7384 8.83165C11.0684 8.76965 10.3044 9.05165 9.75443 9.56965C9.68705 9.63343 9.60747 9.68293 9.52047 9.71515C9.43347 9.74739 9.34085 9.76169 9.24819 9.75721C9.15553 9.75273 9.06471 9.72955 8.98123 9.68907C8.89775 9.64859 8.82333 9.59163 8.76243 9.52165C8.63643 9.37895 8.57061 9.19297 8.57881 9.00277C8.58703 8.81259 8.66861 8.63297 8.80643 8.50165Z" fill="black"/>
</g>
<path d="M24.1364 7.39165C24.2404 7.38165 24.3444 7.37765 24.4504 7.37765C25.4244 7.37765 26.4304 7.78565 27.1944 8.50165C27.3322 8.63297 27.4138 8.81259 27.422 9.00277C27.4302 9.19297 27.3644 9.37895 27.2384 9.52165C27.1776 9.59163 27.103 9.64859 27.0196 9.68907C26.9362 9.72955 26.8454 9.75273 26.7526 9.75721C26.66 9.76169 26.5674 9.74739 26.4804 9.71515C26.3934 9.68293 26.3138 9.63343 26.2464 9.56965C25.6964 9.05165 24.9344 8.76965 24.2624 8.83165C24.0294 8.84909 23.8028 8.91741 23.599 9.03177C23.3952 9.14615 23.2188 9.30381 23.0824 9.49365C23.0276 9.56805 22.9584 9.63073 22.879 9.67799C22.7996 9.72525 22.7116 9.75613 22.6202 9.76881C22.5286 9.78147 22.4354 9.77569 22.3462 9.75179C22.257 9.72789 22.1734 9.68637 22.1004 9.62965C21.951 9.51097 21.8535 9.33889 21.8285 9.14973C21.8035 8.96055 21.8529 8.76907 21.9664 8.61565C22.2184 8.26713 22.5428 7.97727 22.9174 7.76599C23.292 7.55471 23.7078 7.42701 24.1364 7.39165ZM8.80643 8.50165C9.54797 7.79643 10.5272 7.39529 11.5504 7.37765C12.0338 7.36717 12.5125 7.47437 12.9452 7.69005C13.378 7.90571 13.7518 8.22337 14.0344 8.61565C14.1476 8.76899 14.1971 8.96019 14.1725 9.14921C14.1479 9.33823 14.0511 9.51039 13.9024 9.62965C13.8293 9.68641 13.7456 9.72799 13.6562 9.75191C13.5668 9.77583 13.4735 9.78163 13.3818 9.76895C13.2901 9.75629 13.2018 9.72541 13.1223 9.67811C13.0427 9.63083 12.9734 9.56811 12.9184 9.49365C12.7819 9.30389 12.6056 9.14631 12.4017 9.03195C12.1979 8.91759 11.9715 8.84923 11.7384 8.83165C11.0684 8.76965 10.3044 9.05165 9.75443 9.56965C9.68705 9.63343 9.60747 9.68293 9.52047 9.71515C9.43347 9.74739 9.34085 9.76169 9.24819 9.75721C9.15553 9.75273 9.06471 9.72955 8.98123 9.68907C8.89775 9.64859 8.82333 9.59163 8.76243 9.52165C8.63643 9.37895 8.57061 9.19297 8.57881 9.00277C8.58703 8.81259 8.66861 8.63297 8.80643 8.50165Z" fill="url(#paint3_linear_2569_89237)"/>
<defs>
<filter id="filter0_i_2569_89237" x="9" y="12" width="18" height="6" filterUnits="userSpaceOnUse" color-interpolation-filters="sRGB">
<feFlood flood-opacity="0" result="BackgroundImageFix"/>
<feBlend mode="normal" in="SourceGraphic" in2="BackgroundImageFix" result="shape"/>
<feColorMatrix in="SourceAlpha" type="matrix" values="0 0 0 0 0 0 0 0 0 0 0 0 0 0 0 0 0 0 127 0" result="hardAlpha"/>
<feOffset/>
<feGaussianBlur stdDeviation="0.5"/>
<feComposite in2="hardAlpha" operator="arithmetic" k2="-1" k3="1"/>
<feColorMatrix type="matrix" values="0 0 0 0 0.0980392 0 0 0 0 0.101961 0 0 0 0 0.2 0 0 0 0.819684 0"/>
<feBlend mode="normal" in2="shape" result="effect1_innerShadow_2569_89237"/>
</filter>
<filter id="filter1_d_2569_89237" x="5.57812" y="5.37695" width="24.8438" height="8.39844" filterUnits="userSpaceOnUse" color-interpolation-filters="sRGB">
<feFlood flood-opacity="0" result="BackgroundImageFix"/>
<feColorMatrix in="SourceAlpha" type="matrix" values="0 0 0 0 0 0 0 0 0 0 0 0 0 0 0 0 0 0 127 0" result="hardAlpha"/>
<feOffset dy="1"/>
<feGaussianBlur stdDeviation="1.5"/>
<feColorMatrix type="matrix" values="0 0 0 0 0.803922 0 0 0 0 0.388235 0 0 0 0 0.00392157 0 0 0 0.145679 0"/>
<feBlend mode="normal" in2="BackgroundImageFix" result="effect1_dropShadow_2569_89237"/>
<feBlend mode="normal" in="SourceGraphic" in2="effect1_dropShadow_2569_89237" result="shape"/>
</filter>
<linearGradient id="paint0_linear_2569_89237" x1="18" y1="7.28" x2="18" y2="36" gradientUnits="userSpaceOnUse">
<stop stop-color="#FEEA70"/>
<stop offset="1" stop-color="#F69B30"/>
</linearGradient>
<linearGradient id="paint1_linear_2569_89237" x1="18" y1="20" x2="18" y2="32" gradientUnits="userSpaceOnUse">
<stop stop-color="#472315"/>
<stop offset="1" stop-color="#8B3A0E"/>
</linearGradient>
<linearGradient id="paint2_linear_2569_89237" x1="18" y1="12" x2="18" y2="18" gradientUnits="userSpaceOnUse">
<stop stop-color="#191A33"/>
<stop offset="0.872" stop-color="#3B426A"/>
</linearGradient>
<linearGradient id="paint3_linear_2569_89237" x1="18" y1="7.37599" x2="18" y2="9.77599" gradientUnits="userSpaceOnUse">
<stop stop-color="#E78E0D"/>
<stop offset="1" stop-color="#CB6000"/>
</linearGradient>
</defs>
</svg>
