<svg width="36" height="36" viewBox="0 0 36 36" fill="none" xmlns="http://www.w3.org/2000/svg">
<path d="M18 2C13.7565 2 9.68688 3.68571 6.6863 6.6863C3.68571 9.68688 2 13.7565 2 18C2 22.2434 3.68571 26.3132 6.6863 29.3138C9.68688 32.3142 13.7565 34 18 34C22.2434 34 26.3132 32.3142 29.3138 29.3138C32.3142 26.3132 34 22.2434 34 18C34 13.7565 32.3142 9.68688 29.3138 6.6863C26.3132 3.68571 22.2434 2 18 2Z" fill="url(#paint0_linear_2569_89270)"/>
<path d="M26.324 16.676C26.676 16.922 27 17.166 27 18.024C27 18.884 26.542 19.232 26.052 19.474C26.2522 19.8006 26.3162 20.1927 26.23 20.566C26.076 21.254 25.446 21.788 24.886 21.946C25.128 22.334 25.204 22.716 24.916 23.186C24.546 23.776 24.224 24 22.8 24H17C15.024 24 14 22.908 14 22V17.33C14 14.87 16.934 12.78 16.934 11.07L16.722 8.94C16.712 8.81 16.738 8.492 16.838 8.4C16.998 8.242 17.44 8 18.108 8C18.544 8 18.834 8.082 19.176 8.246C20.338 8.8 20.64 10.202 20.64 11.33C20.64 11.872 19.812 13.496 19.7 14.058C19.7 14.058 21.434 13.674 23.458 13.66C25.58 13.648 26.956 14.04 26.956 15.344C26.956 15.866 26.518 16.39 26.324 16.676ZM9.2 16H10.8C11.1183 16 11.4235 16.1264 11.6485 16.3515C11.8736 16.5765 12 16.8817 12 17.2V24.8C12 25.1182 11.8736 25.4234 11.6485 25.6486C11.4235 25.8736 11.1183 26 10.8 26H9.2C8.88174 26 8.57652 25.8736 8.35148 25.6486C8.12642 25.4234 8 25.1182 8 24.8V17.2C8 16.8817 8.12642 16.5765 8.35148 16.3515C8.57652 16.1264 8.88174 16 9.2 16Z" fill="white"/>
<defs>
<linearGradient id="paint0_linear_2569_89270" x1="18" y1="2" x2="18" y2="34" gradientUnits="userSpaceOnUse">
<stop stop-color="#18AFFF"/>
<stop offset="1" stop-color="#0062DF"/>
</linearGradient>
</defs>
</svg>
