<svg width="36" height="36" viewBox="0 0 36 36" fill="none" xmlns="http://www.w3.org/2000/svg">
<path d="M34 18C34 22.2434 32.3142 26.3132 29.3138 29.3138C26.3132 32.3142 22.2434 34 18 34C13.7565 34 9.68688 32.3142 6.6863 29.3138C3.68571 26.3132 2 22.2434 2 18C2 13.7565 3.68571 9.68688 6.6863 6.6863C9.68688 3.68571 13.7565 2 18 2C22.2434 2 26.3132 3.68571 29.3138 6.6863C32.3142 9.68688 34 13.7565 34 18Z" fill="url(#paint0_linear_2569_89248)"/>
<path d="M12.668 27.53C12.668 27.804 12.856 28 13.168 28C13.87 28 14.84 26.75 18.002 26.75C21.164 26.75 22.1359 28 22.8359 28C23.1479 28 23.3359 27.804 23.3359 27.53C23.3359 26.736 21.658 24 18.002 24C14.346 24 12.668 26.736 12.668 27.53Z" fill="url(#paint1_linear_2569_89248)"/>
<path d="M9.19549 19.6C9.19549 17.98 10.2135 16.668 11.4635 16.668C12.7175 16.668 13.7315 17.98 13.7315 19.6C13.7315 20.276 13.5535 20.9 13.2555 21.396C13.1223 21.6197 12.9058 21.7815 12.6535 21.846C12.3735 21.92 11.9475 22 11.4635 22C10.9775 22 10.5575 21.92 10.2735 21.846C10.0217 21.7815 9.80591 21.6196 9.67349 21.396C9.35439 20.8517 9.18917 20.2309 9.19549 19.6ZM22.2634 19.6C22.2634 17.98 23.2794 16.668 24.5294 16.668C25.7834 16.668 26.7974 17.98 26.7974 19.6C26.7974 20.276 26.6194 20.9 26.3214 21.396C26.2556 21.5069 26.1686 21.6038 26.0652 21.681C25.962 21.7582 25.8444 21.8143 25.7194 21.846C24.9396 22.048 24.1212 22.048 23.3414 21.846C23.2164 21.8143 23.0988 21.7582 22.9956 21.681C22.8922 21.6038 22.8052 21.5069 22.7394 21.396C22.421 20.8515 22.2564 20.2307 22.2634 19.6Z" fill="url(#paint2_linear_2569_89248)"/>
<g filter="url(#filter0_i_2569_89248)">
<path d="M9.19549 19.6C9.19549 17.98 10.2135 16.668 11.4635 16.668C12.7175 16.668 13.7315 17.98 13.7315 19.6C13.7315 20.276 13.5535 20.9 13.2555 21.396C13.1223 21.6197 12.9058 21.7815 12.6535 21.846C12.3735 21.92 11.9475 22 11.4635 22C10.9775 22 10.5575 21.92 10.2735 21.846C10.0217 21.7815 9.80591 21.6196 9.67349 21.396C9.35439 20.8517 9.18917 20.2309 9.19549 19.6ZM22.2634 19.6C22.2634 17.98 23.2794 16.668 24.5294 16.668C25.7834 16.668 26.7974 17.98 26.7974 19.6C26.7974 20.276 26.6194 20.9 26.3214 21.396C26.2556 21.5069 26.1686 21.6038 26.0652 21.681C25.962 21.7582 25.8444 21.8143 25.7194 21.846C24.9396 22.048 24.1212 22.048 23.3414 21.846C23.2164 21.8143 23.0988 21.7582 22.9956 21.681C22.8922 21.6038 22.8052 21.5069 22.7394 21.396C22.421 20.8515 22.2564 20.2307 22.2634 19.6Z" fill="black"/>
</g>
<path d="M11.2319 17.9711C11.4879 18.2211 11.5039 18.7151 11.2659 19.0731C11.0259 19.4291 10.6259 19.5171 10.3699 19.2651C10.1139 19.0151 10.0999 18.5211 10.3359 18.1651C10.5759 17.8071 10.9759 17.7211 11.2319 17.9711ZM24.21 17.9711C24.466 18.2211 24.482 18.7151 24.246 19.0731C24.006 19.4291 23.606 19.5171 23.346 19.2651C23.092 19.0151 23.078 18.5211 23.316 18.1651C23.554 17.8071 23.954 17.7211 24.21 17.9711Z" fill="#4E506A"/>
<path d="M10.3144 12.3052C10.9784 11.9992 11.5064 11.8672 11.9164 11.8672C12.4704 11.8672 12.8184 12.1052 13.0164 12.4792C13.3664 13.1372 13.2084 13.2812 12.6204 13.3972C10.4084 13.8452 8.1864 15.2812 7.2224 16.1772C6.6204 16.7372 6.0444 16.1172 6.3504 15.6292C6.6584 15.1412 7.8984 13.4192 10.3144 12.3052ZM22.9844 12.4792C23.1824 12.1052 23.5304 11.8672 24.0844 11.8672C24.4964 11.8672 25.0224 11.9992 25.6864 12.3052C28.1024 13.4192 29.3424 15.1412 29.6484 15.6292C29.9544 16.1172 29.3804 16.7372 28.7784 16.1772C27.8124 15.2812 25.5924 13.8452 23.3784 13.3972C22.7904 13.2812 22.6364 13.1372 22.9844 12.4792Z" fill="url(#paint3_linear_2569_89248)"/>
<path d="M29 34C27.344 34 26 32.504 26 30.658C26 28.814 26.712 27.568 27.286 26.364C28.482 23.848 28.718 23.5 29 23.5C29.282 23.5 29.518 23.848 30.714 26.364C31.288 27.568 32 28.814 32 30.658C32 32.504 30.656 34 29 34Z" fill="url(#paint4_linear_2569_89248)"/>
<path d="M29.0005 29.2126C28.3445 29.2126 27.8125 28.6206 27.8125 27.8926C27.8125 27.1606 28.0947 26.6666 28.3227 26.1886C28.7947 25.1926 28.8885 25.0566 29.0005 25.0566C29.1125 25.0566 29.2065 25.1926 29.6785 26.1886C29.9065 26.6686 30.1885 27.1606 30.1885 27.8906C30.1885 28.6206 29.6565 29.2126 29.0005 29.2126Z" fill="url(#paint5_linear_2569_89248)"/>
<defs>
<filter id="filter0_i_2569_89248" x="9.19531" y="16.668" width="17.6016" height="5.33203" filterUnits="userSpaceOnUse" color-interpolation-filters="sRGB">
<feFlood flood-opacity="0" result="BackgroundImageFix"/>
<feBlend mode="normal" in="SourceGraphic" in2="BackgroundImageFix" result="shape"/>
<feColorMatrix in="SourceAlpha" type="matrix" values="0 0 0 0 0 0 0 0 0 0 0 0 0 0 0 0 0 0 127 0" result="hardAlpha"/>
<feOffset/>
<feGaussianBlur stdDeviation="0.5"/>
<feComposite in2="hardAlpha" operator="arithmetic" k2="-1" k3="1"/>
<feColorMatrix type="matrix" values="0 0 0 0 0.0411227 0 0 0 0 0.0430885 0 0 0 0 0.0922353 0 0 0 0.819684 0"/>
<feBlend mode="normal" in2="shape" result="effect1_innerShadow_2569_89248"/>
</filter>
<linearGradient id="paint0_linear_2569_89248" x1="18" y1="5.28" x2="18" y2="34" gradientUnits="userSpaceOnUse">
<stop stop-color="#FEEA70"/>
<stop offset="1" stop-color="#F69B30"/>
</linearGradient>
<linearGradient id="paint1_linear_2569_89248" x1="18.0019" y1="24" x2="18.0019" y2="28" gradientUnits="userSpaceOnUse">
<stop stop-color="#472315"/>
<stop offset="1" stop-color="#8B3A0E"/>
</linearGradient>
<linearGradient id="paint2_linear_2569_89248" x1="17.996" y1="16.668" x2="17.996" y2="22" gradientUnits="userSpaceOnUse">
<stop stop-color="#191A33"/>
<stop offset="0.872" stop-color="#3B426A"/>
</linearGradient>
<linearGradient id="paint3_linear_2569_89248" x1="18" y1="11.868" x2="18" y2="16.398" gradientUnits="userSpaceOnUse">
<stop stop-color="#E78E0D"/>
<stop offset="1" stop-color="#CB6000"/>
</linearGradient>
<linearGradient id="paint4_linear_2569_89248" x1="29" y1="32.1" x2="29" y2="25.384" gradientUnits="userSpaceOnUse">
<stop stop-color="#35CAFC"/>
<stop offset="1" stop-color="#007EDB"/>
</linearGradient>
<linearGradient id="paint5_linear_2569_89248" x1="29.0001" y1="25.056" x2="29.0001" y2="29.212" gradientUnits="userSpaceOnUse">
<stop stop-color="#6AE1FF" stop-opacity="0.287"/>
<stop offset="1" stop-color="#A8E3FF" stop-opacity="0.799"/>
</linearGradient>
</defs>
</svg>
