<svg width="36" height="36" viewBox="0 0 36 36" fill="none" xmlns="http://www.w3.org/2000/svg">
<path d="M34 18C34 22.2434 32.3142 26.3132 29.3138 29.3138C26.3132 32.3142 22.2434 34 18 34C13.7565 34 9.68688 32.3142 6.6863 29.3138C3.68571 26.3132 2 22.2434 2 18C2 13.7565 3.68571 9.68688 6.6863 6.6863C9.68688 3.68571 13.7565 2 18 2C22.2434 2 26.3132 3.68571 29.3138 6.6863C32.3142 9.68688 34 13.7565 34 18Z" fill="url(#paint0_linear_2569_89259)"/>
<g filter="url(#filter0_d_2569_89259)">
<path d="M12.4023 29.102C12.4023 30.158 14.9083 29.99 18.0023 29.99C21.0943 29.99 23.6023 30.158 23.6023 29.102C23.6023 27.83 21.0943 27 18.0023 27C14.9083 27 12.4023 27.83 12.4023 29.102Z" fill="black"/>
</g>
<path d="M12.4023 29.102C12.4023 30.158 14.9083 29.99 18.0023 29.99C21.0943 29.99 23.6023 30.158 23.6023 29.102C23.6023 27.83 21.0943 27 18.0023 27C14.9083 27 12.4023 27.83 12.4023 29.102Z" fill="url(#paint1_linear_2569_89259)"/>
<path d="M9.19937 21.6628C9.19937 20.0808 10.2754 18.8008 11.5994 18.8008C12.9254 18.8008 13.9994 20.0808 13.9994 21.6628C13.9994 22.3208 13.8134 22.9288 13.4954 23.4108C13.3468 23.6328 13.1195 23.79 12.8594 23.8508C12.5594 23.9228 12.1134 24.0008 11.5994 24.0008C11.0854 24.0008 10.6374 23.9228 10.3394 23.8508C10.079 23.7906 9.85153 23.6332 9.70337 23.4108C9.36853 22.8898 9.19335 22.2822 9.19937 21.6628ZM21.9994 21.6628C21.9994 20.0808 23.0734 18.8008 24.3994 18.8008C25.7234 18.8008 26.7994 20.0808 26.7994 21.6628C26.7994 22.3208 26.6114 22.9288 26.2954 23.4108C26.1472 23.6332 25.9198 23.7906 25.6594 23.8508C25.2466 23.9496 24.8238 23.9998 24.3994 24.0008C23.8854 24.0008 23.4394 23.9228 23.1394 23.8508C22.8788 23.79 22.6508 23.6328 22.5014 23.4108C22.168 22.8892 21.9937 22.2818 21.9994 21.6628Z" fill="url(#paint2_linear_2569_89259)"/>
<g filter="url(#filter1_i_2569_89259)">
<path d="M9.19937 21.6628C9.19937 20.0808 10.2754 18.8008 11.5994 18.8008C12.9254 18.8008 13.9994 20.0808 13.9994 21.6628C13.9994 22.3208 13.8134 22.9288 13.4954 23.4108C13.3468 23.6328 13.1195 23.79 12.8594 23.8508C12.5594 23.9228 12.1134 24.0008 11.5994 24.0008C11.0854 24.0008 10.6374 23.9228 10.3394 23.8508C10.079 23.7906 9.85153 23.6332 9.70337 23.4108C9.36853 22.8898 9.19335 22.2822 9.19937 21.6628ZM21.9994 21.6628C21.9994 20.0808 23.0734 18.8008 24.3994 18.8008C25.7234 18.8008 26.7994 20.0808 26.7994 21.6628C26.7994 22.3208 26.6114 22.9288 26.2954 23.4108C26.1472 23.6332 25.9198 23.7906 25.6594 23.8508C25.2466 23.9496 24.8238 23.9998 24.3994 24.0008C23.8854 24.0008 23.4394 23.9228 23.1394 23.8508C22.8788 23.79 22.6508 23.6328 22.5014 23.4108C22.168 22.8892 21.9937 22.2818 21.9994 21.6628Z" fill="black"/>
</g>
<path d="M11.9389 20.6652C11.9487 20.7119 11.9534 20.7595 11.9529 20.8072C11.9529 21.2092 11.6009 21.5392 11.1649 21.5392C10.7309 21.5392 10.3789 21.2092 10.3789 20.8072C10.3789 20.6412 10.4389 20.4872 10.5389 20.3652C10.9869 20.4712 11.4569 20.5732 11.9389 20.6652ZM23.7909 21.5392C23.3689 21.5392 23.0249 21.2332 23.0049 20.8432C23.5229 20.7672 24.0369 20.6732 24.5369 20.5712C24.5645 20.6475 24.5781 20.7281 24.5769 20.8092C24.5769 21.2092 24.2269 21.5392 23.7909 21.5392Z" fill="#4F4F67"/>
<g filter="url(#filter2_d_2569_89259)">
<path d="M19.9992 17.2C19.9992 16.308 20.3252 16 20.8892 16C21.4492 16 21.7172 16.552 21.9012 18.132C24.1572 18.132 27.9772 17.064 28.3452 17.064C28.7012 17.064 28.8992 17.234 28.9792 17.598C29.0492 17.914 28.9332 18.214 28.5372 18.398C27.2952 18.972 23.6512 20.268 20.5692 20.268C20.2332 20.268 19.9992 20.096 19.9992 19.666V17.2ZM14.0972 18.132C14.2812 16.552 14.5492 16 15.1092 16C15.6732 16 15.9992 16.308 15.9992 17.2V19.666C15.9992 20.096 15.7652 20.268 15.4292 20.268C12.3472 20.268 8.70317 18.972 7.46117 18.398C7.06517 18.214 6.94917 17.914 7.01917 17.598C7.10117 17.234 7.29917 17.064 7.65317 17.064C8.02117 17.064 11.8412 18.132 14.0972 18.132Z" fill="black"/>
</g>
<path d="M19.9992 17.2C19.9992 16.308 20.3252 16 20.8892 16C21.4492 16 21.7172 16.552 21.9012 18.132C24.1572 18.132 27.9772 17.064 28.3452 17.064C28.7012 17.064 28.8992 17.234 28.9792 17.598C29.0492 17.914 28.9332 18.214 28.5372 18.398C27.2952 18.972 23.6512 20.268 20.5692 20.268C20.2332 20.268 19.9992 20.096 19.9992 19.666V17.2ZM14.0972 18.132C14.2812 16.552 14.5492 16 15.1092 16C15.6732 16 15.9992 16.308 15.9992 17.2V19.666C15.9992 20.096 15.7652 20.268 15.4292 20.268C12.3472 20.268 8.70317 18.972 7.46117 18.398C7.06517 18.214 6.94917 17.914 7.01917 17.598C7.10117 17.234 7.29917 17.064 7.65317 17.064C8.02117 17.064 11.8412 18.132 14.0972 18.132Z" fill="url(#paint3_linear_2569_89259)"/>
<defs>
<filter id="filter0_d_2569_89259" x="11.4023" y="27" width="13.1992" height="5" filterUnits="userSpaceOnUse" color-interpolation-filters="sRGB">
<feFlood flood-opacity="0" result="BackgroundImageFix"/>
<feColorMatrix in="SourceAlpha" type="matrix" values="0 0 0 0 0 0 0 0 0 0 0 0 0 0 0 0 0 0 127 0" result="hardAlpha"/>
<feOffset dy="1"/>
<feGaussianBlur stdDeviation="0.5"/>
<feColorMatrix type="matrix" values="0 0 0 0 1 0 0 0 0 0.509681 0 0 0 0 0 0 0 0 0.371207 0"/>
<feBlend mode="normal" in2="BackgroundImageFix" result="effect1_dropShadow_2569_89259"/>
<feBlend mode="normal" in="SourceGraphic" in2="effect1_dropShadow_2569_89259" result="shape"/>
</filter>
<filter id="filter1_i_2569_89259" x="9.19922" y="18.8008" width="17.6016" height="5.19922" filterUnits="userSpaceOnUse" color-interpolation-filters="sRGB">
<feFlood flood-opacity="0" result="BackgroundImageFix"/>
<feBlend mode="normal" in="SourceGraphic" in2="BackgroundImageFix" result="shape"/>
<feColorMatrix in="SourceAlpha" type="matrix" values="0 0 0 0 0 0 0 0 0 0 0 0 0 0 0 0 0 0 127 0" result="hardAlpha"/>
<feOffset/>
<feGaussianBlur stdDeviation="0.5"/>
<feComposite in2="hardAlpha" operator="arithmetic" k2="-1" k3="1"/>
<feColorMatrix type="matrix" values="0 0 0 0 0.0387428 0 0 0 0 0.0406183 0 0 0 0 0.0875053 0 0 0 1 0"/>
<feBlend mode="normal" in2="shape" result="effect1_innerShadow_2569_89259"/>
</filter>
<filter id="filter2_d_2569_89259" x="6.9" y="16" width="22.2" height="4.96758" filterUnits="userSpaceOnUse" color-interpolation-filters="sRGB">
<feFlood flood-opacity="0" result="BackgroundImageFix"/>
<feColorMatrix in="SourceAlpha" type="matrix" values="0 0 0 0 0 0 0 0 0 0 0 0 0 0 0 0 0 0 127 0" result="hardAlpha"/>
<feOffset dy="0.6"/>
<feGaussianBlur stdDeviation="0.05"/>
<feColorMatrix type="matrix" values="0 0 0 0 0.565875 0 0 0 0 0.151272 0 0 0 0 0 0 0 0 0.15024 0"/>
<feBlend mode="normal" in2="BackgroundImageFix" result="effect1_dropShadow_2569_89259"/>
<feBlend mode="normal" in="SourceGraphic" in2="effect1_dropShadow_2569_89259" result="shape"/>
</filter>
<linearGradient id="paint0_linear_2569_89259" x1="18" y1="2" x2="18" y2="23.502" gradientUnits="userSpaceOnUse">
<stop stop-color="#E04300"/>
<stop offset="1" stop-color="#FFA320"/>
</linearGradient>
<linearGradient id="paint1_linear_2569_89259" x1="18.0019" y1="27.406" x2="18.0019" y2="30" gradientUnits="userSpaceOnUse">
<stop stop-color="#3D0D00"/>
<stop offset="1" stop-color="#661C04"/>
</linearGradient>
<linearGradient id="paint2_linear_2569_89259" x1="18" y1="18.8" x2="18" y2="24" gradientUnits="userSpaceOnUse">
<stop stop-color="#191A33"/>
<stop offset="0.872" stop-color="#3B426A"/>
</linearGradient>
<linearGradient id="paint3_linear_2569_89259" x1="25.23" y1="20.666" x2="25.23" y2="16" gradientUnits="userSpaceOnUse">
<stop stop-color="#9A2F00"/>
<stop offset="1" stop-color="#D44800"/>
</linearGradient>
</defs>
</svg>
