<svg width="40" height="40" viewBox="0 0 40 40" fill="none" xmlns="http://www.w3.org/2000/svg">
<path d="M10 0C8.625 0 7.5 1.125 7.5 2.5V37.5C7.5 38.875 8.625 40 10 40H35C36.375 40 37.5 38.875 37.5 37.5V10L27.5 0H10Z" fill="#E2E5E7"/>
<path d="M30 10H37.5L27.5 0V7.5C27.5 8.875 28.625 10 30 10Z" fill="#B0B7BD"/>
<path d="M37.5 17.5L30 10H37.5V17.5Z" fill="#CAD1D8"/>
<path d="M32.5 32.5C32.5 33.1875 31.9375 33.75 31.25 33.75H3.75C3.0625 33.75 2.5 33.1875 2.5 32.5V20C2.5 19.3125 3.0625 18.75 3.75 18.75H31.25C31.9375 18.75 32.5 19.3125 32.5 20V32.5Z" fill="#E4A025"/>
<path d="M31.25 33.75H7.5V35H31.25C31.9375 35 32.5 34.4375 32.5 33.75V32.5C32.5 33.1875 31.9375 33.75 31.25 33.75Z" fill="#CAD1D8"/>
<path d="M7.73342 30C7.24447 30 7 29.7485 7 29.2455V22.8433C7 22.3403 7.25188 22.0888 7.75565 22.0888H11.6339C12.0191 22.0888 12.2117 22.2737 12.2117 22.6436C12.2117 23.0282 12.0191 23.2205 11.6339 23.2205H8.42239V25.4286H11.4005C11.7858 25.4286 11.9784 25.6135 11.9784 25.9834C11.9784 26.368 11.7858 26.5603 11.4005 26.5603H8.42239V29.2455C8.42239 29.7485 8.19274 30 7.73342 30Z" fill="white"/>
<path d="M13.9789 30C13.5047 30 13.2677 29.7559 13.2677 29.2677V22.7323C13.2677 22.2441 13.5047 22 13.9789 22C14.453 22 14.6901 22.2441 14.6901 22.7323V29.2677C14.6901 29.7559 14.453 30 13.9789 30Z" fill="white"/>
<path d="M17.154 29.9112C16.6725 29.9112 16.4317 29.6671 16.4317 29.1789V22.7767C16.4317 22.2959 16.6688 22.0555 17.1429 22.0555C17.617 22.0555 17.8541 22.2959 17.8541 22.7767V28.7018H21.0767C21.4916 28.7018 21.699 28.9015 21.699 29.301C21.699 29.7078 21.4916 29.9112 21.0767 29.9112H17.154Z" fill="white"/>
<path d="M23.455 29.9112C22.9512 29.9112 22.6994 29.6597 22.6994 29.1567V22.8433C22.6994 22.3403 22.9512 22.0888 23.455 22.0888H27.4222C27.8074 22.0888 28 22.2737 28 22.6436C28 23.0282 27.8074 23.2205 27.4222 23.2205H24.0662V25.3731H27.1777C27.5629 25.3731 27.7555 25.5617 27.7555 25.939C27.7555 26.3162 27.5629 26.5049 27.1777 26.5049H24.0662V28.7795H27.4222C27.8074 28.7795 28 28.9681 28 29.3454C28 29.7226 27.8074 29.9112 27.4222 29.9112H23.455Z" fill="white"/>
</svg>
