<svg width="40" height="40" viewBox="0 0 40 40" fill="none" xmlns="http://www.w3.org/2000/svg">
<path d="M10 0C8.625 0 7.5 1.125 7.5 2.5V37.5C7.5 38.875 8.625 40 10 40H35C36.375 40 37.5 38.875 37.5 37.5V10L27.5 0H10Z" fill="#E6E6E6"/>
<path d="M30 10H37.5L27.5 0V7.5C27.5 8.875 28.625 10 30 10Z" fill="#808080"/>
<path d="M37.5 17.5L30 10H37.5V17.5Z" fill="#B3B3B3"/>
<path d="M32.5 32.5C32.5 33.1875 31.9375 33.75 31.25 33.75H3.75C3.0625 33.75 2.5 33.1875 2.5 32.5V20C2.5 19.3125 3.0625 18.75 3.75 18.75H31.25C31.9375 18.75 32.5 19.3125 32.5 20V32.5Z" fill="#D11313"/>
<path d="M8.23877 23.6838C8.23877 23.3538 8.49877 22.9938 8.91752 22.9938H11.2263C12.5263 22.9938 13.6963 23.8638 13.6963 25.5313C13.6963 27.1113 12.5263 27.9913 11.2263 27.9913H9.55752V29.3113C9.55752 29.7513 9.27877 30 8.91877 30C8.58877 30 8.24002 29.7513 8.24002 29.3113V23.6838H8.23877ZM9.55752 24.2525V26.7425H11.2263C11.8963 26.7425 12.4263 26.1513 12.4263 25.5313C12.4263 24.8325 11.8963 24.2525 11.2263 24.2525H9.55752Z" fill="white"/>
<path d="M14.9702 23.6838C14.9702 23.3538 15.2302 22.9938 15.6502 22.9938H17.959C19.259 22.9938 20.429 23.8638 20.429 25.5313C20.429 27.1113 19.259 27.9913 17.959 27.9913H16.2902V29.3113C16.2902 29.7513 16.0102 30 15.6502 30C15.3202 30 14.9702 29.7513 14.9702 29.3113V23.6838ZM16.289 24.2525V26.7425H17.9577C18.6277 26.7425 19.1577 26.1513 19.1577 25.5313C19.1577 24.8325 18.6277 24.2525 17.9577 24.2525H16.289Z" fill="white"/>
<path d="M23.5689 24.3338H21.8214C20.9514 24.3338 20.9514 23.0551 21.8214 23.0551H26.5477C27.4377 23.0551 27.4377 24.3338 26.5477 24.3338H24.8889V29.3813C24.8889 30.2501 23.5689 30.2713 23.5689 29.3813V24.3338Z" fill="white"/>
<path d="M31.25 33.75H7.5V35H31.25C31.9375 35 32.5 34.4375 32.5 33.75V32.5C32.5 33.1875 31.9375 33.75 31.25 33.75Z" fill="#B3B3B3"/>
</svg>
