<svg width="40" height="40" viewBox="0 0 40 40" fill="none" xmlns="http://www.w3.org/2000/svg">
<path d="M10 0C8.625 0 7.5 1.125 7.5 2.5V37.5C7.5 38.875 8.625 40 10 40H35C36.375 40 37.5 38.875 37.5 37.5V10L27.5 0H10Z" fill="#E6E6E6"/>
<path d="M30 10H37.5L27.5 0V7.5C27.5 8.875 28.625 10 30 10Z" fill="#808080"/>
<path d="M37.5 17.5L30 10H37.5V17.5Z" fill="#B3B3B3"/>
<path d="M32.5 32.5C32.5 33.1875 31.9375 33.75 31.25 33.75H3.75C3.0625 33.75 2.5 33.1875 2.5 32.5V20C2.5 19.3125 3.0625 18.75 3.75 18.75H31.25C31.9375 18.75 32.5 19.3125 32.5 20V32.5Z" fill="#00A3FF"/>
<path d="M7.23297 30C6.90297 30 6.54297 29.8187 6.54297 29.38V23.7037C6.54297 23.3437 6.90297 23.0837 7.23297 23.0837H9.52172C14.0892 23.0837 13.988 30 9.61047 30H7.23297ZM7.86297 24.3025V28.78H9.52172C12.2205 28.78 12.3392 24.3025 9.52172 24.3025H7.86297Z" fill="white"/>
<path d="M17.8127 30.1C15.9639 30.18 14.0439 28.95 14.0439 26.5012C14.0439 24.0425 15.9627 22.8337 17.8127 22.8337C19.5614 22.9225 21.3902 24.1325 21.3902 26.5012C21.3902 28.8712 19.5614 30.1 17.8127 30.1ZM17.7027 24.1337C16.5827 24.1337 15.3639 24.9237 15.3639 26.5025C15.3639 28.0725 16.5839 28.8725 17.7027 28.8725C18.8527 28.8725 20.0814 28.0725 20.0814 26.5025C20.0814 24.9225 18.8527 24.1337 17.7027 24.1337Z" fill="white"/>
<path d="M22.5664 26.4913C22.5664 24.5626 23.7764 22.9038 26.0751 22.9038C26.9451 22.9038 27.6351 23.1638 28.3639 23.7938C28.6339 24.0426 28.6639 24.4826 28.3939 24.7626C28.1239 25.0013 27.7139 24.9726 27.4739 24.7326C27.0651 24.3026 26.6451 24.1838 26.0751 24.1838C24.5364 24.1838 23.7977 25.2738 23.7977 26.4926C23.7977 27.7326 24.5264 28.8713 26.0751 28.8713C26.6451 28.8713 27.1751 28.6401 27.6351 28.2313C27.9439 27.9913 28.3739 28.1101 28.5539 28.3513C28.7139 28.5713 28.7926 28.9413 28.4439 29.2901C27.7439 29.9413 26.9051 30.0713 26.0739 30.0713C23.6564 30.0713 22.5664 28.4201 22.5664 26.4913Z" fill="white"/>
<path d="M31.25 33.75H7.5V35H31.25C31.9375 35 32.5 34.4375 32.5 33.75V32.5C32.5 33.1875 31.9375 33.75 31.25 33.75Z" fill="#B3B3B3"/>
</svg>
