<svg width="40" height="40" viewBox="0 0 40 40" fill="none" xmlns="http://www.w3.org/2000/svg">
<path d="M10 0C8.625 0 7.5 1.125 7.5 2.5V37.5C7.5 38.875 8.625 40 10 40H35C36.375 40 37.5 38.875 37.5 37.5V10L27.5 0H10Z" fill="#E6E6E6"/>
<path d="M30 10H37.5L27.5 0V7.5C27.5 8.875 28.625 10 30 10Z" fill="#808080"/>
<path d="M37.5 17.5L30 10H37.5V17.5Z" fill="#B3B3B3"/>
<path d="M32.5 32.5C32.5 33.1875 31.9375 33.75 31.25 33.75H3.75C3.0625 33.75 2.5 33.1875 2.5 32.5V20C2.5 19.3125 3.0625 18.75 3.75 18.75H31.25C31.9375 18.75 32.5 19.3125 32.5 20V32.5Z" fill="#0569FF"/>
<path d="M31.25 33.75H7.5V35H31.25C31.9375 35 32.5 34.4375 32.5 33.75V32.5C32.5 33.1875 31.9375 33.75 31.25 33.75Z" fill="#B3B3B3"/>
<path d="M8.9 26C8.9 24.29 10.29 22.9 12 22.9H16V21H12C9.24 21 7 23.24 7 26C7 28.76 9.24 31 12 31H16V29.1H12C10.29 29.1 8.9 27.71 8.9 26ZM13 27H21V25H13V27ZM22 21H18V22.9H22C23.71 22.9 25.1 24.29 25.1 26C25.1 27.71 23.71 29.1 22 29.1H18V31H22C24.76 31 27 28.76 27 26C27 23.24 24.76 21 22 21Z" fill="white"/>
</svg>
