<svg width="40" height="40" viewBox="0 0 40 40" fill="none" xmlns="http://www.w3.org/2000/svg">
<path d="M10 0C8.625 0 7.5 1.125 7.5 2.5V37.5C7.5 38.875 8.625 40 10 40H35C36.375 40 37.5 38.875 37.5 37.5V10L27.5 0H10Z" fill="#E6E6E6"/>
<path d="M30 10H37.5L27.5 0V7.5C27.5 8.875 28.625 10 30 10Z" fill="#808080"/>
<path d="M37.5 17.5L30 10H37.5V17.5Z" fill="#B3B3B3"/>
<path d="M32.5 32.5C32.5 33.1875 31.9375 33.75 31.25 33.75H3.75C3.0625 33.75 2.5 33.1875 2.5 32.5V20C2.5 19.3125 3.0625 18.75 3.75 18.75H31.25C31.9375 18.75 32.5 19.3125 32.5 20V32.5Z" fill="#3AC430"/>
<path d="M11.2762 25.4838L13.0149 23.305C13.5349 22.625 14.5449 23.4938 13.9749 24.1438C13.3762 24.8538 12.7462 25.6238 12.1462 26.4125L14.1849 28.9513C14.7349 29.7013 13.6362 30.4201 13.0962 29.6801L11.2562 27.3213L9.44744 29.7313C8.93744 30.4601 7.80744 29.6413 8.37744 28.9613L10.3862 26.4125C9.75619 25.6225 9.14619 24.8538 8.53744 24.1438C7.90869 23.3938 9.07744 22.625 9.53744 23.3263L11.2762 25.4838V25.4838Z" fill="white"/>
<path d="M15.4189 23.6837C15.4189 23.3537 15.6989 23.0737 16.0489 23.0737C16.3689 23.0737 16.6389 23.355 16.6389 23.6837V28.6912H19.3577C20.3364 28.6912 20.3577 30 19.3577 30H16.0502C15.7002 30 15.4202 29.7512 15.4202 29.3912V23.6837H15.4189V23.6837Z" fill="white"/>
<path d="M21.2528 24.5838C21.4828 22.6438 24.4103 22.295 25.7903 23.355C26.4703 23.9038 25.7503 24.7738 25.1503 24.3338C24.4103 23.865 22.7315 23.645 22.5215 24.6825C22.2515 26.3225 26.599 25.3838 26.529 28.0425C26.459 30.5813 22.7815 30.64 21.4015 29.5013C21.0703 29.2313 21.0815 28.7925 21.2615 28.5213C21.5215 28.2625 21.8103 28.1725 22.1515 28.4525C22.9703 29.0113 25.0803 29.4313 25.229 28.0113C25.1003 26.5338 20.9428 27.4225 21.2528 24.5838V24.5838Z" fill="white"/>
<path d="M31.25 33.75H7.5V35H31.25C31.9375 35 32.5 34.4375 32.5 33.75V32.5C32.5 33.1875 31.9375 33.75 31.25 33.75Z" fill="#B3B3B3"/>
</svg>
