<svg width="96" height="48" viewBox="0 0 96 48" fill="none" xmlns="http://www.w3.org/2000/svg">
<g clip-path="url(#clip0_972_44111)">
<path fill-rule="evenodd" clip-rule="evenodd" d="M61.6039 15.6135C62.6087 14.6087 63.6908 13.7584 65.0048 13.0628C66.7053 12.2125 68.3285 11.9807 70.1063 11.9807C73.5073 11.9807 76.5218 12.9855 79.7681 13.7584C85.8744 15.0724 90.5894 12.9855 93.2947 8.27051C89.8164 11.7488 85.7971 12.3671 80.8503 10.8212C79.7681 10.4348 78.6087 10.1256 77.5266 9.73911C74.8986 8.96616 72.1933 8.65698 69.4879 9.35263C67.401 9.8937 65.6232 10.9758 64.1546 12.3671C63.2271 13.2947 62.1449 14.6087 61.6039 15.6135Z" fill="#E4A025"/>
<path fill-rule="evenodd" clip-rule="evenodd" d="M69.0242 9.5846C71.4203 7.57494 73.43 7.03388 75.6715 7.11117C78.4541 7.18847 81.0048 7.96141 83.6329 8.57977C89.0435 9.73919 92.8309 7.49765 94.686 4.09668C92.5218 6.6474 89.2754 7.42035 86.1836 6.80199C84.715 6.49282 83.3237 5.95175 81.7778 5.56528C80.773 5.2561 79.6908 5.02422 78.3768 4.94692C74.3575 4.56045 70.9565 6.49281 69.0242 9.5846Z" fill="#E4A025"/>
<path fill-rule="evenodd" clip-rule="evenodd" d="M75.6715 5.1013C77.5266 3.55541 79.0725 3.24623 80.8502 3.24623C81.6232 3.24623 82.3189 3.32352 83.0145 3.40082C84.4831 3.6327 85.7971 4.01918 87.1111 4.25106C89.1981 4.63753 91.285 4.48295 93.1401 3.32353C94.3768 2.55058 95.3044 1.39116 96.0773 0.0771484C94.4541 2.08681 92.1353 2.93705 90.2029 2.85976C88.0387 2.70517 85.8744 1.46845 83.0145 1.39116C79.7681 1.08198 77.2947 2.62787 75.6715 5.1013Z" fill="#E4A025"/>
<path fill-rule="evenodd" clip-rule="evenodd" d="M23.7295 29.913V21.0241C23.7295 20.0193 23.7295 20.0193 22.9565 20.0193C22.1063 20.0193 22.1063 20.0966 21.4879 20.7922L13.1401 29.913H23.7295ZM28.2899 15.6908H23.1884C20.2512 15.6908 19.942 15.6135 18.087 17.7005L0 36.9468H2.55072C7.11111 36.9468 6.18357 37.1014 8.88889 34.2415H23.7295C23.7295 36.7922 23.6522 37.0241 26.5121 36.9468H32.4638C32.4638 31.1497 32.4638 25.3526 32.4638 19.4782C32.4638 16.4637 32 15.6908 28.2899 15.6908Z" fill="#006C99"/>
<path fill-rule="evenodd" clip-rule="evenodd" d="M40.7343 15.6904C47.6908 15.6904 54.5701 15.6904 61.5266 15.6904V17.3909C61.5266 20.1735 61.7585 20.0962 58.5121 20.0962C54.802 20.0962 50.7826 20.0962 47.0725 20.0962C44.5218 20.0962 44.6763 19.8643 44.6763 22.0286C44.6763 24.4247 44.3672 24.1156 47.2271 24.1156C50.1643 24.1156 53.3334 24.1156 56.2706 24.1156C61.372 24.1156 61.4493 25.0431 61.4493 28.5214V32.8499C61.4493 36.3281 61.1401 36.9465 56.8889 36.9465C49.8551 36.9465 42.744 37.0238 35.6329 37.0238C35.6329 32.2315 35.2464 32.618 39.7295 32.618C43.1305 32.618 46.686 32.618 50.087 32.618C52.8696 32.618 52.5604 32.7726 52.5604 30.531C52.5604 28.2895 52.715 28.4441 49.7778 28.4441C46.8406 28.4441 43.5942 28.5214 40.7343 28.5214C36.4831 28.5214 35.7102 27.3619 35.7102 23.6518V20.0962C35.7102 16.6953 37.0242 15.6904 40.7343 15.6904Z" fill="#006C99"/>
<path fill-rule="evenodd" clip-rule="evenodd" d="M70.6473 15.6904C77.2946 15.6904 84.0193 15.6904 90.7439 15.7677V17.3136C90.7439 20.3281 91.0531 20.1735 87.3429 20.1735H77.3719C73.3526 20.1735 73.7391 19.8643 73.7391 23.7291V29.7581C73.7391 33.0817 73.2753 32.6953 76.9082 32.6953H79.9227C81.7004 32.6953 81.6231 32.7726 81.6231 30.9948V29.9899C81.6231 28.6759 81.7004 28.5213 80.7729 28.5986C80.0772 28.5986 79.3816 28.5986 78.6859 28.5986C77.7584 28.5986 77.8357 28.2895 77.8357 26.8982C77.8357 26.7436 77.8357 26.5117 77.8357 26.2798V24.2701C81.0821 24.2701 84.3285 24.2701 87.5748 24.2701C90.7439 24.2701 90.5893 25.0431 90.5893 28.4441V33.5455C90.5893 36.0189 90.6666 37.0238 87.4975 37.1011C82.3188 37.1011 77.0628 37.1011 71.8067 37.1011C66.1642 37.1011 64.7729 37.3329 64.7729 31.0721V21.0238C64.6956 16.3861 66.3961 15.6904 70.6473 15.6904Z" fill="#006C99"/>
<path d="M30.4542 46.2989V47.9221H25.9711H23.8068H23.6522V41.1201H25.7392V46.2989H30.4542Z" fill="#006C99"/>
<path d="M30.9952 42.8979C30.9952 42.5887 30.9952 42.3568 31.0725 42.2022C31.1498 42.0477 31.2271 41.8158 31.459 41.6612C31.6136 41.5066 31.7682 41.4293 32.0001 41.352C32.1547 41.2747 32.3865 41.1974 32.6957 41.1974C33.0049 41.1974 33.3141 41.1201 33.7006 41.1201C34.087 41.1201 34.7054 41.1201 35.5556 41.1201C36.4059 41.1201 36.9469 41.1201 37.4107 41.1201C37.7972 41.1201 38.1064 41.1201 38.4155 41.1974C38.7247 41.1974 38.9566 41.2747 39.1112 41.352C39.2658 41.4293 39.4204 41.5839 39.575 41.6612C39.7295 41.8158 39.8841 41.9704 39.9614 42.2022C40.0387 42.3568 40.0387 42.5887 40.0387 42.8979V43.9027C40.0387 44.8303 40.0387 45.6032 40.0387 46.2216C40.0387 46.5307 40.0387 46.7626 39.9614 46.9172C39.8841 47.0718 39.8068 47.3037 39.575 47.4583C39.4204 47.6129 39.2658 47.6902 39.0339 47.7675C38.802 47.8448 38.5701 47.9221 38.2609 47.9221C37.9518 47.9221 37.6426 47.9993 37.2561 47.9993C36.8696 47.9993 36.2513 47.9993 35.4783 47.9993C34.7054 47.9993 34.087 47.9993 33.7006 47.9993C33.3141 47.9993 32.9276 47.9993 32.6957 47.9221C32.3865 47.9221 32.1547 47.8448 32.0001 47.7675C31.8455 47.6902 31.6909 47.6129 31.459 47.4583C31.3044 47.3037 31.1498 47.1491 31.0725 46.9172C30.9952 46.7626 30.9952 46.5307 30.9952 46.2216V42.8979ZM32.9276 45.9124C32.9276 46.067 33.0049 46.1443 33.0822 46.2216C33.1595 46.2989 33.3141 46.2989 33.546 46.2989C33.8551 46.2989 35.1692 46.2989 37.4107 46.2989C37.6426 46.2989 37.7972 46.2989 37.8745 46.2216C37.9518 46.1443 38.0291 46.067 38.0291 45.9124V45.1394V43.1298C38.0291 42.9752 37.9518 42.8206 37.8745 42.8206C37.7972 42.7433 37.6426 42.7433 37.4107 42.7433C37.1015 42.7433 35.7875 42.7433 33.546 42.7433C33.3141 42.7433 33.1595 42.7433 33.0822 42.8206C33.0049 42.8979 32.9276 42.9752 32.9276 43.1298V45.9124Z" fill="#006C99"/>
<path d="M49.3141 42.8207C45.5266 42.8207 43.517 42.8207 43.2078 42.8207C42.9759 42.8207 42.8213 42.8207 42.744 42.898C42.6667 42.9753 42.5894 43.0526 42.5894 43.1299V45.8352C42.5894 45.9898 42.6667 46.0671 42.744 46.1444C42.8213 46.2217 42.9759 46.2217 43.2078 46.2217C43.517 46.2217 44.7537 46.2217 46.9179 46.2217C47.1498 46.2217 47.3044 46.2217 47.3817 46.1444C47.459 46.0671 47.5363 45.9898 47.5363 45.8352V45.0623H44.9856V43.7483H49.3914C49.3914 44.6758 49.3914 45.4488 49.3914 46.0671C49.3914 46.3763 49.3914 46.6082 49.3141 46.7628C49.2368 46.9174 49.1595 47.1493 49.0049 47.3038C48.8503 47.4584 48.6957 47.5357 48.5411 47.613C48.3865 47.6903 48.1546 47.7676 47.8455 47.7676C47.5363 47.7676 47.2271 47.8449 46.8406 47.8449C46.4542 47.8449 45.8358 47.8449 45.1402 47.8449C44.3672 47.8449 43.8261 47.8449 43.4397 47.8449C43.0532 47.8449 42.744 47.8449 42.4348 47.7676C42.1257 47.7676 41.9711 47.6903 41.7392 47.613C41.5846 47.5357 41.43 47.4584 41.2754 47.3038C41.1208 47.1493 40.9662 46.9947 40.8889 46.7628C40.8116 46.5309 40.8116 46.299 40.8116 46.0671C40.8116 45.4488 40.8116 44.3666 40.8116 42.898C40.8116 42.2797 40.9662 41.8159 41.3527 41.5067C41.7392 41.1976 42.2802 41.043 43.0532 41.043C44.2126 41.043 46.2996 41.043 49.3914 41.043V42.8207H49.3141Z" fill="#006C99"/>
<path d="M52.174 41.1201V47.9221H50.087V41.1201H52.174Z" fill="#006C99"/>
<path d="M61.372 45.8349C61.372 46.6079 61.2174 47.0717 60.9082 47.4581C60.599 47.7673 60.058 47.9219 59.3623 47.9219C58.5121 47.9219 56.5024 47.9219 53.1788 47.9219V46.4533C56.5797 46.4533 58.2802 46.4533 58.4348 46.4533C58.5894 46.4533 58.6667 46.4533 58.744 46.4533C58.8213 46.4533 58.9759 46.4533 59.0532 46.376C59.1304 46.376 59.2077 46.2987 59.285 46.2214C59.3623 46.1441 59.3623 46.0668 59.3623 45.9122C59.3623 45.7577 59.3623 45.6804 59.285 45.6031C59.2077 45.5258 59.1305 45.4485 58.9759 45.4485C58.8213 45.4485 58.744 45.3712 58.5894 45.3712C58.4348 45.3712 58.2802 45.3712 58.1256 45.3712C58.0483 45.3712 57.7391 45.3712 57.1981 45.3712C56.4251 45.3712 55.8841 45.2939 55.7295 45.2939C55.4976 45.2939 55.343 45.2939 55.1884 45.2939C55.0338 45.2939 54.8792 45.2939 54.7247 45.2939C54.1063 45.2939 53.6425 45.062 53.3333 44.6755C53.1015 44.3663 53.0242 43.9799 53.0242 43.3615C53.0242 42.6659 53.1788 42.1248 53.4106 41.7383C53.7198 41.3519 54.1063 41.1973 54.7247 41.1973C55.5749 41.1973 57.6618 41.1973 61.1401 41.1973V42.6659C57.7391 42.6659 56.0387 42.6659 55.8841 42.6659C55.8068 42.6659 55.6522 42.6659 55.5749 42.6659C55.4976 42.6659 55.4203 42.6659 55.343 42.7432C55.2657 42.7432 55.1884 42.8205 55.1111 42.8977C55.0338 42.975 55.0338 43.0523 55.0338 43.2069C55.0338 43.4388 55.1111 43.5934 55.2657 43.6707C55.4203 43.748 55.6522 43.748 55.8841 43.748H56.0387C56.116 43.748 56.1932 43.748 56.1932 43.748C56.2705 43.748 56.5797 43.748 57.1208 43.748C57.8164 43.748 58.2802 43.8253 58.5894 43.8253C58.8213 43.8253 59.0532 43.8253 59.285 43.8253C59.4396 43.8253 59.5942 43.8253 59.7488 43.8253C60.3672 43.8253 60.8309 44.0572 61.0628 44.5209C61.2947 44.9074 61.372 45.3712 61.372 45.8349Z" fill="#006C99"/>
<path d="M67.0918 47.9221H64.9276V42.666H61.9131V41.1201H69.9517V42.666H67.0918V47.9221Z" fill="#006C99"/>
<path d="M72.7343 41.1201V47.9221H70.6473V41.1201H72.7343Z" fill="#006C99"/>
<path d="M73.5845 43.98C73.5845 43.3617 73.5845 43.0525 73.5845 42.9752C73.5845 42.3568 73.7391 41.8931 74.1255 41.5839C74.512 41.2747 75.0531 41.1201 75.826 41.1201C76.9854 41.1201 78.9178 41.1201 81.7004 41.1201V42.8206C78.2994 42.8206 76.3671 42.8206 76.0579 42.8206C75.826 42.8206 75.6714 42.8206 75.5941 42.8979C75.5168 42.9752 75.4395 43.0525 75.4395 43.1298V43.6708V45.294V45.8351C75.4395 45.9897 75.5168 46.067 75.5941 46.1443C75.6714 46.2216 75.826 46.2216 76.0579 46.2216C76.3671 46.2216 78.2222 46.2216 81.7004 46.2216V47.9221C78.9951 47.9221 76.9854 47.9221 75.826 47.9221C75.0531 47.9221 74.512 47.7675 74.1255 47.4583C73.7391 47.1491 73.5845 46.6853 73.5845 46.067C73.5845 46.067 73.5845 45.6805 73.5845 45.0621V43.98Z" fill="#006C99"/>
<path d="M90.7441 45.8349C90.7441 46.6079 90.5895 47.0717 90.2803 47.4581C89.9711 47.7673 89.4301 47.9219 88.7344 47.9219C87.8842 47.9219 85.8745 47.9219 82.5508 47.9219V46.4533C85.9518 46.4533 87.6523 46.4533 87.8069 46.4533C87.9615 46.4533 88.0388 46.4533 88.1161 46.4533C88.1933 46.4533 88.3479 46.4533 88.4252 46.376C88.5025 46.376 88.5798 46.2987 88.6571 46.2214C88.7344 46.1441 88.7344 46.0668 88.7344 45.9122C88.7344 45.7577 88.7344 45.6804 88.6571 45.6031C88.5798 45.5258 88.5025 45.4485 88.3479 45.4485C88.1933 45.4485 88.1161 45.3712 87.9615 45.3712C87.8069 45.3712 87.6523 45.3712 87.4977 45.3712C87.4204 45.3712 87.1112 45.3712 86.5702 45.3712C85.7972 45.3712 85.2561 45.2939 85.1016 45.2939C84.8697 45.2939 84.7151 45.2939 84.5605 45.2939C84.4059 45.2939 84.2513 45.2939 84.0967 45.2939C83.4784 45.2939 83.0146 45.062 82.7054 44.6755C82.4735 44.3663 82.3962 43.9799 82.3962 43.3615C82.3962 42.6659 82.5508 42.1248 82.7827 41.7383C83.0919 41.3519 83.4784 41.1973 84.0967 41.1973C84.947 41.1973 87.0339 41.1973 90.5122 41.1973V42.6659C87.1112 42.6659 85.4107 42.6659 85.2561 42.6659C85.1789 42.6659 85.0243 42.6659 84.947 42.6659C84.8697 42.6659 84.7924 42.6659 84.7151 42.7432C84.6378 42.7432 84.5605 42.8205 84.4832 42.8977C84.4059 42.975 84.4059 43.0523 84.4059 43.2069C84.4059 43.4388 84.4832 43.5934 84.6378 43.6707C84.7924 43.748 85.0243 43.748 85.2561 43.748H85.4107C85.488 43.748 85.5653 43.748 85.5653 43.748C85.6426 43.748 85.9518 43.748 86.4929 43.748C87.1885 43.748 87.6523 43.8253 87.9615 43.8253C88.1933 43.8253 88.4252 43.8253 88.6571 43.8253C88.8117 43.8253 88.9663 43.8253 89.1209 43.8253C89.7392 43.8253 90.203 44.0572 90.4349 44.5209C90.6668 44.9074 90.7441 45.3712 90.7441 45.8349Z" fill="#006C99"/>
</g>
<defs>
<clipPath id="clip0_972_44111">
<rect width="96" height="48" fill="white"/>
</clipPath>
</defs>
</svg>
