<svg width="621" height="401" viewBox="0 0 621 401" fill="none" xmlns="http://www.w3.org/2000/svg">
<g clip-path="url(#clip0_2237_93933)">
<path d="M484.603 324.6C483.603 315.5 482.803 306.2 483.503 297C484.203 287.7 486.803 276.9 491.903 269C494.903 264.5 505.203 253.9 506.603 265.9C507.303 271.9 504.603 277.2 502.703 282.7C500.803 287.9 498.203 292.9 496.503 298.2C493.903 306.6 492.003 315.3 489.103 323.7" fill="#FFDCEA"/>
<path d="M489.004 341.4C496.404 328.9 504.204 316.6 513.904 306.4C522.004 297.9 532.104 290 543.304 285.8C550.904 282.9 572.604 276.9 575.704 288.8C578.204 298.4 567.704 305.4 560.704 309.3C550.604 315 539.704 319 529.804 325C518.304 331.8 507.604 340 495.804 346.4" fill="#FFDCEA"/>
<path d="M494.004 313.5C498.004 301.9 501.904 290.5 508.404 280C512.704 273 520.304 260.7 529.804 260.2C535.904 259.8 535.504 269.1 534.604 273.1C533.004 279.4 529.204 285 524.904 289.8C514.704 301.3 505.704 311.8 496.904 324.4" fill="#FFDCEA"/>
<path d="M527.202 268.3C527.202 268.3 507.302 290.6 492.902 328.3" stroke="white" stroke-miterlimit="10" stroke-linecap="round"/>
<path d="M561.902 292.6C561.902 292.6 531.102 297.8 487.902 347.5" stroke="white" stroke-miterlimit="10" stroke-linecap="round"/>
<path d="M501.303 268.5C501.303 268.5 487.803 285.9 485.703 331.4" stroke="white" stroke-miterlimit="10" stroke-linecap="round"/>
<path d="M177.202 327.4C179.202 314.9 180.802 302.2 180.402 289.5C180.002 276.7 177.202 261.6 170.602 250.5C166.802 244.1 153.302 228.9 150.602 245.4C149.302 253.5 152.602 261.1 155.002 268.8C157.302 276.1 160.602 283.2 162.502 290.5C165.602 302.3 167.602 314.3 171.102 326" fill="#FFDCEA"/>
<path d="M170.604 333.9C167.304 318.2 163.504 302.6 157.004 288.4C151.504 276.6 143.804 264.8 133.604 256.3C126.704 250.6 106.204 236.6 98.6042 247.8C92.5042 256.9 101.104 268 107.004 274.6C115.504 284.1 125.504 292.3 133.804 302C143.404 313.3 151.704 325.7 161.804 336.6" fill="#FFDCEA"/>
<path d="M145.802 325.4C137.302 315 127.502 305.7 116.502 298C112.802 295.4 93.9023 282.6 93.9023 295.1C93.9023 303.7 104.202 308.6 110.502 311.9C123.502 318.7 137.602 323.7 149.702 332" fill="#FFDCEA"/>
<path d="M99.9023 297.3C99.9023 297.3 126.002 308.9 153.302 336.2" stroke="white" stroke-miterlimit="10" stroke-linecap="round"/>
<path d="M111.703 256.8C111.703 256.8 142.103 273.2 169.603 340.7" stroke="white" stroke-miterlimit="10" stroke-linecap="round"/>
<path d="M157.703 249.1C157.703 249.1 175.203 273.8 175.203 336.7" stroke="white" stroke-miterlimit="10" stroke-linecap="round"/>
<path d="M541.6 338.2C569.6 341.6 591.9 369.6 592.7 388.1H490.5C490.5 361.7 510.6 334.5 541.6 338.2Z" fill="#FFDCEA"/>
<path d="M535.402 334.2L539.102 392.7" stroke="white" stroke-miterlimit="10" stroke-linecap="round"/>
<path d="M536.699 355.4L546.599 336.5" stroke="white" stroke-miterlimit="10" stroke-linecap="round"/>
<path d="M525.502 391.4L501.102 349.3" stroke="white" stroke-miterlimit="10" stroke-linecap="round"/>
<path d="M519.701 338.601L516.301 375.501" stroke="white" stroke-miterlimit="10" stroke-linecap="round"/>
<path d="M517.502 394.2L491.902 372.8" stroke="white" stroke-miterlimit="10" stroke-linecap="round"/>
<path d="M501.401 380.8L490.301 379.4" stroke="white" stroke-miterlimit="10" stroke-linecap="round"/>
<path d="M572.302 347.3L541.902 390.5" stroke="white" stroke-miterlimit="10" stroke-linecap="round"/>
<path d="M555.199 339.8L559.499 365.5" stroke="white" stroke-miterlimit="10" stroke-linecap="round"/>
<path d="M591.399 369.601L558.199 391.401" stroke="white" stroke-miterlimit="10" stroke-linecap="round"/>
<path d="M584.102 359.5L554.402 372.8" stroke="white" stroke-miterlimit="10" stroke-linecap="round"/>
<path d="M578.602 378L596.602 380.8" stroke="white" stroke-miterlimit="10" stroke-linecap="round"/>
<path d="M162.8 310.099C119 315.299 84.2 359.099 83 387.999H242.6C242.6 346.899 211.3 304.299 162.8 310.099Z" fill="#FFC0D8"/>
<path d="M172.601 303.899L166.801 395.299" stroke="#FFDCEA" stroke-miterlimit="10" stroke-linecap="round"/>
<path d="M169.7 348.799L140 312.899" stroke="#FFDCEA" stroke-miterlimit="10" stroke-linecap="round"/>
<path d="M188 393.199L226.1 327.499" stroke="#FFDCEA" stroke-miterlimit="10" stroke-linecap="round"/>
<path d="M197.199 310.8L202.399 368.4" stroke="#FFDCEA" stroke-miterlimit="10" stroke-linecap="round"/>
<path d="M200.5 397.7L240.5 364.3" stroke="#FFDCEA" stroke-miterlimit="10" stroke-linecap="round"/>
<path d="M225.699 376.699L242.999 374.499" stroke="#FFDCEA" stroke-miterlimit="10" stroke-linecap="round"/>
<path d="M170.5 336.499L190 303.899" stroke="#FFDCEA" stroke-miterlimit="10" stroke-linecap="round"/>
<path d="M118.699 317.8L163.999 391.2" stroke="#FFDCEA" stroke-miterlimit="10" stroke-linecap="round"/>
<path d="M100.898 336.699L148.798 366.599" stroke="#FFDCEA" stroke-miterlimit="10" stroke-linecap="round"/>
<path d="M91.3984 352.8L136.998 393.2" stroke="#FFDCEA" stroke-miterlimit="10" stroke-linecap="round"/>
<path d="M83 370.499L117.1 375.599" stroke="#FFDCEA" stroke-miterlimit="10" stroke-linecap="round"/>
<path d="M446.3 293C499.7 299.4 542.2 352.8 543.6 388H349C349 337.9 387.2 286 446.3 293Z" fill="#FFC0D8"/>
<path d="M434.402 285.399L441.502 396.899" stroke="#FFDCEA" stroke-miterlimit="10" stroke-linecap="round"/>
<path d="M437.902 340.199L474.102 296.399" stroke="#FFDCEA" stroke-miterlimit="10" stroke-linecap="round"/>
<path d="M415.602 394.299L369.102 314.199" stroke="#FFDCEA" stroke-miterlimit="10" stroke-linecap="round"/>
<path d="M404.402 293.899L398.102 364.099" stroke="#FFDCEA" stroke-miterlimit="10" stroke-linecap="round"/>
<path d="M400.3 399.8L351.5 359.1" stroke="#FFDCEA" stroke-miterlimit="10" stroke-linecap="round"/>
<path d="M369.702 374.199L348.602 371.499" stroke="#FFDCEA" stroke-miterlimit="10" stroke-linecap="round"/>
<path d="M436.903 325.199L413.203 285.399" stroke="#FFDCEA" stroke-miterlimit="10" stroke-linecap="round"/>
<path d="M500.102 302.399L444.902 391.899" stroke="#FFDCEA" stroke-miterlimit="10" stroke-linecap="round"/>
<path d="M513.303 314.199L476.203 341.199" stroke="#FFDCEA" stroke-miterlimit="10" stroke-linecap="round"/>
<path d="M533.401 345.1L477.801 394.3" stroke="#FFDCEA" stroke-miterlimit="10" stroke-linecap="round"/>
<path d="M509.301 366.499L521.801 333.199" stroke="#FFDCEA" stroke-miterlimit="10" stroke-linecap="round"/>
<path d="M493 380.899L548.3 368.999" stroke="#FFDCEA" stroke-miterlimit="10" stroke-linecap="round"/>
<path d="M70.7016 338.2C42.7016 341.6 20.4016 369.6 19.6016 388.1H121.702C121.802 361.7 101.702 334.5 70.7016 338.2Z" fill="#FFDCEA"/>
<path d="M76.9031 334.2L73.2031 392.7" stroke="white" stroke-miterlimit="10" stroke-linecap="round"/>
<path d="M75.1031 363L65.7031 336.5" stroke="white" stroke-miterlimit="10" stroke-linecap="round"/>
<path d="M86.8008 391.4L111.201 349.3" stroke="white" stroke-miterlimit="10" stroke-linecap="round"/>
<path d="M92.7031 338.601L96.0031 375.501" stroke="white" stroke-miterlimit="10" stroke-linecap="round"/>
<path d="M94.8008 394.2L120.401 372.8" stroke="white" stroke-miterlimit="10" stroke-linecap="round"/>
<path d="M110.902 380.8L122.002 379.4" stroke="white" stroke-miterlimit="10" stroke-linecap="round"/>
<path d="M75.6016 355.1L88.1016 334.2" stroke="white" stroke-miterlimit="10" stroke-linecap="round"/>
<path d="M40 347.3L65.7 391.4" stroke="white" stroke-miterlimit="10" stroke-linecap="round"/>
<path d="M57.1 339.8L56.5 375.5" stroke="white" stroke-miterlimit="10" stroke-linecap="round"/>
<path d="M25 365.5L54.1 391.4" stroke="white" stroke-miterlimit="10" stroke-linecap="round"/>
<path d="M19.6016 376.8L41.4016 380.1" stroke="white" stroke-miterlimit="10" stroke-linecap="round"/>
<path d="M396.898 388.1H223.998C217.898 388.1 212.898 383.1 212.898 377V49.1C212.898 43 217.898 38 223.998 38H396.898C402.998 38 407.998 43 407.998 49.1V377C407.998 383.1 402.998 388.1 396.898 388.1Z" fill="#B7D1FF"/>
<path d="M317.398 369.5C317.398 373.4 314.298 376.5 310.398 376.5C306.498 376.5 303.398 373.4 303.398 369.5C303.398 365.6 306.498 362.5 310.398 362.5C314.298 362.6 317.398 365.7 317.398 369.5Z" stroke="white" stroke-miterlimit="10" stroke-linecap="round" stroke-linejoin="round"/>
<path d="M402.802 62.9004H218.102V351.1H402.802V62.9004Z" fill="white"/>
<path d="M293.602 49.7002H327.202" stroke="#6CA0FF" stroke-width="3" stroke-miterlimit="10" stroke-linecap="round" stroke-linejoin="round"/>
<path d="M281.199 49.7002H287.399" stroke="#6CA0FF" stroke-width="3" stroke-miterlimit="10" stroke-linecap="round" stroke-linejoin="round"/>
<path d="M356.602 0L210.602 396.9H253.102L399.102 0H356.602Z" fill="url(#paint0_linear_2237_93933)"/>
<path d="M412.203 0L266.203 396.9H284.203L430.203 0H412.203Z" fill="url(#paint1_linear_2237_93933)"/>
<path opacity="0.25" d="M253.1 57.5996H167.2C152.5 57.5996 140.5 69.4996 140.5 84.2996C140.5 98.9996 152.4 111 167.2 111H174.9L179.7 117.2L184.5 111H253.1C267.8 111 279.8 99.0996 279.8 84.2996C279.8 69.4996 267.8 57.5996 253.1 57.5996Z" fill="#B7D1FF"/>
<path opacity="0.25" d="M306.302 97.6992H392.202C406.902 97.6992 418.902 109.599 418.902 124.399C418.902 139.099 407.002 151.099 392.202 151.099H388.502L383.702 157.299L378.902 151.099H306.302C291.602 151.099 279.602 139.199 279.602 124.399C279.602 109.699 291.602 97.6992 306.302 97.6992Z" fill="#B7D1FF"/>
<path opacity="0.25" d="M344.1 190.699H255.2C240.5 190.699 228.5 202.599 228.5 217.399C228.5 232.099 240.4 244.099 255.2 244.099H262.9L267.7 250.299L272.5 244.099H344.1C358.8 244.099 370.8 232.199 370.8 217.399C370.8 202.599 358.8 190.699 344.1 190.699Z" fill="#B7D1FF"/>
<path d="M243.398 203.699H353.698" stroke="white" stroke-width="1.5" stroke-miterlimit="10" stroke-linecap="round" stroke-linejoin="round"/>
<path d="M275.098 212.799H353.698" stroke="white" stroke-width="1.5" stroke-miterlimit="10" stroke-linecap="round" stroke-linejoin="round"/>
<path d="M243.398 212.799H265.598" stroke="white" stroke-width="1.5" stroke-miterlimit="10" stroke-linecap="round" stroke-linejoin="round"/>
<path d="M327.199 221.899H353.699" stroke="white" stroke-width="1.5" stroke-miterlimit="10" stroke-linecap="round" stroke-linejoin="round"/>
<path d="M243.398 221.899H316.998" stroke="white" stroke-width="1.5" stroke-miterlimit="10" stroke-linecap="round" stroke-linejoin="round"/>
<path d="M243.398 231.1H300.098" stroke="white" stroke-width="1.5" stroke-miterlimit="10" stroke-linecap="round" stroke-linejoin="round"/>
<path opacity="0.25" d="M280.302 275.899H369.202C383.902 275.899 395.902 287.799 395.902 302.599C395.902 317.299 384.002 329.299 369.202 329.299H361.502L356.702 335.499L351.902 329.299H280.302C265.602 329.299 253.602 317.399 253.602 302.599C253.602 287.799 265.502 275.899 280.302 275.899Z" fill="#B7D1FF"/>
<path d="M268.5 288.8H378.8" stroke="white" stroke-width="1.5" stroke-miterlimit="10" stroke-linecap="round" stroke-linejoin="round"/>
<path d="M317.801 298H378.801" stroke="white" stroke-width="1.5" stroke-miterlimit="10" stroke-linecap="round" stroke-linejoin="round"/>
<path d="M268.5 298H309.5" stroke="white" stroke-width="1.5" stroke-miterlimit="10" stroke-linecap="round" stroke-linejoin="round"/>
<path d="M358.699 307.1H378.799" stroke="white" stroke-width="1.5" stroke-miterlimit="10" stroke-linecap="round" stroke-linejoin="round"/>
<path d="M268.5 307.1H348.5" stroke="white" stroke-width="1.5" stroke-miterlimit="10" stroke-linecap="round" stroke-linejoin="round"/>
<path d="M268.5 316.3H337.6" stroke="white" stroke-width="1.5" stroke-miterlimit="10" stroke-linecap="round" stroke-linejoin="round"/>
<path d="M0 388.1H620.8" stroke="#6CA0FF" stroke-miterlimit="10" stroke-linejoin="round"/>
<path d="M189.698 128.4C188.898 127.3 187.998 126.1 186.598 125.7C186.198 125.6 185.798 125.6 185.398 125.6C183.798 125.6 182.198 126 180.798 126.8C180.398 127 179.998 127.3 179.698 127.6C179.298 128 179.198 128.3 179.198 128.8C179.198 129.2 179.198 129.6 179.198 130C179.198 130.6 178.998 131.2 178.898 131.8C178.498 133.4 178.598 134.8 178.898 136.4C178.998 137 178.998 137.6 178.798 138.2C178.598 138.7 178.198 139.1 177.898 139.4C177.198 140.1 176.498 141 176.198 142C175.798 143 175.698 144.1 176.098 145.1C176.298 145.6 176.598 146.1 176.898 146.5C177.498 147.7 177.598 149.3 177.198 150.6C177.098 150.9 177.298 151.2 177.598 151.3C180.298 151.8 183.098 152.1 185.898 151.8C188.898 151.5 191.898 150.4 194.198 148.4" fill="#00276F"/>
<path d="M180.7 125.4C179.5 130.6 180.4 144.8 184.4 146.6C188.3 148.4 193.3 144.4 194.8 142.6C197 140 201 129 197.4 125.6C193.6 122.1 182.3 118 180.7 125.4Z" fill="#F886BC"/>
<path d="M189.598 143.4L192.498 153.8L191.398 156.6C191.398 156.6 190.598 162.2 191.598 162.5C195.298 163.6 203.498 152.2 203.498 152.2L196.898 137.2" fill="#F886BC"/>
<path d="M199.998 126.299C198.898 121.299 192.598 118.199 187.198 118.999C182.798 117.699 174.198 122.399 178.098 131.499C178.098 131.499 181.498 128.399 185.898 124.199C188.698 132.799 199.098 137.199 199.098 137.199C199.098 137.199 201.398 132.299 199.998 126.299Z" fill="#00276F"/>
<path d="M186 119.2C190 113.9 199.5 117.4 202 120C204.8 123 205.9 126 209.2 128C210.7 128.9 212.6 129.5 213.4 131.1C214.5 133.2 213.1 136.3 214.7 138.2C215.3 139 218.4 141.5 218.4 145.5C215.1 147.8 212.3 147 208.6 148.5C205.9 149.6 202.2 151.4 199.2 151.9C198.8 152 198.5 151.6 198.6 151.3C198.7 150 199 148.4 198.4 147.4C198.1 146.9 197.6 146.5 197.3 146C196.5 144.8 196.6 143.2 196.8 141.7C197 140.2 197.4 138.7 196.9 137.3C196.5 136 195.5 135 194.4 134.2" fill="#00276F"/>
<path d="M196.197 118.5C195.397 118.6 194.897 117.8 194.597 117.1C194.197 116.2 193.997 115.1 194.297 114.1C194.997 111.9 197.997 111.7 199.797 112.8C201.297 113.8 202.397 116 201.197 117.6C200.397 118.7 198.597 119 197.397 119.2" fill="#00276F"/>
<path d="M194.398 135.9C194.398 135.7 194.598 135.6 194.798 135.4C195.598 134.9 196.498 134.3 197.298 134.7C197.698 134.9 198.098 135.3 198.198 135.7C198.798 137.2 198.598 139.2 197.498 140.4C196.498 141.5 193.798 142.2 193.398 140.2" fill="#F886BC"/>
<path d="M184.5 134.3C184.5 134.3 181.9 138.8 182.7 139.6C183.5 140.4 185.2 139.9 185.2 139.9" stroke="#D34F9B" stroke-width="0.75" stroke-miterlimit="10"/>
<path d="M187.598 134.2C187.598 134.5 187.698 135 187.798 135.2C187.898 135.7 188.398 135.8 188.798 135.5C189.498 135 188.898 133.3 187.998 133.6C187.698 133.7 187.698 133.9 187.598 134.2Z" fill="#00276F"/>
<path d="M181 134.2C181 134.5 181.1 135 181.2 135.2C181.3 135.7 181.8 135.8 182.2 135.5C182.9 135 182.3 133.3 181.4 133.6C181.1 133.7 181 133.9 181 134.2Z" fill="#00276F"/>
<path d="M185.898 132.3C185.898 132.3 187.498 130.3 190.298 132.3" stroke="#00276F" stroke-width="0.75" stroke-miterlimit="10" stroke-linecap="round"/>
<path d="M180.699 132.5C181.299 131.9 182.299 131.4 183.399 132.4" stroke="#00276F" stroke-width="0.75" stroke-miterlimit="10" stroke-linecap="round"/>
<path d="M183.797 142.1L188.797 140.9C188.797 140.9 187.897 143.9 185.397 143.9C184.297 144 183.797 142.1 183.797 142.1Z" fill="white"/>
<path d="M190.5 146.4C190.5 146.4 193.8 145.3 195.2 142.5" stroke="#D34F9B" stroke-width="0.75" stroke-miterlimit="10"/>
<path d="M147.2 177.7C147.2 177.7 146.4 179.9 147.8 183.6C149.6 188.4 168.6 218.2 180.7 219.3C192.8 220.4 205 184.2 205 173C205 161.8 195.2 158.5 188.9 166.6C182.6 174.6 175.3 202.6 175.3 202.6L147.2 177.7Z" fill="#DD3C91"/>
<path d="M159.699 187.4C159.199 185.7 157.399 183 156.399 181.6C155.899 180.8 153.999 178.2 152.899 178.7C152.199 179.1 152.899 181 153.199 181.6C153.599 182.4 154.199 183.1 154.799 183.8" fill="#DD3C91"/>
<path d="M159.599 360.7L154.799 384C154.799 384 135.699 395.2 135.699 395.5C135.699 395.7 153.899 396.4 153.899 396.4L161.999 392.5H169.899C170.799 392.5 171.499 391.6 171.299 390.7L169.699 383.5L178.199 359" fill="#F886BC"/>
<path d="M137 392.8C139.9 391.1 150.6 385.8 150.6 385.8L161.9 392.4H171.6V398H161.9V393.8H160.7C160.3 393.8 159.8 393.9 159.5 394.2L155.3 397.5C154.8 397.9 154.3 398 153.7 398C153.7 398 138.3 398 135.8 398C133.3 398 132.6 395.3 137 392.8Z" fill="#00276F"/>
<path d="M165.9 393.5L170.5 387.3L170 384.9L164.5 392.5L165.9 393.5Z" fill="#00276F"/>
<path d="M225.398 205.199C225.398 205.199 240.098 228.399 223.698 251.799C217.098 261.299 194.898 300.699 194.898 300.699L182.698 371.599H150.398C150.398 371.599 160.798 301.399 165.398 288.699C170.098 275.999 199.198 216.599 199.198 216.599V207.399" fill="#EF8318"/>
<path d="M210.998 250.3C204.398 259.8 184.798 300.6 184.798 300.6L172.598 371.5" stroke="#AF480E" stroke-width="0.75" stroke-miterlimit="10"/>
<path d="M213.5 250.3C206.9 259.8 187.3 300.6 187.3 300.6L175 371.5" stroke="#AF480E" stroke-width="0.75" stroke-miterlimit="10" stroke-dasharray="2 2"/>
<path d="M206.598 343.6L222.998 360.1C222.998 360.1 213.898 380 214.098 380.2C214.198 380.4 229.298 370.6 229.298 370.6L233.598 362.9L239.998 358.5C240.698 358 240.798 356.9 240.098 356.3L234.698 351.4L220.598 331.8" fill="#F886BC"/>
<path d="M213.598 377.3C214.998 374.3 220.698 364 220.698 364L233.498 363L241.398 357.5L244.598 362L236.698 367.5L234.298 364.1L233.298 364.8C232.898 365 232.698 365.4 232.598 365.8L230.998 370.8C230.798 371.3 230.498 371.8 229.998 372.2C229.998 372.2 217.598 380.9 215.598 382.3C213.498 383.7 211.498 381.8 213.598 377.3Z" fill="#00276F"/>
<path d="M237.399 361.5L237.599 353.9L235.799 352.3L235.699 361.5H237.399Z" fill="#00276F"/>
<path d="M197.801 207.1L196.601 216.5C196.601 216.5 157.801 264.1 157.801 284.1C157.801 303.7 201.601 352.6 201.601 352.6L226.101 333.9L194.201 288.3C194.201 288.3 225.401 250.3 230.801 244.9C239.801 235.9 239.201 220.6 227.801 205.1" fill="#FFAB37"/>
<path d="M197 213.199C197 213.199 214.2 214.999 230.6 209.399" stroke="#AF480E" stroke-width="0.75" stroke-miterlimit="10"/>
<path d="M204.301 213.499V207.899" stroke="#AF480E" stroke-width="0.75" stroke-miterlimit="10" stroke-linecap="round"/>
<path d="M225.9 210.799L224 205.699" stroke="#AF480E" stroke-width="0.75" stroke-miterlimit="10"/>
<path d="M220.001 338.6L188.001 292.5C186.301 290 186.301 286.7 188.201 284.3C195.601 274.4 214.501 249.6 218.401 245C226.701 235.3 227.501 223.9 221.301 211.8" stroke="#AF480E" stroke-width="0.75" stroke-miterlimit="10"/>
<path d="M220.498 334.699L219.898 333.899" stroke="#AF480E" stroke-width="0.75" stroke-miterlimit="10"/>
<path d="M219.1 332.599L190.4 291.199C189.2 289.499 189.2 287.199 190.5 285.499C197.2 276.699 217.5 249.799 221.6 244.999C229.5 235.699 230.2 224.499 224.8 212.999" stroke="#AF480E" stroke-width="0.75" stroke-miterlimit="10" stroke-dasharray="1.99 1.99"/>
<path d="M224.4 212.299C224.3 211.999 224.1 211.699 224 211.399" stroke="#AF480E" stroke-width="0.75" stroke-miterlimit="10"/>
<path d="M213.801 213C213.801 213 214.901 216.9 218.001 218.4C221.101 219.9 224.601 220.8 224.601 220.8" stroke="#AF480E" stroke-width="0.75" stroke-miterlimit="10"/>
<path d="M232.199 223.299C232.199 223.299 233.599 223.199 236.199 222.399" stroke="#AF480E" stroke-width="0.75" stroke-miterlimit="10"/>
<path d="M232.199 225.199C232.199 225.199 233.999 225.199 236.599 224.399" stroke="#AF480E" stroke-width="0.75" stroke-miterlimit="10"/>
<path d="M197.801 348.4L202.301 354.6L227.601 334.8L222.801 329.3L197.801 348.4Z" fill="#AF480E"/>
<path d="M149.801 371.5L151.501 364.6H184.001V371.5H149.801Z" fill="#AF480E"/>
<path d="M162.6 190.1C162.7 190.2 162.7 190.5 162.6 190.6L161.7 191.5C161.6 191.6 161.3 191.6 161.2 191.5L144.2 174.8C144.1 174.7 144.1 174.4 144.2 174.3L145.1 173.4C145.2 173.3 145.5 173.3 145.6 173.4" fill="#00276F"/>
<path d="M146.398 175.5L147.798 176.9" stroke="#2D5491" stroke-width="0.5" stroke-miterlimit="10" stroke-linecap="round"/>
<path d="M148.301 177.5L148.501 177.7" stroke="#2D5491" stroke-width="0.5" stroke-miterlimit="10" stroke-linecap="round"/>
<path d="M222.9 166.7C216.5 153.6 203.3 151.8 203.3 151.8C203.3 151.8 192.8 160.4 191.4 156.6C189.9 158.9 180.1 175.8 181.4 184.5C182.7 193.2 190.2 194.4 191.7 196.3C193.2 198.2 196.7 210.2 197.2 211.1C212.3 210.8 227.7 205.3 227.7 205.3C227.7 205.3 229.7 180.7 222.9 166.7Z" fill="#0070E4"/>
<path d="M217.9 170.099C215.2 159.999 206.8 154.599 199.3 157.299C192.9 159.599 191.6 167.099 193.4 176.999C195.2 186.899 194.8 200.199 194.8 200.199C194.8 200.199 171.6 191.599 167.2 189.899C162.7 186.099 157.2 182.099 156.3 182.099C155.4 182.099 155.8 183.699 157.1 184.899C158.4 186.199 160.6 188.199 158.8 187.999C157.4 187.899 148.6 178.999 148.6 178.999C147.9 179.699 148.7 181.799 148.7 181.799C148.7 181.799 148.8 185.199 151.6 188.399C170.8 210.299 193.5 225.499 207.8 220.299C221.3 215.299 218.9 173.699 217.9 170.099Z" fill="#F886BC"/>
<path d="M155.302 189.1C155.302 189.1 154.802 188.8 154.002 188.2C153.302 187.6 152.302 186.8 151.502 185.9C150.702 185 149.902 184 149.402 183.2C148.902 182.4 148.602 181.8 148.602 181.8C148.602 181.8 149.002 182.2 149.702 182.9C150.302 183.6 151.202 184.5 152.002 185.4C152.802 186.3 153.602 187.2 154.202 187.9C154.502 188.3 154.802 188.6 154.902 188.8C155.202 189 155.302 189.1 155.302 189.1Z" fill="#D34F9B"/>
<path d="M219.8 171.799C218 160.699 209.5 154 201.2 156.1C194.1 157.9 191.9 165.8 192.8 176.6C193.1 179.8 193.3 183.2 193.6 186.6L219.8 189.699C220.3 180.799 220 173.299 219.8 171.799Z" fill="#0070E4"/>
<path d="M219.699 189.6C220.199 180.7 219.999 173.299 219.699 171.799C217.899 160.699 209.399 154 201.099 156.1C193.999 157.9 191.799 165.8 192.699 176.6C192.999 179.8 193.199 183.2 193.499 186.6" stroke="#0E4099" stroke-width="0.75" stroke-miterlimit="10"/>
<path d="M401.698 358.999L403.798 357.999L416.798 385.599C417.398 386.899 418.698 387.799 420.198 387.999L420.398 388.199L416.998 389.799C416.898 389.899 416.698 389.899 416.598 389.799H416.498C415.698 389.499 414.998 388.899 414.598 388.099L401.398 360.099C401.098 359.699 401.298 359.199 401.698 358.999Z" fill="#00276F"/>
<path d="M438.198 325.399L414.198 354.299L405.398 359.499L417.898 385.999C418.298 386.899 419.398 387.299 420.198 386.799C420.898 386.499 421.298 385.799 421.198 385.099L419.898 367.499L446.198 345.899" fill="#F886BC"/>
<path d="M421.198 366.3L421.798 386.2C421.798 387 421.298 387.8 420.498 388.2C419.398 388.7 417.998 388 417.498 387L403.898 358L414.698 354.1C414.498 354.1 413.498 360.8 421.198 366.3Z" fill="#FFAB37"/>
<path d="M422.098 370.1C420.498 369.7 418.798 369.6 417.098 369.6" stroke="#00276F" stroke-miterlimit="10" stroke-linecap="round"/>
<path d="M421.798 372.799C419.998 372.499 419.098 372.399 417.598 372.399" stroke="#00276F" stroke-miterlimit="10" stroke-linecap="round"/>
<path d="M421.697 374.999C420.497 374.799 418.997 374.699 417.797 374.699" stroke="#00276F" stroke-miterlimit="10" stroke-linecap="round"/>
<path d="M450.898 224.1L454.298 232.1C455.398 234.7 457.098 237 459.198 238.9C468.598 247.4 492.498 280.8 492.798 294.8C493.098 311.8 440.898 366.6 440.898 366.6L420.498 343.7L461.498 294.7L425.898 260.7C425.898 260.7 409.598 255 416.198 225.8" fill="#00224C"/>
<path d="M426.598 343.6L464.998 295.8C466.398 294.3 466.198 291.8 464.598 290.5L431.898 257.7C431.898 257.7 415.598 251.7 422.198 221.5" stroke="#15489B" stroke-width="0.75" stroke-miterlimit="10" stroke-dasharray="2 2"/>
<path d="M426.397 347.1L467.197 297C469.197 294.8 468.897 291.4 466.597 289.5C466.597 289.5 431.797 255.3 431.597 255.3C429.897 254.6 419.297 248.5 425.397 220.1" stroke="#15489B" stroke-width="0.75" stroke-miterlimit="10"/>
<path d="M424.2 339.5L417.5 345.8L439.5 368.6L445.7 362L424.2 339.5Z" fill="#15489B"/>
<path d="M466.598 397.2V394.9H496.998C498.498 394.9 499.798 394.1 500.598 392.9H500.898V396.7C500.898 396.8 500.798 397 500.798 397.1L500.698 397.2C500.098 397.9 499.198 398.2 498.298 398.2H467.398C466.898 398.1 466.598 397.7 466.598 397.2Z" fill="#00276F"/>
<path d="M455.098 354.4L467.698 383.9L468.698 394.1H497.998C498.998 394.1 499.798 393.3 499.798 392.3C499.798 391.6 499.398 390.9 498.698 390.7L482.198 384.4L473.798 351.4" fill="#F886BC"/>
<path d="M481.396 382.7L499.596 390.7C500.396 391 500.796 391.8 500.796 392.8C500.796 394 499.496 395 498.496 395H466.496L467.596 383.6C467.596 383.5 473.196 387.3 481.396 382.7Z" fill="#FFAB37"/>
<path d="M485.299 383.5C484.299 384.8 483.399 386.3 482.699 387.8" stroke="#00276F" stroke-miterlimit="10" stroke-linecap="round"/>
<path d="M487.596 384.9C486.496 386.4 486.096 387.2 485.496 388.6" stroke="#00276F" stroke-miterlimit="10" stroke-linecap="round"/>
<path d="M489.498 385.9C488.798 386.9 488.098 388.2 487.598 389.3" stroke="#00276F" stroke-miterlimit="10" stroke-linecap="round"/>
<path d="M404.498 229.5C404.498 229.5 403.198 247.5 411.098 264.5C418.998 281.5 451.098 380.2 451.098 380.2L479.498 368L444.998 250.5C444.998 250.5 443.898 235.8 437.898 216.5" fill="#00276F"/>
<path d="M459.099 376.8L419.699 264.3C419.699 264.3 411.699 250.3 411.699 239.6" stroke="#1B5ABF" stroke-width="0.75" stroke-miterlimit="10"/>
<path d="M456.896 377.8L416.496 264.4C416.496 264.4 408.496 250.4 408.496 239.7" stroke="#1B5ABF" stroke-width="0.75" stroke-miterlimit="10" stroke-dasharray="2 2"/>
<path d="M448.699 372.7L451.399 381.5L480.399 369.8L477.699 361.7L448.699 372.7Z" fill="#1B5ABF"/>
<path d="M413.898 252.2C413.898 252.2 421.998 248.2 423.998 239" stroke="#1B5ABF" stroke-width="0.75" stroke-miterlimit="10"/>
<path d="M445.098 253.6C445.098 253.6 448.298 249.9 447.998 246.9C447.198 238.6 445.098 228.1 445.098 228.1" stroke="#00276F" stroke-width="0.75" stroke-miterlimit="10"/>
<path d="M485.202 176.1L478.102 168.9C478.102 168.9 484.802 152.2 485.502 152.3C487.002 152.6 484.302 159.7 484.302 159.7C484.302 159.7 488.202 152.1 488.802 152.6C489.802 153.5 487.002 161.3 487.002 161.3C487.002 161.3 490.402 153.8 491.102 154.6C491.802 155.4 488.702 167.1 488.702 167.1L485.202 176.1Z" fill="#F886BC"/>
<path d="M476.703 169.7L478.003 167.1C478.003 167.1 478.403 162.7 479.503 159.5C480.603 156.3 481.503 154.7 482.103 154.7C482.703 154.7 482.103 159.7 482.103 159.7C482.103 159.7 483.103 164 481.603 166.8" fill="#F886BC"/>
<path d="M485.599 168.7L480.599 164.1C480.399 163.9 480.299 163.6 480.399 163.3L485.999 148.5C485.999 148.5 486.299 148.6 486.399 148.6C486.499 148.6 486.599 148.7 486.699 148.7L492.099 153.4C492.299 153.6 492.399 153.9 492.299 154.2L486.699 168.5C486.599 168.7 486.399 168.8 486.199 168.8L485.599 168.7Z" fill="#0A172B"/>
<path d="M485.401 168.6L480.001 163.9C479.801 163.7 479.701 163.4 479.801 163.1L485.501 148.8C485.601 148.5 486.001 148.4 486.201 148.6L491.601 153.3C491.801 153.5 491.901 153.8 491.801 154.1L486.201 168.4C486.101 168.7 485.701 168.8 485.401 168.6Z" fill="#00276F"/>
<path d="M480.301 162.101L486.501 167.601L491.501 155.101L485.201 149.601L480.301 162.101Z" fill="#8DADE0"/>
<path d="M483.1 165.5C483.1 165.7 482.9 165.8 482.7 165.7C482.6 165.6 482.5 165.4 482.5 165.2C482.5 165 482.7 164.9 482.9 165C483 165 483.1 165.3 483.1 165.5Z" fill="#8DADE0"/>
<path d="M488 151L489.1 152" stroke="#8DADE0" stroke-width="0.25" stroke-miterlimit="10" stroke-linecap="round"/>
<path opacity="0.55" d="M484.801 153.5C484.801 153.7 484.601 153.8 484.501 153.7C484.401 153.6 484.301 153.4 484.301 153.2C484.301 153 484.501 152.9 484.601 153C484.701 153.1 484.801 153.3 484.801 153.5Z" fill="#8DADE0"/>
<path opacity="0.51" d="M489.901 155.5L486.601 152.6C486.201 152.3 485.701 152.4 485.501 152.9L485.101 153.9L484.801 154L488.801 157.5C489.201 157.8 489.701 157.7 489.901 157.2L490.201 156.6C490.301 156.2 490.201 155.8 489.901 155.5Z" fill="white"/>
<path d="M486.102 153.4L489.502 156.2" stroke="#8DADE0" stroke-width="0.25" stroke-miterlimit="10" stroke-linecap="round"/>
<path d="M485.801 154.101L487.701 155.801" stroke="#8DADE0" stroke-width="0.25" stroke-miterlimit="10" stroke-linecap="round"/>
<path opacity="0.55" d="M481.602 161.101C481.602 161.301 481.402 161.401 481.302 161.301C481.202 161.201 481.102 161.001 481.102 160.801C481.102 160.601 481.302 160.501 481.402 160.601C481.502 160.701 481.602 160.901 481.602 161.101Z" fill="#8DADE0"/>
<path opacity="0.51" d="M486.702 163.201L483.402 160.301C483.002 160.001 482.502 160.101 482.302 160.601L481.902 161.601L481.602 161.701L485.602 165.201C486.002 165.501 486.502 165.401 486.702 164.901L487.002 164.301C487.102 163.901 487.002 163.501 486.702 163.201Z" fill="white"/>
<path d="M482.902 161.001L486.302 163.901" stroke="#8DADE0" stroke-width="0.25" stroke-miterlimit="10" stroke-linecap="round"/>
<path d="M482.602 161.801L484.502 163.501" stroke="#8DADE0" stroke-width="0.25" stroke-miterlimit="10" stroke-linecap="round"/>
<path opacity="0.55" d="M488.602 161.601C488.602 161.801 488.402 161.901 488.302 161.801C488.202 161.701 488.102 161.501 488.102 161.301C488.102 161.101 488.302 161.001 488.402 161.101C488.502 161.201 488.602 161.501 488.602 161.601Z" fill="#8DADE0"/>
<path opacity="0.51" d="M487.9 159L484.3 155.9C484 155.6 483.6 155.8 483.4 156.1L483 157.1C482.9 157.4 483 157.7 483.2 157.9L487.6 161.7L487.5 161.2L488.1 159.8C488.2 159.5 488.2 159.2 487.9 159Z" fill="white"/>
<path d="M484.102 156.7L487.402 159.6" stroke="#8DADE0" stroke-width="0.25" stroke-miterlimit="10" stroke-linecap="round"/>
<path d="M483.801 157.5L485.701 159.1" stroke="#8DADE0" stroke-width="0.25" stroke-miterlimit="10" stroke-linecap="round"/>
<path d="M486 159.4L486.7 160.1" stroke="#8DADE0" stroke-width="0.25" stroke-miterlimit="10" stroke-linecap="round"/>
<path d="M491.602 151.2L492.802 152.5L480.302 167.3L479.102 166.1L491.602 151.2Z" fill="url(#paint2_linear_2237_93933)"/>
<path d="M491.5 149.9L491.8 150.2L479.3 165L479 164.7L491.5 149.9Z" fill="url(#paint3_linear_2237_93933)"/>
<path d="M455.802 179.501L462.802 190.801L478.002 167.101C478.002 167.101 488.802 168.101 487.602 173.501C481.602 188.701 476.702 211.801 464.902 212.901C451.902 214.201 435.402 189.901 435.402 189.901" fill="#F886BC"/>
<path d="M462.801 190.8C462.801 190.8 459.701 195.2 457.301 201.6" stroke="#D34F9B" stroke-width="0.75" stroke-miterlimit="10"/>
<path d="M486.303 176.5C486.303 176.5 490.703 165.9 491.203 163.8C491.703 161.8 493.103 156.2 492.203 156.2C491.303 156.2 489.203 161.5 489.003 162.4C487.203 163.4 484.703 165.1 484.703 168.2" fill="#F886BC"/>
<path d="M428.602 149.601C428.602 149.601 443.402 151.001 459.802 184.201C456.602 188.901 439.902 198.701 435.302 198.601C430.302 191.301 425.602 172.601 425.602 172.601" fill="#6CA0FF"/>
<path d="M443.198 178.8C438.598 160.6 431.698 151.8 431.698 151.8L416.498 147.4L404.198 162.7C391.798 200.3 403.698 241.7 403.698 241.7C412.198 245.3 447.598 237.9 456.198 229.3C456.098 229.4 447.098 194.1 443.198 178.8Z" fill="#6CA0FF"/>
<path d="M446.999 193.8C446.999 193.8 440.499 165.1 437.199 159.7" stroke="#225BAF" stroke-width="0.75" stroke-miterlimit="10"/>
<path d="M389.3 176.101C389.3 176.101 381.8 196.101 383.8 207.901C386.8 226.001 415.9 243.201 415.9 243.201C415.9 243.201 414.9 248.101 417 250.401C422.1 246.601 423.8 241.901 423.8 241.901L421.4 237.901C421.4 237.901 405.4 212.801 405.9 204.501C406.2 198.701 415.3 169.601 415.3 169.601" fill="#F886BC"/>
<path d="M416.4 147.4C416.4 147.4 400.2 151.9 393.4 164.2C385.1 179.1 383.5 191.7 383.5 191.7C390.6 198.8 404.9 201.9 412.7 200.2L418.3 171.8" fill="#6CA0FF"/>
<path d="M412.699 200.301L417.799 174.101" stroke="#225BAF" stroke-width="0.75" stroke-miterlimit="10"/>
<path d="M433.2 139.2L425 125L418.6 136.4L419 139L416.5 147.5C419 155 429.5 155.9 431.7 151.9L433.2 139.2Z" fill="#F886BC"/>
<path d="M440.401 120.1C441.701 125.2 442.101 142.4 438.001 144.2C433.901 146 425.701 144.3 423.301 141.2C421.201 138.5 419.301 124.2 423.001 120.7C426.801 117.2 438.601 113 440.401 120.1Z" fill="#F886BC"/>
<path d="M428 123.4C431.8 124.1 435.2 123 438.1 122C441.1 121 443.9 119.2 445.3 116.4C446.5 114.1 446.6 110.8 443.7 109.6C443 109.3 442.2 109.2 441.5 109.2C439.1 109.4 437.1 110.9 435.3 112.3C436.1 108.5 428.8 110.2 427.3 111.6C426.8 112 426.5 112.6 425.9 112.9C424.2 113.9 422 114 420.2 114.8C417.9 115.8 416.1 117.8 415.4 120.2C414.8 122.2 414.1 125.4 415.7 127.8C416.5 128.9 417.2 130.2 417.4 131.5L418.7 137C418.7 137 421.3 135.2 421.5 134.9C422.5 134.1 422.9 133.1 423.7 132.1C425.8 129.6 427.2 126 428 123.4Z" fill="#00276F"/>
<path d="M425.5 130.8C425 129.9 424.4 128.9 423.4 128.8C422.9 128.8 422.4 129 422.1 129.3C420.3 131 420.1 134.4 422 136.1C422.8 136.8 423.9 137.2 424.6 136.2L425.6 131.4C425.7 131.3 425.6 131 425.5 130.8Z" fill="#F886BC"/>
<path d="M432.499 145.2C432.499 145.2 425.899 145 423.199 140.9" stroke="#D34F9B" stroke-width="0.75" stroke-miterlimit="10"/>
<path d="M437.001 128.4C437.001 128.4 439.701 132.9 438.801 134.2C437.901 135.5 435.801 134.7 435.801 134.7" stroke="#D34F9B" stroke-width="0.75" stroke-miterlimit="10"/>
<path d="M433.801 128.2C433.901 128.5 433.901 129 433.901 129.2C433.901 129.7 433.401 129.9 433.001 129.8C432.201 129.5 432.401 127.7 433.301 127.8C433.601 127.8 433.701 128 433.801 128.2Z" fill="#00276F"/>
<path d="M440.399 128.2C440.499 128.5 440.499 129 440.499 129.2C440.499 129.7 439.999 129.9 439.599 129.8C438.799 129.5 438.999 127.7 439.899 127.8C440.099 127.8 440.299 128 440.399 128.2Z" fill="#00276F"/>
<path d="M438.301 138.1L431.501 136.2C431.501 136.2 431.201 141.3 435.301 142.1C437.901 142.6 438.301 138.1 438.301 138.1Z" fill="white"/>
<path d="M434.3 125.701C433 125.701 431.6 126.001 430.5 126.501C430.4 126.401 430 125.801 430.2 125.501C430.4 125.201 432.4 124.501 434.2 124.601C434.2 124.501 434.6 125.601 434.3 125.701Z" fill="#00276F"/>
<path d="M438.001 125.7C438.901 125.7 439.901 126 440.601 126.5C440.701 126.4 440.901 125.9 440.901 125.6C440.801 125.3 439.501 124.7 438.201 124.7C438.101 124.6 437.801 125.5 438.001 125.7Z" fill="#00276F"/>
<path d="M421.199 135.101C421.199 135.101 422.499 137.101 424.299 136.501" stroke="#D34F9B" stroke-width="0.75" stroke-miterlimit="10"/>
<path d="M380.699 220.6V225.3" stroke="#6CA0FF" stroke-miterlimit="10" stroke-linecap="round" stroke-linejoin="round"/>
<path d="M383.098 222.899H378.398" stroke="#6CA0FF" stroke-miterlimit="10" stroke-linecap="round" stroke-linejoin="round"/>
<path d="M519.902 194.8V199.4" stroke="#6CA0FF" stroke-miterlimit="10" stroke-linecap="round" stroke-linejoin="round"/>
<path d="M522.302 197.1H517.602" stroke="#6CA0FF" stroke-miterlimit="10" stroke-linecap="round" stroke-linejoin="round"/>
<path d="M111.699 92.5996V97.1996" stroke="#6CA0FF" stroke-miterlimit="10" stroke-linecap="round" stroke-linejoin="round"/>
<path d="M113.998 94.8994H109.398" stroke="#6CA0FF" stroke-miterlimit="10" stroke-linecap="round" stroke-linejoin="round"/>
<path d="M302.801 4.09961V8.69961" stroke="#6CA0FF" stroke-miterlimit="10" stroke-linecap="round" stroke-linejoin="round"/>
<path d="M305.1 6.39941H300.5" stroke="#6CA0FF" stroke-miterlimit="10" stroke-linecap="round" stroke-linejoin="round"/>
<path d="M276.599 24.5994C276.599 25.7994 275.599 26.7994 274.399 26.7994C273.199 26.7994 272.199 25.7994 272.199 24.5994C272.199 23.3994 273.199 22.3994 274.399 22.3994C275.599 22.3994 276.599 23.3994 276.599 24.5994Z" stroke="#6CA0FF" stroke-miterlimit="10" stroke-linecap="round" stroke-linejoin="round"/>
<path d="M343.201 80.2C343.201 81.4 342.201 82.4 341.001 82.4C339.801 82.4 338.801 81.4 338.801 80.2C338.801 79 339.801 78 341.001 78C342.201 78 343.201 78.9 343.201 80.2Z" stroke="#6CA0FF" stroke-miterlimit="10" stroke-linecap="round" stroke-linejoin="round"/>
<path d="M466.7 146.599C467.915 146.599 468.9 145.614 468.9 144.399C468.9 143.184 467.915 142.199 466.7 142.199C465.485 142.199 464.5 143.184 464.5 144.399C464.5 145.614 465.485 146.599 466.7 146.599Z" stroke="#6CA0FF" stroke-miterlimit="10" stroke-linecap="round" stroke-linejoin="round"/>
<path d="M72.9 271.899C72.9 273.099 71.9 274.099 70.7 274.099C69.5 274.099 68.5 273.099 68.5 271.899C68.5 270.699 69.5 269.699 70.7 269.699C71.9 269.699 72.9 270.699 72.9 271.899Z" stroke="#6CA0FF" stroke-miterlimit="10" stroke-linecap="round" stroke-linejoin="round"/>
<path d="M160.7 232.299C161.915 232.299 162.9 231.314 162.9 230.099C162.9 228.884 161.915 227.899 160.7 227.899C159.485 227.899 158.5 228.884 158.5 230.099C158.5 231.314 159.485 232.299 160.7 232.299Z" stroke="#6CA0FF" stroke-miterlimit="10" stroke-linecap="round" stroke-linejoin="round"/>
<path d="M93.5992 80.2C93.5992 81.4 92.5992 82.4 91.3992 82.4C90.1992 82.4 89.1992 81.4 89.1992 80.2C89.1992 79 90.1992 78 91.3992 78C92.5992 78 93.5992 78.9 93.5992 80.2Z" stroke="#6CA0FF" stroke-miterlimit="10" stroke-linecap="round" stroke-linejoin="round"/>
<path d="M98.3984 216.199H123.298" stroke="#6CA0FF" stroke-miterlimit="10" stroke-linecap="round" stroke-linejoin="round"/>
<path d="M130.898 216.199H142.098" stroke="#6CA0FF" stroke-miterlimit="10" stroke-linecap="round" stroke-linejoin="round"/>
<path d="M464.898 129.899H489.798" stroke="#6CA0FF" stroke-miterlimit="10" stroke-linecap="round" stroke-linejoin="round"/>
<path d="M497.398 129.899H508.498" stroke="#6CA0FF" stroke-miterlimit="10" stroke-linecap="round" stroke-linejoin="round"/>
<path d="M354.398 8.69922H379.398" stroke="#6CA0FF" stroke-miterlimit="10" stroke-linecap="round" stroke-linejoin="round"/>
<path d="M387 8.69922H398.1" stroke="#6CA0FF" stroke-miterlimit="10" stroke-linecap="round" stroke-linejoin="round"/>
<path d="M227.302 21.5H210.402" stroke="#6CA0FF" stroke-miterlimit="10" stroke-linecap="round" stroke-linejoin="round"/>
<path d="M204.802 21.5H195.602" stroke="#6CA0FF" stroke-miterlimit="10" stroke-linecap="round" stroke-linejoin="round"/>
<path d="M160.201 120.699H139.301" stroke="#6CA0FF" stroke-miterlimit="10" stroke-linecap="round" stroke-linejoin="round"/>
<path d="M135.702 120.699H128.602" stroke="#6CA0FF" stroke-miterlimit="10" stroke-linecap="round" stroke-linejoin="round"/>
<path d="M150.301 129.899H168.501" stroke="#6CA0FF" stroke-miterlimit="10" stroke-linecap="round" stroke-linejoin="round"/>
<path d="M503.398 123.3H521.598" stroke="#6CA0FF" stroke-miterlimit="10" stroke-linecap="round" stroke-linejoin="round"/>
<path d="M336.898 26.5996H355.098" stroke="#6CA0FF" stroke-miterlimit="10" stroke-linecap="round" stroke-linejoin="round"/>
<path d="M532.5 239.8H550.7" stroke="#6CA0FF" stroke-miterlimit="10" stroke-linecap="round" stroke-linejoin="round"/>
<path d="M255.198 291.499C263.096 291.499 269.498 285.097 269.498 277.199C269.498 269.302 263.096 262.899 255.198 262.899C247.301 262.899 240.898 269.302 240.898 277.199C240.898 285.097 247.301 291.499 255.198 291.499Z" fill="#D2E4FF"/>
<path d="M270.898 282.699C271.198 281.799 270.898 280.699 270.098 280.099C269.198 279.399 268.098 279.499 267.298 280.099C267.298 279.099 266.698 278.099 265.698 277.799C264.798 277.499 263.698 277.899 263.098 278.599C262.598 279.199 262.498 279.999 262.798 280.699L264.198 285.199C264.298 285.499 264.598 285.699 264.998 285.599L269.498 284.199C270.098 283.999 270.598 283.499 270.898 282.699Z" fill="#EA3974"/>
<path d="M250.198 279.399C250.916 279.399 251.498 278.414 251.498 277.199C251.498 275.984 250.916 274.999 250.198 274.999C249.48 274.999 248.898 275.984 248.898 277.199C248.898 278.414 249.48 279.399 250.198 279.399Z" fill="#6CA0FF"/>
<path d="M246.797 273.699C246.697 273.699 246.697 273.699 246.597 273.699C246.297 273.599 246.197 273.299 246.397 272.999C246.497 272.899 247.897 269.899 251.597 269.899C251.897 269.899 252.097 270.099 252.097 270.399C252.097 270.699 251.897 270.899 251.597 270.899C248.497 270.899 247.297 273.399 247.297 273.399C247.097 273.599 246.997 273.699 246.797 273.699Z" fill="#6CA0FF"/>
<path d="M264.298 274.6C264.198 274.6 263.998 274.5 263.898 274.4C263.798 274.3 261.998 272.3 258.998 273.1C258.698 273.2 258.498 272.999 258.398 272.799C258.298 272.499 258.498 272.3 258.698 272.2C262.298 271.2 264.498 273.699 264.598 273.799C264.798 273.999 264.798 274.3 264.498 274.5C264.498 274.5 264.398 274.6 264.298 274.6Z" fill="#6CA0FF"/>
<path d="M259.099 277.7C258.999 277.7 258.899 277.7 258.799 277.6C258.599 277.4 258.499 277.1 258.699 276.9C260.199 274.9 262.399 275.5 263.299 276.1C263.499 276.2 263.599 276.6 263.399 276.8C263.299 277 262.899 277.1 262.699 276.9C262.499 276.8 260.699 275.7 259.399 277.4C259.399 277.7 259.299 277.7 259.099 277.7Z" fill="#6CA0FF"/>
<path d="M255.698 287C255.598 287 255.398 286.9 255.298 286.8C255.098 286.6 255.198 286.3 255.398 286.1L256.898 284.9L255.998 284.5C255.798 284.4 255.698 284.3 255.698 284.1C255.698 283.9 255.698 283.8 255.798 283.7L256.698 282.8L254.998 282.1C254.698 282 254.598 281.7 254.698 281.5C254.798 281.2 255.098 281.1 255.298 281.2L257.798 282.1C257.998 282.2 258.098 282.3 258.098 282.5C258.098 282.7 258.098 282.8 257.998 283L257.098 283.9L258.098 284.3C258.298 284.4 258.398 284.5 258.398 284.7C258.398 284.9 258.398 285 258.198 285.2L256.098 286.9C255.998 287 255.898 287 255.698 287Z" fill="#6CA0FF"/>
<path d="M345.598 185.299C355.65 185.299 363.798 177.151 363.798 167.099C363.798 157.048 355.65 148.899 345.598 148.899C335.547 148.899 327.398 157.048 327.398 167.099C327.398 177.151 335.547 185.299 345.598 185.299Z" fill="#D2E4FF"/>
<path d="M345.597 177.499C342.397 177.499 341.097 175.099 340.797 173.799C340.697 173.399 340.997 172.999 341.397 172.899C341.797 172.799 342.197 173.099 342.297 173.499C342.297 173.599 342.897 175.999 345.597 175.999C348.397 175.999 348.897 173.599 348.897 173.499C348.997 173.099 349.397 172.899 349.797 172.899C350.197 172.999 350.397 173.399 350.397 173.799C350.097 175.099 348.697 177.499 345.597 177.499Z" fill="#6CA0FF"/>
<path d="M334.599 162.999C334.399 162.999 334.199 162.899 333.999 162.699C333.799 162.399 333.799 161.899 334.199 161.699C335.799 160.599 339.599 159.099 342.899 161.699C343.199 161.899 343.299 162.399 342.999 162.699C342.699 162.999 342.299 163.099 341.999 162.799C338.699 160.199 335.199 162.799 335.099 162.899C334.899 162.999 334.799 162.999 334.599 162.999Z" fill="#6CA0FF"/>
<path d="M341.199 167.799C340.999 167.799 340.799 167.699 340.599 167.499C338.999 165.399 336.799 166.699 336.499 166.899C336.199 167.099 335.699 166.999 335.499 166.699C335.299 166.399 335.399 165.899 335.699 165.699C336.899 164.899 339.799 164.099 341.699 166.699C341.899 166.999 341.899 167.499 341.499 167.699C341.499 167.799 341.399 167.799 341.199 167.799Z" fill="#6CA0FF"/>
<path d="M356.498 162.999C356.298 162.999 356.198 162.999 356.098 162.899C355.898 162.799 352.398 160.299 349.198 162.799C348.898 162.999 348.398 162.999 348.198 162.699C347.998 162.399 347.998 161.899 348.298 161.699C351.598 159.099 355.398 160.599 356.998 161.699C357.298 161.899 357.398 162.399 357.198 162.699C356.898 162.899 356.698 162.999 356.498 162.999Z" fill="#6CA0FF"/>
<path d="M349.899 167.799C349.699 167.799 349.599 167.799 349.499 167.699C349.199 167.499 349.099 166.999 349.299 166.699C351.199 164.099 354.099 164.899 355.299 165.699C355.599 165.899 355.699 166.399 355.499 166.699C355.299 166.999 354.799 167.099 354.499 166.899C354.199 166.699 351.999 165.399 350.399 167.499C350.299 167.699 350.099 167.799 349.899 167.799Z" fill="#6CA0FF"/>
<path d="M239.598 49.7998H156.298C141.998 49.7998 130.398 61.3998 130.398 75.6998C130.398 89.9998 141.998 101.6 156.298 101.6H163.698L168.398 107.6L173.098 101.6H239.698C253.998 101.6 265.598 89.9998 265.598 75.6998C265.498 61.3998 253.898 49.7998 239.598 49.7998Z" fill="white" stroke="#6CA0FF" stroke-miterlimit="10" stroke-linecap="round" stroke-linejoin="round"/>
<path d="M154.699 91.7002C163.536 91.7002 170.699 84.5367 170.699 75.7002C170.699 66.8636 163.536 59.7002 154.699 59.7002C145.863 59.7002 138.699 66.8636 138.699 75.7002C138.699 84.5367 145.863 91.7002 154.699 91.7002Z" fill="#E6EFFC"/>
<path d="M166.619 78.5255C168.18 71.9144 164.086 65.2896 157.475 63.7286C150.864 62.1675 144.239 66.2614 142.678 72.8724C141.117 79.4835 145.211 86.1083 151.822 87.6693C158.433 89.2304 165.058 85.1365 166.619 78.5255Z" fill="#FF5A89"/>
<path d="M149.698 67.8992C152.198 65.5992 157.098 64.9992 158.998 67.7992C159.898 68.9992 159.998 70.7992 161.198 71.6992C161.598 71.9992 162.098 72.2992 162.298 72.6992C162.798 73.3992 162.498 74.3992 162.198 75.1992C161.898 75.9992 161.498 76.7992 161.698 77.6992C161.898 78.2992 162.298 78.7992 162.298 79.3992C162.198 80.1992 161.198 80.4992 160.398 80.4992C159.798 80.4992 159.098 80.5992 158.498 80.4992C157.498 80.3992 156.498 80.1992 155.598 80.1992C154.398 80.2992 153.298 80.6992 152.098 80.9992C150.798 81.2992 149.498 81.1992 148.198 80.9992C147.398 80.7992 146.598 80.3992 146.498 79.5992C146.398 79.0992 146.798 78.5992 146.798 77.9992C146.798 77.0992 145.898 76.3992 145.898 75.3992C145.898 74.2992 147.098 73.6992 147.598 72.7992C148.098 71.9992 147.998 70.8992 148.198 69.9992C148.598 69.2992 149.098 68.4992 149.698 67.8992Z" fill="#00276F"/>
<path d="M141.497 86.7986C145.597 82.0986 151.597 82.1986 151.597 82.1986L157.597 82.0986C157.597 82.0986 162.897 82.7986 166.097 85.3986C175.697 93.2986 174.097 106.999 174.097 106.999C174.097 106.999 135.197 98.5986 135.197 98.2986C135.097 98.1986 138.697 89.8986 141.497 86.7986Z" fill="#0070E4"/>
<path d="M158.196 70.7991C159.396 75.6991 157.196 79.2991 155.296 79.5991C152.596 79.9991 151.096 78.6991 150.296 76.2991C149.896 75.1991 149.396 71.1991 150.596 69.9991C152.496 68.0991 157.196 66.6991 158.196 70.7991Z" fill="#F886BC"/>
<path d="M151.898 77.3994L151.598 81.8994C151.598 81.8994 150.998 84.2994 154.698 84.2994C158.398 84.2994 157.498 81.8994 157.498 81.8994L156.898 76.8994" fill="#F886BC"/>
<path d="M150.597 74.4992C150.397 74.1992 149.897 74.1992 149.597 74.3992C149.297 74.5992 149.297 74.8991 149.297 75.1991C149.297 75.4991 149.297 75.6992 149.397 75.9992C149.497 76.1992 149.697 76.4992 149.997 76.5992C150.297 76.6992 150.697 76.6992 150.897 76.4992" fill="#F886BC"/>
<path d="M158.097 74.4992C158.297 74.1992 158.797 74.1992 159.097 74.3992C159.397 74.5992 159.397 74.8991 159.397 75.1991C159.397 75.4991 159.397 75.6992 159.297 75.9992C159.197 76.1992 158.997 76.4992 158.697 76.5992C158.397 76.6992 157.997 76.6992 157.797 76.4992" fill="#F886BC"/>
<path d="M149.098 73.8992C151.398 73.3992 153.498 72.0992 154.898 70.1992C156.098 71.6992 157.698 72.8992 159.498 73.5992C159.598 72.3992 159.798 71.0992 159.298 69.9992C158.898 69.1992 158.298 68.6992 157.698 68.0992C157.198 67.5992 156.598 67.1992 155.898 66.8992C154.598 66.3992 153.098 66.7992 151.998 67.5992C150.398 68.6992 149.298 70.4992 149.098 72.3992" fill="#00276F"/>
<path d="M155.596 66.5996C155.496 66.6996 155.296 66.5996 155.196 66.3996C154.796 65.9996 154.396 65.3996 154.596 64.8996C154.696 64.6996 154.896 64.4996 155.096 64.2996C155.596 63.9996 156.296 63.7996 156.796 64.0996C157.396 64.2996 157.796 64.9996 157.696 65.5996C157.596 66.1996 156.996 66.6996 156.396 66.5996" fill="#00276F"/>
<path d="M151.996 78.9992C151.996 78.9992 152.796 80.0992 154.196 80.1992C155.996 80.2992 156.796 78.6992 156.796 78.6992" stroke="#D34F9B" stroke-width="0.5" stroke-miterlimit="10" stroke-linecap="round" stroke-linejoin="round"/>
<path d="M154.698 76.8994C154.698 76.8994 153.898 77.0994 153.898 76.5994C153.898 76.0994 154.198 73.8994 154.198 73.8994" stroke="#D34F9B" stroke-width="0.5" stroke-miterlimit="10" stroke-linecap="round" stroke-linejoin="round"/>
<path d="M156.098 74.3996C156.098 74.4996 156.098 74.6996 156.098 74.7996C156.098 75.3996 156.998 75.2996 156.898 74.6996C156.898 74.5996 156.898 74.3996 156.798 74.2996C156.698 73.8996 156.098 73.9996 156.098 74.3996Z" fill="#00276F"/>
<path d="M155.797 73.2998C155.797 73.2998 156.397 72.7998 157.397 73.3998" stroke="#00276F" stroke-width="0.5" stroke-miterlimit="10" stroke-linecap="round" stroke-linejoin="round"/>
<path d="M151.796 74.2996C151.796 74.3996 151.696 74.5996 151.696 74.6996C151.596 75.2996 152.396 75.3996 152.496 74.7996C152.496 74.6996 152.496 74.4996 152.496 74.3996C152.496 73.9996 151.896 73.8996 151.796 74.2996Z" fill="#00276F"/>
<path d="M152.799 73.2998C152.799 73.2998 152.199 72.7998 151.199 73.3998" stroke="#00276F" stroke-width="0.5" stroke-miterlimit="10" stroke-linecap="round" stroke-linejoin="round"/>
<path d="M153.098 77.5996H155.798C155.798 77.5996 155.398 78.9996 154.498 78.9996C153.498 78.9996 153.098 77.5996 153.098 77.5996Z" fill="white"/>
<path d="M176.598 62.3994H248.898" stroke="#E6EFFC" stroke-width="3" stroke-miterlimit="10" stroke-linecap="round" stroke-linejoin="round"/>
<path d="M176.598 71.2998H248.898" stroke="#E6EFFC" stroke-width="3" stroke-miterlimit="10" stroke-linecap="round" stroke-linejoin="round"/>
<path d="M234.496 80.1992H248.896" stroke="#E6EFFC" stroke-width="3" stroke-miterlimit="10" stroke-linecap="round" stroke-linejoin="round"/>
<path d="M176.598 80.1992H226.298" stroke="#E6EFFC" stroke-width="3" stroke-miterlimit="10" stroke-linecap="round" stroke-linejoin="round"/>
<path d="M176.598 88.999H214.898" stroke="#E6EFFC" stroke-width="3" stroke-miterlimit="10" stroke-linecap="round" stroke-linejoin="round"/>
<path d="M302.301 85H385.601C399.901 85 411.501 96.6 411.501 110.9C411.501 125.2 399.901 136.8 385.601 136.8H382.101L377.401 142.8L372.701 136.8H302.201C287.901 136.8 276.301 125.2 276.301 110.9C276.401 96.6 288.001 85 302.301 85Z" fill="white" stroke="#6CA0FF" stroke-miterlimit="10" stroke-linecap="round" stroke-linejoin="round"/>
<path d="M387.199 126.9C396.036 126.9 403.199 119.737 403.199 110.9C403.199 102.064 396.036 94.9004 387.199 94.9004C378.363 94.9004 371.199 102.064 371.199 110.9C371.199 119.737 378.363 126.9 387.199 126.9Z" fill="#E6EFFC"/>
<path d="M390.057 122.872C396.666 121.303 400.753 114.672 399.183 108.063C397.614 101.453 390.984 97.3668 384.374 98.936C377.764 100.505 373.678 107.136 375.248 113.745C376.817 120.355 383.447 124.441 390.057 122.872Z" fill="#FF5A89"/>
<path d="M400.501 122C396.401 117.3 390.401 117.4 390.401 117.4L384.401 117.3C384.401 117.3 379.101 118 375.901 120.6C366.301 128.5 367.901 142.2 367.901 142.2C367.901 142.2 406.801 133.8 406.801 133.5C406.801 133.4 403.201 125.1 400.501 122Z" fill="#0070E4"/>
<path d="M383.303 106C382.103 110.9 384.303 114.5 386.203 114.8C388.903 115.2 390.403 113.9 391.203 111.5C391.603 110.4 392.103 106.4 390.903 105.2C389.003 103.3 384.303 101.9 383.303 106Z" fill="#F886BC"/>
<path d="M390.501 112.5L390.601 117C390.601 117 391.301 119.4 387.101 119.4C382.901 119.4 383.901 117 383.901 117L384.001 112" fill="#F886BC"/>
<path d="M390.999 109.7C391.199 109.4 391.699 109.4 391.999 109.6C392.299 109.8 392.299 110.1 392.299 110.4C392.299 110.7 392.299 110.9 392.199 111.2C392.099 111.4 391.899 111.7 391.599 111.8C391.299 111.9 390.899 111.9 390.699 111.7" fill="#F886BC"/>
<path d="M390.302 114.2C390.302 114.2 389.302 115.3 387.602 115.4C385.302 115.5 384.402 113.9 384.402 113.9" stroke="#D34F9B" stroke-width="0.5" stroke-miterlimit="10" stroke-linecap="round" stroke-linejoin="round"/>
<path d="M386.902 111.2C386.902 111.2 387.702 111.4 387.702 110.9C387.702 110.4 387.402 108.5 387.402 108.5" stroke="#D34F9B" stroke-width="0.5" stroke-miterlimit="10" stroke-linecap="round" stroke-linejoin="round"/>
<path d="M384.8 108.9C384.8 109 384.7 109.2 384.7 109.3C384.6 109.9 385.4 110 385.5 109.4C385.5 109.3 385.5 109.1 385.5 109C385.4 108.6 384.9 108.5 384.8 108.9Z" fill="#00276F"/>
<path d="M389 109C389 109.1 389 109.3 389 109.4C389 110 389.9 109.9 389.8 109.3C389.8 109.2 389.8 109 389.7 108.9C389.6 108.5 389.1 108.6 389 109Z" fill="#00276F"/>
<path d="M389.201 112.601H385.801C385.801 112.601 386.001 114.001 387.501 114.001C389.001 113.901 389.201 112.601 389.201 112.601Z" fill="white"/>
<path d="M383.001 110.2C383.801 109.1 384.501 107.9 384.401 106.3C385.901 106.9 387.801 106.9 389.301 106.6C390.301 106.4 391.401 106.1 392.201 105.4C393.001 104.7 393.301 102.5 392.601 101.8C391.801 101 390.601 101.5 389.701 102C389.301 101.2 388.601 100.7 387.801 100.6C387.001 100.5 386.201 100.9 385.701 101.6C385.601 101.8 385.401 102 385.201 102.1C385.001 102.2 384.701 102.1 384.401 102C383.001 101.7 381.701 103.9 381.401 105.5C381.201 107.1 381.701 108.7 382.201 110.2C382.301 110.4 382.501 110.7 382.701 110.5" fill="#00276F"/>
<path d="M391.601 104.5C392.801 106.1 393.001 108.5 391.901 110.3C391.901 110.4 391.801 110.4 391.701 110.5C391.601 110.5 391.501 110.5 391.401 110.4C391.101 110.1 390.901 109.7 390.901 109.3C390.801 108.9 390.901 108.5 390.901 108C390.901 107 390.501 106 389.801 105.2" fill="#00276F"/>
<path d="M383.499 109.7C383.299 109.4 382.799 109.4 382.499 109.6C382.199 109.8 382.199 110.1 382.199 110.4C382.199 110.7 382.199 110.9 382.299 111.2C382.399 111.4 382.599 111.7 382.899 111.8C383.199 111.9 383.599 111.9 383.799 111.7" fill="#F886BC"/>
<path d="M365.3 97.5996H293" stroke="#E6EFFC" stroke-width="3" stroke-miterlimit="10" stroke-linecap="round" stroke-linejoin="round"/>
<path d="M346 106.5H293" stroke="#E6EFFC" stroke-width="3" stroke-miterlimit="10" stroke-linecap="round" stroke-linejoin="round"/>
<path d="M365.298 106.5H352.898" stroke="#E6EFFC" stroke-width="3" stroke-miterlimit="10" stroke-linecap="round" stroke-linejoin="round"/>
<path d="M314.9 115.399H293" stroke="#E6EFFC" stroke-width="3" stroke-miterlimit="10" stroke-linecap="round" stroke-linejoin="round"/>
<path d="M365.302 115.399H323.102" stroke="#E6EFFC" stroke-width="3" stroke-miterlimit="10" stroke-linecap="round" stroke-linejoin="round"/>
<path d="M338.7 124.199H293" stroke="#E6EFFC" stroke-width="3" stroke-miterlimit="10" stroke-linecap="round" stroke-linejoin="round"/>
</g>
<defs>
<linearGradient id="paint0_linear_2237_93933" x1="451.201" y1="52.0986" x2="158.504" y2="344.796" gradientUnits="userSpaceOnUse">
<stop offset="0.2704" stop-color="white" stop-opacity="0.4"/>
<stop offset="1" stop-color="white" stop-opacity="0.2"/>
</linearGradient>
<linearGradient id="paint1_linear_2237_93933" x1="488.441" y1="58.212" x2="207.97" y2="338.683" gradientUnits="userSpaceOnUse">
<stop offset="0.2704" stop-color="white" stop-opacity="0.4"/>
<stop offset="1" stop-color="white" stop-opacity="0.2"/>
</linearGradient>
<linearGradient id="paint2_linear_2237_93933" x1="492.614" y1="152.198" x2="479.296" y2="166.367" gradientUnits="userSpaceOnUse">
<stop stop-color="white" stop-opacity="0.6"/>
<stop offset="0.8878" stop-color="white" stop-opacity="0.1"/>
</linearGradient>
<linearGradient id="paint3_linear_2237_93933" x1="492.034" y1="150.373" x2="478.74" y2="164.517" gradientUnits="userSpaceOnUse">
<stop stop-color="white" stop-opacity="0.6"/>
<stop offset="0.8878" stop-color="white" stop-opacity="0.1"/>
</linearGradient>
<clipPath id="clip0_2237_93933">
<rect width="620.8" height="400.3" fill="white"/>
</clipPath>
</defs>
</svg>
