<svg width="200" height="200" viewBox="0 0 200 200" fill="none" xmlns="http://www.w3.org/2000/svg">
<path d="M99.9927 200C44.8601 200 0 155.142 0 99.9927C0 44.8431 44.8601 0 99.9927 0C155.125 0 199.985 44.8601 199.985 99.9927C199.985 155.125 155.142 200 99.9927 200ZM99.9927 1.5194C45.6967 1.5194 1.5194 45.6967 1.5194 99.9927C1.5194 154.289 45.6967 198.483 99.9927 198.483C154.289 198.483 198.483 154.303 198.483 99.9927C198.483 45.682 154.303 1.5194 99.9927 1.5194Z" fill="#D4AF34"/>
<path d="M99.9925 190.822C49.9133 190.822 9.16992 150.079 9.16992 99.9999C9.16992 49.9206 49.9206 9.17969 99.9925 9.17969C150.064 9.17969 190.822 49.9206 190.822 99.9926C190.822 150.064 150.079 190.822 99.9925 190.822ZM99.9925 10.6967C50.7571 10.6967 10.6966 50.7596 10.6966 99.9926C10.6966 149.226 50.7571 189.303 99.9925 189.303C149.228 189.303 189.303 149.243 189.303 99.9926C189.303 50.7425 149.243 10.6967 99.9925 10.6967Z" fill="#D4AF34"/>
<path d="M63.3713 50.1066C59.9614 50.1036 56.588 50.8087 53.4647 52.1772L59.9081 58.6206C62.3426 58.1005 64.8628 58.1329 67.283 58.7156C69.7033 59.2983 71.9621 60.4164 73.8931 61.9875C75.8241 63.5587 77.3782 65.5429 78.4409 67.7941C79.5036 70.0453 80.0479 72.5062 80.0337 74.9956C80.0195 77.485 79.4472 79.9395 78.3589 82.1785C77.2706 84.4174 75.694 86.3838 73.7452 87.9328C71.7964 89.4819 69.525 90.5741 67.0983 91.1292C64.6715 91.6843 62.1512 91.688 59.7228 91.1402L53.3086 97.5543C56.6829 99.0529 60.3492 99.7789 64.04 99.6793C67.7307 99.5797 71.3526 98.6569 74.6411 96.9785C77.9296 95.3001 80.8017 92.9083 83.0476 89.9779C85.2935 87.0475 86.8566 83.6524 87.6225 80.0407C88.3885 76.4289 88.3381 72.6917 87.475 69.1019C86.6119 65.5122 84.9578 62.1605 82.6337 59.2917C80.3095 56.423 77.374 54.1095 74.0414 52.5204C70.7088 50.9313 67.0633 50.1066 63.3713 50.1066ZM140.078 91.1402C137.651 91.6842 135.134 91.6775 132.71 91.1206C130.286 90.5637 128.018 89.4707 126.073 87.922C124.127 86.3732 122.553 84.4082 121.466 82.1712C120.38 79.9342 119.809 77.4822 119.795 74.9955C119.78 72.5087 120.324 70.0503 121.385 67.8011C122.445 65.5519 123.997 63.569 125.925 61.9982C127.853 60.4274 130.108 59.3087 132.525 58.7242C134.942 58.1396 137.46 58.1043 139.893 58.6206L146.331 52.1772C142.551 50.5266 138.418 49.8451 134.308 50.1946C130.198 50.5441 126.24 51.9135 122.793 54.1786C119.345 56.4438 116.518 59.5332 114.566 63.167C112.614 66.8008 111.599 70.8643 111.613 74.9892C111.628 79.1141 112.672 83.1702 114.649 86.7901C116.627 90.41 119.477 93.4792 122.94 95.7199C126.403 97.9606 130.371 99.3018 134.484 99.6221C138.596 99.9424 142.724 99.2317 146.492 97.5543L140.078 91.1402Z" fill="#006838"/>
<path d="M116.55 72.9585C116.756 71.212 117.22 69.5057 117.927 67.8955H83.7227C84.43 69.5057 84.8944 71.212 85.1006 72.9585H116.55Z" fill="#006838"/>
<path d="M116.504 76.4629H85.1476C84.9849 78.2034 84.5632 79.9099 83.8965 81.5259H117.76C117.091 79.9102 116.668 78.2037 116.504 76.4629Z" fill="#006838"/>
<path d="M85.4668 90.0914H114.333C113.241 88.5067 112.322 86.8093 111.592 85.0283H88.2056C87.4775 86.8096 86.5593 88.5072 85.4668 90.0914Z" fill="#FFEB89"/>
<path d="M117.211 93.5928H82.5798C80.6026 95.6272 78.3159 97.336 75.8047 98.6558H123.987C121.476 97.3348 119.19 95.6261 117.211 93.5928Z" fill="#FFEB89"/>
<path d="M151.448 102.578H48.2388L38.0566 112.602H161.521L151.448 102.578Z" fill="#FFEB89"/>
<path d="M36.516 129.703L41.1498 137.578H35.8039L33.387 133.051H33.2016L30.8067 137.578H25.7314L30.1555 129.703L25.707 121.942H31.3164L33.4723 126.676H33.6674L35.816 121.942H41.1693L36.516 129.703Z" fill="#006838"/>
<path d="M46.6307 131.493C46.6307 133.222 47.5233 133.898 48.7379 133.898C49.9524 133.898 50.8475 133.188 50.8475 131.493V121.942H55.6617V132.186C55.6617 135.634 53.0253 137.858 48.7379 137.858C44.4504 137.858 41.8164 135.634 41.8164 132.186V121.942H46.6307V131.493Z" fill="#006838"/>
<path d="M56.7891 137.577L61.5351 121.942H67.6322L72.3318 137.587H67.1956L66.5201 134.624H62.2448L61.5472 137.582L56.7891 137.577ZM62.9228 117.762H66.3371L69.1223 120.662H65.8664L64.7202 119.413H64.4568L63.2203 120.662H59.9766L62.9228 117.762ZM64.2983 125.91L63.0374 131.239H65.7518L64.5324 125.91H64.2983Z" fill="#006838"/>
<path d="M73.6309 137.578V121.942H77.2403L82.5692 129.503H82.7521V121.942H87.1665V137.588H83.5911L78.2256 129.886H78.0427V137.588L73.6309 137.578Z" fill="#006838"/>
<path d="M98.5725 130.496C98.5725 132.742 99.409 133.944 100.853 133.944C102.297 133.944 103.006 132.798 103.006 131.308H107.552V132.008C107.552 135.549 104.745 137.841 100.802 137.841C96.1678 137.841 93.6387 134.929 93.6387 130.461V129.052C93.6387 124.569 96.1726 121.682 100.802 121.682C104.745 121.682 107.552 123.962 107.552 127.535V128.21H103.006C103.006 126.72 102.275 125.586 100.853 125.586C99.4309 125.586 98.5725 126.789 98.5725 129.047V130.496Z" fill="#006838"/>
<path d="M109.328 132.134V121.942H114.138V131.454C114.138 133.185 115.03 133.861 116.245 133.861C117.459 133.861 118.354 133.151 118.354 131.454V121.942H123.178C123.844 121.942 124.108 121.669 124.108 120.979V119.157H127.58V121.725C127.58 123.615 126.361 125.176 124.315 125.176H123.169V132.144C123.169 135.593 120.532 137.817 116.245 137.817C111.957 137.817 109.328 135.583 109.328 132.134Z" fill="#006838"/>
<path d="M134.136 137.841C129.356 137.841 126.744 134.941 126.744 130.551V129.015C126.744 124.569 129.356 121.681 134.136 121.681C136.073 121.681 137.436 122.233 138.973 122.233C140.358 122.233 140.472 121.623 140.472 120.938V119.113H143.945V121.681C143.945 123.571 142.726 125.13 140.68 125.13H140.658C141.258 126.335 141.556 127.669 141.526 129.015V130.551C141.526 134.941 138.936 137.841 134.136 137.841ZM131.671 130.61C131.671 132.866 132.6 134.059 134.136 134.059C135.673 134.059 136.612 132.866 136.612 130.61V128.947C136.612 126.701 135.661 125.498 134.136 125.498C132.612 125.498 131.671 126.701 131.671 128.947V130.61Z" fill="#006838"/>
<path d="M144.189 137.578V121.942H147.794L153.125 129.503H153.308V121.942H157.72V137.588H154.15L148.784 129.886H148.599V137.588L144.189 137.578Z" fill="#006838"/>
<path d="M169.227 127.332C169.134 126.415 168.4 125.532 167.015 125.532C165.41 125.532 164.576 126.725 164.576 128.89V130.539C164.576 132.293 165.025 133.99 167.132 133.99C168.646 133.99 169.356 133.014 169.356 132.1V131.915H167.405V128.729H173.858V131.656C173.858 134.729 171.978 137.834 166.993 137.834C161.72 137.834 159.703 134.383 159.703 130.556V128.825C159.703 124.722 162.225 121.674 167.039 121.674C171.727 121.674 173.868 124.586 173.868 127.325L169.227 127.332Z" fill="#006838"/>
</svg>
