<svg width="499" height="374" viewBox="0 0 499 374" fill="none" xmlns="http://www.w3.org/2000/svg">
<g clip-path="url(#clip0_297_16247)">
<path d="M300.541 250.954H209.618C209.618 250.954 213.42 306.549 195.401 306.549C201.187 306.549 309.054 306.549 314.84 306.549C296.738 306.549 300.541 250.954 300.541 250.954Z" fill="#FFDEE1"/>
<path opacity="0.55" d="M208.543 284.343L300.21 266.498C300.045 257.695 300.541 250.875 300.541 250.875H209.618C209.618 250.954 210.775 268.877 208.543 284.343Z" fill="#FF796D"/>
<path d="M422.294 267.688H87.7816C79.3506 267.688 72.5728 261.185 72.5728 253.095V52.5244C72.5728 44.4349 79.3506 37.9316 87.7816 37.9316H422.294C430.725 37.9316 437.503 44.4349 437.503 52.5244V253.095C437.586 261.185 430.725 267.688 422.294 267.688Z" fill="#FFDEE1"/>
<path d="M415.103 259.519H95.0555C88.3603 259.519 82.8223 254.285 82.8223 247.781V57.7586C82.8223 51.3347 88.2776 46.021 95.0555 46.021H415.103C421.798 46.021 427.336 51.2553 427.336 57.7586V247.861C427.336 254.285 421.881 259.519 415.103 259.519Z" fill="white" stroke="#FF796D" stroke-width="2" stroke-miterlimit="10"/>
<path d="M82.8223 72.9858H427.336" stroke="#FF796D" stroke-width="2" stroke-miterlimit="10"/>
<path d="M385.925 64.5792H148.617C145.394 64.5792 142.749 62.0413 142.749 58.9483C142.749 55.8552 145.394 53.3174 148.617 53.3174H385.925C389.149 53.3174 391.794 55.8552 391.794 58.9483C391.794 62.0413 389.149 64.5792 385.925 64.5792Z" fill="#FFEEF0"/>
<path d="M99.7668 59.2657C99.7668 60.9312 98.3616 62.2794 96.6258 62.2794C94.89 62.2794 93.4849 60.9312 93.4849 59.2657C93.4849 57.6002 94.89 56.252 96.6258 56.252C98.3616 56.252 99.7668 57.6002 99.7668 59.2657Z" stroke="#333538" stroke-width="1.5" stroke-miterlimit="10"/>
<path d="M114.397 59.2657C114.397 60.9312 112.992 62.2794 111.256 62.2794C109.52 62.2794 108.115 60.9312 108.115 59.2657C108.115 57.6002 109.52 56.252 111.256 56.252C112.992 56.252 114.397 57.6002 114.397 59.2657Z" stroke="#333538" stroke-width="1.5" stroke-miterlimit="10"/>
<path d="M129.027 59.2657C129.027 60.9312 127.622 62.2794 125.886 62.2794C124.151 62.2794 122.745 60.9312 122.745 59.2657C122.745 57.6002 124.151 56.252 125.886 56.252C127.622 56.252 129.027 57.6002 129.027 59.2657Z" stroke="#333538" stroke-width="1.5" stroke-miterlimit="10"/>
<path d="M351.209 150.312H158.949C151.675 150.312 145.724 144.681 145.724 137.622C145.724 130.643 151.593 124.933 158.949 124.933H351.209C358.483 124.933 364.434 130.564 364.434 137.622C364.434 144.681 358.483 150.312 351.209 150.312Z" stroke="#333538" stroke-width="1.5" stroke-miterlimit="10"/>
<path d="M351.209 125.012H329.057V150.312H351.209C358.483 150.312 364.434 144.681 364.434 137.622C364.434 130.722 358.483 125.012 351.209 125.012Z" fill="#333538"/>
<path d="M355.094 143.808L350.713 139.605C351.623 138.495 352.119 137.067 352.119 135.64C352.119 131.992 349.06 129.057 345.258 129.057C341.456 129.057 338.397 131.992 338.397 135.64C338.397 139.288 341.456 142.222 345.258 142.222C346.333 142.222 347.407 141.984 348.399 141.509L352.945 145.871C353.193 146.108 353.606 146.267 354.02 146.267C354.433 146.267 354.846 146.108 355.094 145.871C355.342 145.633 355.508 145.236 355.508 144.84C355.508 144.443 355.342 144.046 355.094 143.808ZM350.135 135.64C350.135 138.257 347.903 140.398 345.175 140.398C342.448 140.398 340.216 138.257 340.216 135.64C340.216 133.023 342.448 130.881 345.175 130.881C347.903 130.961 350.135 133.102 350.135 135.64Z" fill="white"/>
<path opacity="0.75" d="M214.247 143.174H159.197C156.056 143.174 153.494 140.715 153.494 137.702C153.494 134.688 156.056 132.229 159.197 132.229H214.247C217.388 132.229 219.95 134.688 219.95 137.702C219.95 140.715 217.388 143.174 214.247 143.174Z" fill="#E0EBFC"/>
<path d="M331.041 304.963H179.117V313.052H331.041V304.963Z" fill="#FFDEE1"/>
<path opacity="0.75" d="M229.29 178.307H192.095C188.623 178.307 185.73 175.611 185.73 172.2C185.73 168.87 188.541 166.094 192.095 166.094H229.29C232.762 166.094 235.655 168.79 235.655 172.2C235.572 175.531 232.762 178.307 229.29 178.307Z" fill="#E0EBFC"/>
<path d="M192.508 173.708H228.794" stroke="#333538" stroke-width="1.5" stroke-miterlimit="10"/>
<path opacity="0.75" d="M318.147 178.307H252.021C248.549 178.307 245.656 175.611 245.656 172.201C245.656 168.87 248.467 166.094 252.021 166.094H318.147C321.618 166.094 324.511 168.79 324.511 172.201C324.429 175.531 321.618 178.307 318.147 178.307Z" fill="#E0EBFC"/>
<path d="M259.46 173.708H310.625" stroke="#333538" stroke-width="1.5" stroke-miterlimit="10"/>
<path d="M359.806 83.2168H373.775" stroke="#333538" stroke-width="1.5" stroke-miterlimit="10"/>
<path d="M380.552 83.2168H394.439" stroke="#333538" stroke-width="1.5" stroke-miterlimit="10"/>
<path opacity="0.75" d="M401.382 79.5684H399.481V81.3925H401.382V79.5684Z" fill="#E0EBFC"/>
<path opacity="0.75" d="M403.944 79.5684H402.043V81.3925H403.944V79.5684Z" fill="#E0EBFC"/>
<path opacity="0.75" d="M406.589 79.5684H404.688V81.3925H406.589V79.5684Z" fill="#E0EBFC"/>
<path opacity="0.75" d="M401.382 82.2646H399.481V84.0887H401.382V82.2646Z" fill="#E0EBFC"/>
<path opacity="0.75" d="M403.944 82.2646H402.043V84.0887H403.944V82.2646Z" fill="#E0EBFC"/>
<path opacity="0.75" d="M406.589 82.2646H404.688V84.0887H406.589V82.2646Z" fill="#E0EBFC"/>
<path opacity="0.75" d="M401.382 85.0405H399.481V86.8646H401.382V85.0405Z" fill="#E0EBFC"/>
<path opacity="0.75" d="M403.944 85.0405H402.043V86.8646H403.944V85.0405Z" fill="#E0EBFC"/>
<path opacity="0.75" d="M406.589 85.0405H404.688V86.8646H406.589V85.0405Z" fill="#E0EBFC"/>
<path opacity="0.75" d="M414.359 87.8165C417.007 87.8165 419.153 85.757 419.153 83.2166C419.153 80.6761 417.007 78.6167 414.359 78.6167C411.711 78.6167 409.565 80.6761 409.565 83.2166C409.565 85.757 411.711 87.8165 414.359 87.8165Z" fill="#E0EBFC"/>
<path opacity="0.65" d="M168.042 93.6855H72.5728V128.185H168.042C170.191 128.185 171.926 126.519 171.926 124.457V97.413C171.844 95.351 170.108 93.6855 168.042 93.6855Z" fill="#FFDEE1"/>
<path d="M417.748 54.5072C418.433 54.5072 418.988 53.9746 418.988 53.3176C418.988 52.6605 418.433 52.1279 417.748 52.1279C417.063 52.1279 416.508 52.6605 416.508 53.3176C416.508 53.9746 417.063 54.5072 417.748 54.5072Z" fill="#333538"/>
<path d="M417.748 60.138C418.433 60.138 418.988 59.6054 418.988 58.9484C418.988 58.2914 418.433 57.7588 417.748 57.7588C417.063 57.7588 416.508 58.2914 416.508 58.9484C416.508 59.6054 417.063 60.138 417.748 60.138Z" fill="#333538"/>
<path d="M417.748 65.7689C418.433 65.7689 418.988 65.2363 418.988 64.5793C418.988 63.9223 418.433 63.3896 417.748 63.3896C417.063 63.3896 416.508 63.9223 416.508 64.5793C416.508 65.2363 417.063 65.7689 417.748 65.7689Z" fill="#333538"/>
<path d="M310.625 305.359H232.927" stroke="#FF928D" stroke-width="1.5" stroke-miterlimit="10"/>
<path d="M224.166 305.359H198.79" stroke="#FF928D" stroke-width="1.5" stroke-miterlimit="10"/>
<path opacity="0.65" d="M409.813 246.196H246.4C243.177 246.196 240.531 243.658 240.531 240.565V199.483C240.531 196.39 243.177 193.852 246.4 193.852H409.73C412.954 193.852 415.599 196.39 415.599 199.483V240.565C415.682 243.658 413.037 246.196 409.813 246.196Z" fill="#FFDEE1"/>
<path d="M402.457 241.437H239.044C235.82 241.437 233.175 238.899 233.175 235.806V194.725C233.175 191.632 235.82 189.094 239.044 189.094H402.374C405.598 189.094 408.243 191.632 408.243 194.725V235.806C408.325 238.899 405.68 241.437 402.457 241.437Z" fill="white" stroke="#FF928D" stroke-width="1.5" stroke-miterlimit="10"/>
<path d="M396.753 212.965H294.259C292.523 212.965 291.118 211.617 291.118 209.952C291.118 208.286 292.523 206.938 294.259 206.938H396.753C398.489 206.938 399.894 208.286 399.894 209.952C399.894 211.617 398.489 212.965 396.753 212.965Z" fill="#FFEEF0"/>
<path d="M396.753 223.514H294.259C292.523 223.514 291.118 222.166 291.118 220.5C291.118 218.835 292.523 217.486 294.259 217.486H396.753C398.489 217.486 399.894 218.835 399.894 220.5C399.894 222.166 398.489 223.514 396.753 223.514Z" fill="#FFEEF0"/>
<path d="M396.753 202.418H294.259C292.523 202.418 291.118 201.069 291.118 199.404C291.118 197.738 292.523 196.39 294.259 196.39H396.753C398.489 196.39 399.894 197.738 399.894 199.404C399.894 201.069 398.489 202.418 396.753 202.418Z" fill="#FFEEF0"/>
<path d="M316.907 234.062H294.176C292.44 234.062 291.035 232.713 291.035 231.048C291.035 229.382 292.44 228.034 294.176 228.034H316.907C318.642 228.034 320.048 229.382 320.048 231.048C320.048 232.713 318.642 234.062 316.907 234.062Z" fill="#FFEEF0"/>
<path opacity="0.35" d="M274.586 234.062H244.169C241.689 234.062 239.705 232.158 239.705 229.779V200.594C239.705 198.214 241.689 196.311 244.169 196.311H274.586C277.066 196.311 279.05 198.214 279.05 200.594V229.779C279.05 232.158 277.066 234.062 274.586 234.062Z" fill="#FF796D"/>
<path d="M255.079 203.925L244.251 223.99H265.907L255.079 203.925Z" fill="white"/>
<path d="M266.651 210.507L264.006 215.345L268.718 223.99H273.925L266.651 210.507Z" fill="white"/>
<path d="M272.437 206.78C272.437 207.97 271.445 208.921 270.205 208.921C268.966 208.921 267.974 207.97 267.974 206.78C267.974 205.59 268.966 204.639 270.205 204.639C271.363 204.559 272.437 205.59 272.437 206.78Z" fill="white"/>
<path opacity="0.65" d="M401.465 89.958H284.918C281.777 89.958 279.215 87.4994 279.215 84.4857V45.0694C279.215 42.0557 281.777 39.5972 284.918 39.5972H401.465C404.606 39.5972 407.168 42.0557 407.168 45.0694V84.565C407.168 87.4994 404.606 89.958 401.465 89.958Z" fill="#FFDEE1"/>
<path d="M392.786 84.6445H276.239C273.099 84.6445 270.536 82.1859 270.536 79.1722V39.756C270.536 36.7422 273.099 34.2837 276.239 34.2837H392.786C395.927 34.2837 398.489 36.7422 398.489 39.756V79.1722C398.489 82.1859 395.927 84.6445 392.786 84.6445Z" fill="white" stroke="#FF928D" stroke-width="1.5" stroke-miterlimit="10"/>
<path d="M386.504 57.2834H328.313C326.66 57.2834 325.255 56.0144 325.255 54.349C325.255 52.7628 326.578 51.4146 328.313 51.4146H386.504C388.157 51.4146 389.562 52.6835 389.562 54.349C389.48 56.0144 388.157 57.2834 386.504 57.2834Z" fill="#FFEEF0"/>
<path d="M386.504 67.4347H328.313C326.66 67.4347 325.255 66.1658 325.255 64.5003C325.255 62.9142 326.578 61.5659 328.313 61.5659H386.504C388.157 61.5659 389.562 62.8348 389.562 64.5003C389.48 66.1658 388.157 67.4347 386.504 67.4347Z" fill="#FFEEF0"/>
<path d="M386.504 47.2111H328.313C326.66 47.2111 325.255 45.9422 325.255 44.2767C325.255 42.6905 326.578 41.3423 328.313 41.3423H386.504C388.157 41.3423 389.562 42.6112 389.562 44.2767C389.48 45.8629 388.157 47.2111 386.504 47.2111Z" fill="#FFEEF0"/>
<path d="M350.135 77.5861H328.313C326.66 77.5861 325.255 76.3172 325.255 74.6517C325.255 73.0655 326.578 71.7173 328.313 71.7173H350.135C351.788 71.7173 353.193 72.9862 353.193 74.6517C353.193 76.2379 351.788 77.5861 350.135 77.5861Z" fill="#FFEEF0"/>
<path d="M315.088 58.3933C315.006 57.0451 314.758 55.7762 314.344 54.4279C313.931 53.0797 313.352 51.8901 312.691 50.7004L309.22 52.2866C308.558 51.2556 307.732 50.3039 306.822 49.5108L309.054 46.5764C306.905 44.7523 304.425 43.4834 301.698 42.8489L300.375 46.3385C299.135 46.1005 297.896 45.9419 296.656 46.0212L296.077 42.373C294.672 42.4524 293.349 42.6903 291.944 43.0868C290.539 43.4834 289.299 44.0385 288.059 44.673L289.712 48.0039C288.638 48.6384 287.646 49.4315 286.819 50.3039L283.761 48.1626C281.86 50.2246 280.538 52.6038 279.876 55.221L283.513 56.4899C283.265 57.6796 283.1 58.8692 283.183 60.0588L279.38 60.614C279.463 61.9622 279.711 63.2311 280.124 64.5794C280.538 65.9276 281.116 67.1173 281.777 68.3069L285.249 66.7207C285.91 67.7517 286.737 68.7034 287.646 69.4965L285.414 72.4309C287.563 74.255 290.043 75.5239 292.771 76.1584L294.093 72.6689C295.333 72.9068 296.573 73.0654 297.813 72.9861L298.391 76.6343C299.797 76.555 301.119 76.317 302.524 75.9205C303.929 75.524 305.169 74.9688 306.409 74.3343L304.756 71.0034C305.831 70.3689 306.822 69.5758 307.649 68.7034L310.707 70.8448C312.608 68.7827 313.931 66.4035 314.592 63.7863L310.955 62.5174C311.203 61.3278 311.369 60.1381 311.286 58.9485L315.088 58.3933ZM299.714 67.3552C295.168 68.7034 290.291 66.2449 288.969 61.8036C287.563 57.4416 290.126 52.7624 294.755 51.4935C299.301 50.1453 304.177 52.6038 305.5 57.0451C306.822 61.4071 304.26 66.0863 299.714 67.3552Z" fill="#FFEEF0"/>
<path d="M166.058 120.095H53.3136C51.1645 120.095 49.4287 118.43 49.4287 116.368V89.5615C49.4287 87.4995 51.1645 85.834 53.3136 85.834H166.058C168.207 85.834 169.943 87.4995 169.943 89.5615V116.447C169.86 118.509 168.124 120.095 166.058 120.095Z" fill="white" stroke="#FF928D" stroke-width="1.5" stroke-miterlimit="10"/>
<path d="M162.338 101.537H89.2693C88.1121 101.537 87.2029 100.665 87.2029 99.5545C87.2029 98.4442 88.1121 97.5718 89.2693 97.5718H162.338C163.495 97.5718 164.404 98.4442 164.404 99.5545C164.404 100.665 163.413 101.537 162.338 101.537Z" fill="#FFEEF0"/>
<path d="M162.338 108.437H89.2693C88.1121 108.437 87.2029 107.565 87.2029 106.454C87.2029 105.344 88.1121 104.472 89.2693 104.472H162.338C163.495 104.472 164.404 105.344 164.404 106.454C164.404 107.565 163.413 108.437 162.338 108.437Z" fill="#FFEEF0"/>
<path d="M162.338 94.6373H89.2693C88.1121 94.6373 87.2029 93.7649 87.2029 92.6546C87.2029 91.5443 88.1121 90.6719 89.2693 90.6719H162.338C163.495 90.6719 164.404 91.5443 164.404 92.6546C164.404 93.7649 163.413 94.6373 162.338 94.6373Z" fill="#FFEEF0"/>
<path d="M137.624 115.337H89.2693C88.1121 115.337 87.2029 114.465 87.2029 113.354C87.2029 112.244 88.1121 111.372 89.2693 111.372H137.624C138.781 111.372 139.69 112.244 139.69 113.354C139.69 114.385 138.698 115.337 137.624 115.337Z" fill="#FFEEF0"/>
<path opacity="0.55" d="M78.0281 113.989H60.3395C58.9343 113.989 57.7771 112.878 57.7771 111.53V94.5582C57.7771 93.2099 58.9343 92.0996 60.3395 92.0996H78.0281C79.4332 92.0996 80.5904 93.2099 80.5904 94.5582V111.53C80.5904 112.878 79.4332 113.989 78.0281 113.989Z" fill="#FF796D"/>
<path d="M65.2988 97.5721V108.517C65.2988 109.468 66.3734 109.944 67.1999 109.389L74.9697 103.917C75.6309 103.441 75.6309 102.568 74.9697 102.093L67.1999 96.6204C66.456 96.0652 65.2988 96.6204 65.2988 97.5721Z" fill="white"/>
<path d="M62.9019 276.808C59.4303 261.105 56.7026 245.006 58.9343 228.985C61.0008 213.996 67.1174 199.324 76.7882 186.317C77.6148 185.128 78.524 184.018 79.5159 182.828C83.2355 178.228 87.451 173.945 92.1624 170.059C95.634 167.204 101.503 169.98 99.8495 173.707C85.3846 205.748 79.8465 240.406 83.8967 274.27" fill="#B5DAE5"/>
<path d="M70.1756 262.454C70.0103 247.702 76.7055 233.189 87.4509 222.641C95.3033 214.948 105.139 209.396 115.885 206.066C119.522 204.955 122.415 209 119.852 211.617C112.909 218.755 106.214 226.21 100.428 234.299C92.3277 245.482 85.7978 257.854 82.5741 271.098" fill="#B5DAE5"/>
<path d="M54.8842 277.363C49.4289 239.058 39.0968 211.934 20.003 182.273C18.0192 179.18 21.4082 175.452 24.7144 177.197C32.3189 181.004 39.0141 186.793 44.3868 193.535C52.1566 203.289 66.7042 220.975 71.1677 263.009" fill="#B5DAE5"/>
<path d="M37.1129 267.133C37.1129 258.33 28.6819 232.316 5.70327 220.658C2.23168 218.834 3.7195 213.679 7.68704 213.838C20.4989 214.472 30.9963 220.024 39.4273 227.796C51.2473 238.74 58.6864 256.505 60.5875 272.764" fill="#B5DAE5"/>
<path d="M118.282 209.317C94.0635 221.451 77.8628 245.323 76.7056 271.574C76.7056 271.733 76.9535 271.733 76.9535 271.574C78.524 245.402 94.2288 221.768 118.365 209.476C118.53 209.396 118.365 209.238 118.282 209.317Z" fill="white"/>
<path d="M91.0052 178.228C77.4495 196.786 69.0185 218.754 67.6133 241.437C67.2 247.861 67.3653 254.285 68.1919 260.709C68.1919 260.788 68.3572 260.788 68.3572 260.709C65.4642 231.523 73.9779 202.496 91.1705 178.387C91.1705 178.228 91.0052 178.149 91.0052 178.228Z" fill="white"/>
<path d="M29.9219 185.049C49.5942 205.431 57.612 232.634 62.3234 259.361C62.3234 259.44 62.4887 259.44 62.4887 259.281C58.1905 232.634 49.6769 205.034 30.0045 184.969C30.0045 184.969 29.9219 185.049 29.9219 185.049Z" fill="white"/>
<path d="M10.9933 218.517C33.5586 227.003 47.8583 248.495 51.4952 270.86C51.4952 270.94 51.6605 270.94 51.6605 270.86C48.9328 248.416 33.228 226.686 10.9933 218.438C10.9933 218.438 10.9106 218.517 10.9933 218.517Z" fill="white"/>
<path d="M25.7063 259.202V268.005C25.7063 303.06 43.4775 313.052 43.4775 313.052H82.6569C82.6569 313.052 100.428 303.06 100.428 268.005V259.202H25.7063Z" fill="#FF796D"/>
<path d="M431.8 173.153C431.8 173.153 421.468 184.97 426.179 187.587C430.891 190.204 435.602 189.807 437.255 188.301C439.074 186.714 444.116 182.67 443.124 179.735C441.801 175.532 436.181 171.408 431.8 173.153Z" fill="#FFBEA1"/>
<path d="M432.213 188.063L431.717 196.469L442.297 194.169L438.908 184.256" fill="#FFBEA1"/>
<g opacity="0.55">
<path opacity="0.55" d="M439.818 187.428C438.743 187.27 437.751 186.873 436.925 186.239C436.594 186.001 436.263 185.446 436.594 185.208C436.759 185.129 437.007 185.129 437.255 185.129C437.916 185.129 438.495 184.653 438.991 184.098C439.487 183.542 440.066 182.908 440.231 182.115C440.396 181.401 440.148 180.449 439.404 180.132C438.66 179.894 437.916 180.211 437.338 180.767C437.173 180.925 437.007 181.084 436.842 181.084C436.511 181.163 436.181 180.767 436.181 180.449C436.181 180.132 436.346 179.815 436.511 179.498C436.925 178.625 437.007 177.674 436.759 176.801C436.594 176.325 436.429 175.77 436.842 175.453C437.09 175.294 437.503 175.374 437.751 175.453C438.908 175.77 440.066 176.246 441.14 176.801C443.124 177.832 444.446 180.449 444.033 182.591C443.62 184.891 441.553 186.397 439.818 187.428Z" fill="#FF796D"/>
</g>
<path d="M443.95 183.225C443.62 181.48 442.545 179.735 440.975 178.784C438.826 177.515 436.594 176.325 434.28 175.215C433.205 174.739 432.131 174.184 431.635 173.232C431.387 172.677 431.304 172.042 431.304 171.408C431.304 170.377 431.304 169.346 431.635 168.315C431.965 167.363 432.792 166.491 433.784 166.174C435.272 165.698 436.842 166.57 437.999 167.443C440.975 169.743 443.041 173.153 443.703 176.801C444.777 176.484 445.934 176.96 446.596 177.832C447.174 178.784 447.505 182.432 443.95 183.225Z" fill="#FF796D"/>
<path d="M407.168 210.586L381.462 203.765C381.462 203.765 376.254 195.517 375.097 195.676C373.94 195.835 376.998 199.8 375.428 200.038C374.519 200.197 371.626 200.117 371.13 199.641C370.551 199.245 369.063 195.597 368.65 195.597C367.989 195.676 368.567 200.672 369.724 201.783C370.551 202.576 374.023 205.034 376.833 206.383C379.643 207.731 407.333 226.527 412.706 225.655" fill="#EF9D7D"/>
<path d="M396.836 207.652L393.447 206.938L392.29 216.852L401.548 220.182" fill="white"/>
<path d="M449.736 200.99C449.736 200.99 446.761 191.949 437.007 193.456C427.254 194.962 409.565 209.714 409.565 209.714L396.175 207.493L394.935 224.148C394.935 224.148 405.763 230.017 412.541 230.017C426.427 230.017 445.686 205.748 445.686 205.748" fill="#24B3C6"/>
<path d="M430.395 221.372C439.818 214.631 442.049 208.524 445.686 208.524" stroke="#1B5889" stroke-miterlimit="10"/>
<path d="M458.415 271.019C458.415 271.019 468.665 269.274 472.219 268.719C479.079 267.688 486.105 267.609 483.378 264.912C479.741 261.423 462.879 253.968 462.879 253.968L454.2 260.63L458.415 271.019Z" fill="#19202D"/>
<path d="M407.912 301.632L411.879 317.732C406.672 325.028 405.432 317.414 405.432 317.414L395.761 300.046" fill="#FFBEA1"/>
<path d="M412.789 320.746L411.879 317.732C407.499 320.349 405.432 317.415 405.432 317.415L396.836 319.873C394.356 320.666 394.026 323.363 395.761 323.363H410.722C412.21 323.363 413.202 322.014 412.789 320.746Z" fill="#19202D"/>
<path d="M467.673 305.122H484.783C490.569 309.484 483.047 310.911 483.047 310.911L466.102 315.273" fill="#FFBEA1"/>
<path d="M488.006 305.201L484.783 305.122C486.518 308.928 483.047 310.911 483.047 310.911C483.047 310.911 484.535 316.225 484.535 316.78C484.535 317.335 482.964 318.683 483.625 319.556C484.287 320.428 487.924 319.952 488.337 318.763C489.659 315.59 490.486 307.025 490.486 307.025C490.569 305.756 489.494 305.36 488.006 305.201Z" fill="#19202D"/>
<path d="M436.181 250.24C436.181 250.24 409.482 301.236 417.913 312.894C422.708 319.556 431.056 320.428 442.38 320.428C447.422 320.428 472.467 320.428 472.467 320.428L476.682 305.042L439.074 303.218C439.074 303.218 466.35 278.95 467.756 268.402C469.657 254.92 462.796 243.261 462.796 243.261" fill="#333538"/>
<path d="M423.699 249.844C423.699 249.844 421.963 252.699 420.145 252.699C412.871 252.699 396.009 252.699 392.29 252.699C381.544 252.699 373.444 258.647 377.163 274.747C380.883 290.846 388.983 312.418 388.983 312.418H411.301L403.118 279.188C403.118 279.188 429.32 279.188 433.288 279.188C445.686 279.188 452.629 269.75 446.843 252.62" fill="#333538"/>
<path d="M456.431 261.74C456.431 261.74 457.506 268.878 453.621 276.967C450.232 284.105 439.321 296.557 434.693 302.981C433.866 304.091 434.692 305.677 436.098 305.756L475.856 307.66" stroke="white" stroke-width="0.75" stroke-miterlimit="10"/>
<path d="M408.49 312.498L398.737 277.444C398.489 276.571 399.15 275.699 400.142 275.699H424.443" stroke="white" stroke-width="0.75" stroke-miterlimit="10"/>
<path d="M423.038 279.188L430.56 261.74" stroke="#050D75" stroke-width="0.75" stroke-miterlimit="10"/>
<path d="M428.659 208.683C428.659 208.683 425.435 237.948 423.203 250.716C428.328 259.678 465.937 258.885 467.59 257.299C469.243 255.713 461.473 218.755 455.109 209.872C448.744 200.99 428.659 198.293 428.659 208.683Z" fill="#FFD273"/>
<path d="M440.148 193.535C440.148 193.535 456.597 192.663 463.953 219.39C471.392 246.592 483.378 264.992 483.378 264.992C483.378 264.992 478.831 263.485 470.979 264.278C457.919 265.626 441.636 272.209 441.636 272.209C441.636 272.209 435.519 259.678 431.304 244.53C423.369 216.138 428.659 199.007 428.659 199.007L440.148 193.535Z" fill="#68D7EC"/>
<path d="M434.527 250.082C434.527 250.082 437.751 231.762 436.842 230.969C435.933 230.176 431.717 230.414 431.717 229.779C431.717 229.065 437.916 227.955 436.842 227.003C435.767 226.052 430.064 202.894 433.288 199.166" stroke="#19202D" stroke-width="0.75" stroke-miterlimit="10" stroke-linejoin="round"/>
<path d="M360.219 97.5718C360.219 97.5718 316.493 171.091 316.245 171.646H335.587L379.561 97.5718H360.219Z" fill="url(#paint0_linear_297_16247)"/>
<path d="M389.645 97.5718C389.645 97.5718 345.919 171.091 345.671 171.646H351.788L395.761 97.5718H389.645Z" fill="url(#paint1_linear_297_16247)"/>
<path d="M365.687 168.111L359.246 170.137L367.871 195.385L374.312 193.359L365.687 168.111Z" fill="#FF796D"/>
<path d="M341.125 106.692C323.023 112.402 313.187 131.04 319.138 148.408C325.09 165.777 344.514 175.215 362.616 169.504C380.718 163.794 390.554 145.157 384.603 127.788C378.651 110.42 359.144 100.982 341.125 106.692ZM361.045 164.984C345.506 169.822 328.892 161.732 323.767 146.902C318.725 131.992 327.156 116.051 342.613 111.133C358.152 106.296 374.766 114.385 379.891 129.216C384.933 144.126 376.502 160.146 361.045 164.984Z" fill="#19202D"/>
<path d="M379.395 218.755C376.75 219.548 373.94 218.2 373.031 215.662L361.211 181.163L370.799 178.149L382.619 212.648C383.445 215.186 382.04 217.882 379.395 218.755Z" fill="#19202D"/>
<path d="M440.644 217.803C443.702 220.182 445.108 223.989 446.265 227.637C450.48 240.485 454.117 253.413 461.391 265.864" stroke="#9CE8F2" stroke-width="0.5" stroke-miterlimit="10"/>
<path d="M404.192 216.455L380.139 206.462C380.139 206.462 374.932 198.214 373.775 198.373C372.617 198.531 375.676 202.497 374.105 202.735C373.196 202.893 370.303 202.814 369.807 202.338C369.229 201.942 367.741 198.293 367.327 198.293C366.666 198.373 367.245 203.369 368.402 204.48C369.229 205.273 372.7 207.731 375.51 209.079C378.321 210.428 404.358 232.396 409.73 231.524" fill="#FFBEA1"/>
<path d="M400.556 214.235L393.282 211.459L389.149 221.769L399.15 228.431" fill="white"/>
<path d="M446.843 196.47C446.843 196.47 443.785 192.108 434.114 193.852C428.576 194.883 406.672 216.217 406.672 216.217L395.927 212.411L390.058 230.255C390.058 230.255 403.366 238.265 410.144 238.265C424.03 238.265 443.289 213.997 443.289 213.997" fill="#68D7EC"/>
<path d="M427.998 229.62C437.42 222.879 439.652 216.772 443.289 216.772" stroke="#19202D" stroke-width="0.75" stroke-miterlimit="10" stroke-linejoin="round"/>
<path d="M441.14 252.699L451.72 253.65V255.237H442.215L441.14 252.699Z" fill="#19202D"/>
<path d="M430.229 176.563C430.229 176.563 424.609 178.942 424.609 179.815C424.609 180.766 427.584 181.797 427.584 181.797" fill="#FFBEA1"/>
<path d="M432.213 177.594C432.131 177.435 431.883 177.356 431.717 177.356C431.304 177.435 430.973 178.308 431.056 178.625C431.139 178.863 431.469 179.101 431.717 179.021C431.8 178.942 431.883 178.863 431.965 178.784C432.13 178.546 432.378 178.228 432.378 177.911C432.378 177.832 432.296 177.753 432.213 177.594Z" fill="#19202D"/>
<path d="M431.634 175.373C432.213 175.69 432.874 176.087 433.37 176.563C433.618 176.801 433.866 177.039 434.031 177.356C434.197 177.594 434.279 177.911 434.527 178.07C434.693 178.149 434.858 178.07 434.858 177.911C434.941 177.277 434.197 176.563 433.701 176.166C433.122 175.611 432.461 175.294 431.717 175.135C431.634 175.215 431.552 175.373 431.634 175.373Z" fill="#19202D"/>
<path d="M425.187 183.78C426.179 184.176 427.998 184.652 429.733 184.097" stroke="#EF977F" stroke-width="0.75" stroke-miterlimit="10"/>
<path d="M410.226 144.919C410.226 138.098 415.93 132.626 423.038 132.626H463.871C470.979 132.626 476.682 138.098 476.682 144.919C476.682 151.739 470.979 157.212 463.871 157.212H423.038C421.798 157.212 420.558 157.053 419.484 156.736L414.69 159.908L416.095 155.229C412.541 153.008 410.226 149.281 410.226 144.919Z" fill="#E0EBFC"/>
<path d="M445.438 146.108C445.438 147.219 446.347 148.091 447.505 148.091C448.662 148.091 449.571 147.219 449.571 146.108C449.571 144.998 448.662 144.125 447.505 144.125C446.347 144.125 445.438 145.077 445.438 146.108Z" fill="white"/>
<path d="M436.511 146.108C436.511 147.219 437.42 148.091 438.578 148.091C439.735 148.091 440.644 147.219 440.644 146.108C440.644 144.998 439.735 144.125 438.578 144.125C437.42 144.125 436.511 145.077 436.511 146.108Z" fill="white"/>
<path d="M454.365 146.108C454.365 147.219 455.274 148.091 456.432 148.091C457.589 148.091 458.498 147.219 458.498 146.108C458.498 144.998 457.589 144.125 456.432 144.125C455.274 144.125 454.365 145.077 454.365 146.108Z" fill="white"/>
<path d="M463.292 146.108C463.292 147.219 464.201 148.091 465.358 148.091C466.516 148.091 467.425 147.219 467.425 146.108C467.425 144.998 466.516 144.125 465.358 144.125C464.201 144.125 463.292 145.077 463.292 146.108Z" fill="white"/>
<path d="M427.584 146.108C427.584 147.219 428.493 148.091 429.651 148.091C430.808 148.091 431.717 147.219 431.717 146.108C431.717 144.998 430.808 144.125 429.651 144.125C428.493 144.125 427.584 145.077 427.584 146.108Z" fill="white"/>
<path d="M418.657 146.108C418.657 147.219 419.566 148.091 420.724 148.091C421.881 148.091 422.79 147.219 422.79 146.108C422.79 144.998 421.881 144.125 420.724 144.125C419.566 144.125 418.657 145.077 418.657 146.108Z" fill="white"/>
<path d="M152.998 176.563H164.57C164.57 176.563 169.116 173.787 171.183 173.628C173.993 173.39 179.366 173.628 179.118 174.659C178.787 175.69 170.852 177.039 171.1 177.99C171.348 178.863 175.481 178.387 175.481 179.18C175.481 180.766 164.405 180.845 164.405 180.845L147.956 182.828" fill="#FFBEA1"/>
<path d="M101.751 134.767C101.751 134.767 118.861 138.495 125.06 148.567C131.507 159.035 139.938 172.597 139.938 172.597L163.496 176.563V181.638C163.496 181.638 142.087 186.952 135.64 186.952C123.82 186.952 109.19 157.687 109.19 157.687" fill="#FFD273"/>
<path d="M161.346 182.193V176.166" stroke="#050D75" stroke-width="0.75" stroke-miterlimit="10"/>
<path d="M125.143 316.066C125.143 316.066 123.407 317.811 123.489 320.746C123.489 322.808 123.903 324.235 123.903 324.235H124.812L125.06 322.49C125.06 322.49 127.622 322.728 130.267 324.156C131.59 324.87 137.706 324.394 138.616 323.839C139.608 323.204 139.277 322.252 138.864 321.935C138.45 321.539 131.59 319.159 131.59 319.159" fill="#19202D"/>
<path d="M113.488 248.734C104.809 274.192 125.143 316.146 125.143 316.146L129.11 317.653C129.11 317.653 132.086 273.557 132.086 252.54C132.086 234.775 134.979 206.304 115.968 197.738" fill="#FFBEA1"/>
<path d="M128.697 316.066C128.697 316.066 131.094 318.604 134.648 320.349C135.805 320.904 134.317 321.777 133.16 321.856C129.441 322.173 124.399 317.177 124.399 317.177L125.639 314.797" fill="#FFBEA1"/>
<path d="M77.0362 321.063C74.3085 323.68 70.341 330.025 72.8207 330.5C75.3004 330.976 82.0783 324.87 82.0783 324.87V325.425H83.0702C83.0702 325.425 83.8967 322.014 82.4089 320.587" fill="#19202D"/>
<path d="M74.1433 231.603C74.1433 231.603 74.8872 253.73 74.4739 257.695C74.0607 261.661 77.0363 320.269 77.0363 321.063C76.871 322.173 73.6474 326.535 75.3005 326.535C76.7883 326.535 82.7396 321.459 82.4917 320.507C82.8223 319.635 92.9064 287.119 95.0555 274.429C97.6179 259.678 94.4769 250.082 94.4769 250.082L102.908 202.338" fill="#FFBEA1"/>
<path d="M116.298 192.028C116.298 192.028 128.614 196.39 131.755 215.186C134.235 230.016 133.243 253.254 133.243 253.254C133.243 253.254 128.366 258.567 110.099 261.581C85.3846 265.626 74.4739 259.916 74.4739 259.916C74.4739 259.916 69.9277 230.334 73.234 211.458C76.5403 192.186 92.5757 185.524 92.5757 185.524" fill="#333538"/>
<path d="M77.4496 261.026C77.4496 261.026 68.44 205.351 86.5419 191.393" stroke="#050D75" stroke-width="0.75" stroke-miterlimit="10"/>
<path d="M118.282 148.567C118.282 148.567 118.117 151.263 119.109 152.929C120.927 156.022 123.407 158.401 123.407 165.301C123.407 169.583 119.522 173.707 119.522 175.056C119.522 176.404 116.464 191.393 116.464 191.393C116.464 191.393 112.413 191.393 101.172 191.393C88.3603 191.393 84.0621 186.952 84.0621 186.952L74.3086 153.167L95.8821 135.719L102.991 135.005L118.282 148.567Z" fill="#FFD273"/>
<path d="M110.099 149.994H116.381" stroke="#050D75" stroke-width="0.75" stroke-miterlimit="10"/>
<path d="M118.282 148.566C118.282 148.566 118.117 151.263 119.109 152.928C120.927 156.021 123.407 159.749 123.407 165.3C123.407 169.583 119.522 173.707 119.522 175.055C119.522 176.404 116.381 192.027 116.381 192.027" stroke="#050D75" stroke-width="0.75" stroke-miterlimit="10"/>
<path d="M124.647 166.57L118.778 191.79H156.222L162.173 166.253C162.338 165.698 162.008 165.222 161.512 165.222H126.217C125.473 165.222 124.812 165.856 124.647 166.57Z" fill="#19202D"/>
<path d="M129.11 191.79H100.015L100.18 190.362C100.263 189.49 101.089 188.697 102.081 188.697H129.441L129.11 191.79Z" fill="#19202D"/>
<path d="M143.575 178.545C143.162 180.211 141.674 181.559 140.186 181.559C138.698 181.559 137.789 180.211 138.202 178.545C138.616 176.88 140.104 175.532 141.591 175.532C143.079 175.532 143.988 176.88 143.575 178.545Z" fill="#19202D"/>
<path d="M89.6826 195.121C94.0634 195.121 119.77 195.121 119.77 195.121C119.77 195.121 124.812 195.597 128.862 195.597C132.912 195.517 135.309 192.424 135.309 191.79C135.309 191.235 132.995 191.79 129.689 191.79C127.622 191.79 126.217 192.107 126.052 191.631C125.638 190.6 129.523 189.966 128.779 189.252C128.531 189.014 126.796 189.014 125.638 189.252C122.745 189.807 119.687 191.552 119.687 191.552L94.5594 186" fill="#FFBEA1"/>
<path d="M98.1963 134.767C98.1963 134.767 74.3911 136.988 70.0103 153.801C65.1336 172.439 77.4495 193.455 83.814 195.2C86.4591 195.914 116.381 195.914 116.381 195.914L117.786 190.917L92.493 185.524L89.7653 153.167" fill="#FFD273"/>
<path d="M115.058 190.362L114.232 195.914" stroke="#050D75" stroke-width="0.75" stroke-miterlimit="10"/>
<path d="M117.703 190.917L92.4103 185.524L89.6826 153.167" stroke="#050D75" stroke-width="0.75" stroke-miterlimit="10"/>
<path d="M95.2209 113.037C92.7412 113.671 90.5095 115.178 88.8563 117.161C87.2032 119.223 86.2113 121.84 84.8888 124.219C84.2275 125.409 83.3183 126.519 82.4917 127.709C81.8305 128.502 80.4253 129.453 80.7559 130.643C81.0866 131.833 82.9877 132.388 84.0622 132.546C85.4674 132.705 86.9552 132.546 88.3604 132.705C89.6002 132.864 90.7574 133.34 91.9146 133.815C94.477 134.767 97.2047 135.402 99.9323 135.084C101.585 134.926 103.073 134.053 104.644 133.736C106.297 133.34 108.198 133.657 109.934 133.657C110.595 133.657 111.339 133.578 111.835 133.181C112.248 132.784 112.414 132.15 112.414 131.595C112.662 129.295 112.083 126.916 110.843 124.933C109.686 123.029 107.95 121.602 106.793 119.699C105.47 117.557 104.561 115.416 102.412 113.909C100.346 112.402 97.37 112.481 95.2209 113.037Z" fill="#19202D"/>
<path d="M104.065 130.405L103.404 136.274C103.404 136.274 102.908 138.336 100.842 138.495C96.0475 138.812 95.9648 135.719 95.9648 135.719L99.6017 128.343" fill="#FFBEA1"/>
<path d="M99.8498 129.93C99.8498 129.93 106.958 133.023 110.347 129.533C112.331 127.55 107.289 117.478 105.14 116.13C102.991 114.702 98.6926 116.209 97.7834 118.588C96.8741 120.888 94.4771 127.074 99.8498 129.93Z" fill="#FFBEA1"/>
<path d="M108.281 121.84C108.281 122.158 108.033 122.316 107.785 122.316C107.454 122.316 107.289 122.078 107.289 121.84C107.289 121.523 107.537 121.364 107.785 121.364C108.033 121.285 108.281 121.523 108.281 121.84Z" fill="#19202D"/>
<path d="M102.412 123.823C102.412 124.14 102.66 124.299 102.908 124.299C103.239 124.299 103.405 124.061 103.405 123.823C103.405 123.585 103.156 123.347 102.908 123.347C102.66 123.347 102.412 123.585 102.412 123.823Z" fill="#19202D"/>
<path d="M103.735 121.76C102.495 121.285 100.842 121.84 100.676 123.267C100.676 123.347 100.842 123.426 100.842 123.347C101.503 122.316 102.329 121.76 103.652 122.078C103.735 121.998 103.9 121.84 103.735 121.76Z" fill="#19202D"/>
<path d="M108.529 120.016C107.62 119.143 105.47 119.778 105.801 121.205C105.801 121.285 105.966 121.285 105.966 121.205C106.214 120.809 106.38 120.412 106.793 120.174C107.289 119.857 107.95 119.937 108.446 120.174C108.529 120.174 108.611 120.095 108.529 120.016Z" fill="#19202D"/>
<path d="M105.884 122.474C105.884 122.474 107.95 124.536 107.702 125.012C107.371 125.805 106.132 125.805 106.132 125.805" stroke="#EF977F" stroke-width="0.75" stroke-miterlimit="10"/>
<path d="M106.214 127.629L108.942 126.757C108.942 126.757 109.438 128.264 108.529 128.581C106.876 129.136 106.214 127.629 106.214 127.629Z" fill="white"/>
<path d="M103.982 131.119C103.982 131.119 102.164 131.198 99.8496 129.929" stroke="#EF977F" stroke-width="0.75" stroke-miterlimit="10"/>
<path d="M97.4527 127.074C100.428 125.012 101.586 120.968 102.164 117.478C104.231 117.954 106.214 118.509 108.198 119.144C108.363 118.192 108.198 114.623 103.569 113.195C101.255 112.482 98.6925 113.592 97.1221 115.337C94.8077 117.954 93.8984 121.602 94.8077 124.933" fill="#19202D"/>
<path d="M98.2791 126.836C96.626 125.25 95.4688 126.202 95.2209 126.836C94.9729 127.471 95.2209 128.185 95.5515 128.819C96.0474 129.612 96.7087 130.247 97.6179 130.405C98.5271 130.564 99.519 129.85 99.519 128.978" fill="#FFBEA1"/>
<path d="M97.0394 133.34C97.0394 133.34 98.4446 137.543 100.759 138.416C99.5191 139.288 97.5354 141.984 97.5354 141.984C94.6424 139.209 94.4771 135.005 94.4771 135.005L97.0394 133.34Z" fill="white"/>
<path d="M103.569 134.767C103.569 134.767 102.495 137.781 100.842 138.415C101.916 139.367 103.735 141.588 103.735 141.588C103.735 141.588 105.057 140.557 104.644 137.384C104.561 136.67 103.569 134.767 103.569 134.767Z" fill="white"/>
<path d="M66.1256 121.919C66.1256 115.099 60.4222 109.626 53.3137 109.626H31.1617C24.0532 109.626 18.3499 115.099 18.3499 121.919C18.3499 128.74 24.0532 134.212 31.1617 134.212H53.3964C54.6362 134.212 55.8761 134.053 56.9506 133.736L61.7447 136.909L60.3396 132.229C63.8112 130.009 66.1256 126.202 66.1256 121.919Z" fill="#E0EBFC"/>
<path d="M30.9136 123.109C30.9136 124.219 30.0044 125.091 28.8472 125.091C27.69 125.091 26.7808 124.219 26.7808 123.109C26.7808 121.998 27.69 121.126 28.8472 121.126C30.0044 121.126 30.9136 121.998 30.9136 123.109Z" fill="white"/>
<path d="M39.8406 123.109C39.8406 124.219 38.9314 125.091 37.7742 125.091C36.617 125.091 35.7078 124.219 35.7078 123.109C35.7078 121.998 36.617 121.126 37.7742 121.126C38.9314 121.126 39.8406 121.998 39.8406 123.109Z" fill="white"/>
<path d="M48.7676 123.109C48.7676 124.219 47.8584 125.091 46.7012 125.091C45.544 125.091 44.6348 124.219 44.6348 123.109C44.6348 121.998 45.544 121.126 46.7012 121.126C47.8584 121.126 48.7676 121.998 48.7676 123.109Z" fill="white"/>
<path d="M57.6944 123.109C57.6944 124.219 56.7851 125.091 55.6279 125.091C54.4707 125.091 53.5615 124.219 53.5615 123.109C53.5615 121.998 54.4707 121.126 55.6279 121.126C56.7851 121.126 57.6944 121.998 57.6944 123.109Z" fill="white"/>
<path d="M58.8517 175.452C58.8517 177.673 56.9505 179.497 54.6362 179.497C52.3218 179.497 50.4207 177.673 50.4207 175.452C50.4207 173.232 52.3218 171.408 54.6362 171.408C56.9505 171.487 58.8517 173.232 58.8517 175.452Z" fill="#FFEEF0"/>
<path d="M498.835 98.4438C498.835 101.378 496.355 103.678 493.379 103.678C490.404 103.678 487.924 101.299 487.924 98.4438C487.924 95.5887 490.404 93.2095 493.379 93.2095C496.355 93.2095 498.835 95.5094 498.835 98.4438Z" fill="#FFEEF0"/>
<path d="M216.065 4.70147C216.065 6.9221 214.164 8.74619 211.85 8.74619C209.535 8.74619 207.634 6.9221 207.634 4.70147C207.634 2.48083 209.535 0.656738 211.85 0.656738C214.164 0.656738 216.065 2.48083 216.065 4.70147Z" fill="#FFEEF0"/>
<path d="M51.3298 175.532C52.7906 175.532 53.9749 174.396 53.9749 172.994C53.9749 171.592 52.7906 170.456 51.3298 170.456C49.869 170.456 48.6848 171.592 48.6848 172.994C48.6848 174.396 49.869 175.532 51.3298 175.532Z" stroke="#FF796D" stroke-width="2" stroke-miterlimit="10"/>
<path d="M189.78 15.2493C189.78 16.6768 188.623 17.7872 187.135 17.7872C185.647 17.7872 184.49 16.6768 184.49 15.2493C184.49 13.8217 185.647 12.7114 187.135 12.7114C188.623 12.7114 189.78 13.9011 189.78 15.2493Z" stroke="#FF796D" stroke-width="2" stroke-miterlimit="10"/>
<path d="M35.8731 86.627C37.3339 86.627 38.5181 85.4908 38.5181 84.0891C38.5181 82.6875 37.3339 81.5513 35.8731 81.5513C34.4122 81.5513 33.228 82.6875 33.228 84.0891C33.228 85.4908 34.4122 86.627 35.8731 86.627Z" stroke="#FF796D" stroke-width="2" stroke-miterlimit="10"/>
<path d="M457.837 112.164C457.837 113.592 456.68 114.702 455.192 114.702C453.704 114.702 452.547 113.592 452.547 112.164C452.547 110.737 453.704 109.626 455.192 109.626C456.68 109.626 457.837 110.737 457.837 112.164Z" stroke="#FF796D" stroke-width="2" stroke-miterlimit="10"/>
<path d="M471.475 201.941C472.936 201.941 474.12 200.805 474.12 199.404C474.12 198.002 472.936 196.866 471.475 196.866C470.014 196.866 468.83 198.002 468.83 199.404C468.83 200.805 470.014 201.941 471.475 201.941Z" stroke="#FF796D" stroke-width="2" stroke-miterlimit="10"/>
<path d="M39.8407 61.1688C48.5599 61.1688 55.6282 54.3869 55.6282 46.0209C55.6282 37.655 48.5599 30.873 39.8407 30.873C31.1215 30.873 24.0532 37.655 24.0532 46.0209C24.0532 54.3869 31.1215 61.1688 39.8407 61.1688Z" fill="#FFEEF0"/>
<path d="M47.941 52.1279L43.6429 47.9246C44.5521 46.8142 44.9654 45.3867 44.9654 44.0384C44.9654 40.4696 41.9071 37.5352 38.1875 37.5352C34.468 37.5352 31.4097 40.4696 31.4097 44.0384C31.4097 47.6073 34.468 50.5417 38.1875 50.5417C39.2621 50.5417 40.3366 50.3038 41.3285 49.828L45.8746 54.1899C46.1226 54.4278 46.5359 54.5865 46.9492 54.5865C47.3624 54.5865 47.6931 54.4278 48.0237 54.1899C48.2717 53.952 48.437 53.5554 48.437 53.1589C48.3543 52.7624 48.189 52.3658 47.941 52.1279ZM43.0643 44.0384C43.0643 46.6556 40.8326 48.7176 38.1875 48.7176C35.4599 48.7176 33.3108 46.5763 33.3108 44.0384C33.3108 41.4213 35.5425 39.3592 38.1875 39.3592C40.8326 39.3592 43.0643 41.5006 43.0643 44.0384Z" fill="white"/>
<path d="M379.974 14.4562L378.321 20.7216C378.155 21.2767 378.899 21.7526 379.478 21.594L385.76 19.7699C386.256 19.6113 386.421 19.0561 386.008 18.7389L381.379 14.2976C380.883 13.7424 380.057 13.9011 379.974 14.4562Z" stroke="#FF796D" stroke-width="2" stroke-miterlimit="10"/>
<path d="M156.965 284.977L150.435 286.563C149.857 286.722 149.774 287.515 150.188 287.911L154.816 292.353C155.23 292.749 155.726 292.591 155.891 292.115L157.792 286.087C157.957 285.532 157.461 284.818 156.965 284.977Z" stroke="#FF796D" stroke-width="2" stroke-miterlimit="10"/>
<path d="M0.909185 160.622L3.80218 166.491C4.05015 166.966 4.87672 166.966 5.29 166.411L8.92691 161.177C9.25754 160.78 9.00957 160.225 8.43097 160.225L1.90107 159.591C1.23981 159.511 0.661214 160.146 0.909185 160.622Z" stroke="#FF796D" stroke-width="2" stroke-miterlimit="10"/>
<path d="M492.139 174.897L497.925 171.566C498.421 171.249 498.256 170.456 497.677 170.218L491.891 167.284C491.396 167.046 490.9 167.284 490.9 167.839V174.104C490.9 174.739 491.644 175.215 492.139 174.897Z" stroke="#FF796D" stroke-width="2" stroke-miterlimit="10"/>
<path d="M181.432 224.703C191.292 224.703 199.286 217.033 199.286 207.572C199.286 198.112 191.292 190.442 181.432 190.442C171.572 190.442 163.578 198.112 163.578 207.572C163.578 217.033 171.572 224.703 181.432 224.703Z" fill="#FFEEF0"/>
<path d="M184.821 213.996H171.678C170.852 213.996 170.108 213.362 170.108 212.49V203.369C170.108 202.576 170.769 201.862 171.678 201.862H184.821C185.647 201.862 186.391 202.497 186.391 203.369V212.49C186.391 213.362 185.73 213.996 184.821 213.996Z" fill="white"/>
<path d="M192.839 212.886L188.127 210.745V205.272L192.839 203.131C193.169 202.972 193.5 203.21 193.5 203.528V212.489C193.5 212.807 193.169 213.045 192.839 212.886Z" fill="white"/>
<path d="M492.692 76.442C494.937 67.2299 488.973 58.0163 479.372 55.863C469.77 53.7097 460.168 59.432 457.924 68.6442C455.679 77.8563 461.643 87.0698 471.244 89.2231C480.846 91.3765 490.448 85.6542 492.692 76.442Z" fill="#FFEEF0"/>
<path d="M465.524 71.796L472.88 79.5682L485.196 65.7686" stroke="white" stroke-width="3.5" stroke-miterlimit="10" stroke-linecap="round" stroke-linejoin="round"/>
</g>
<path d="M82.2707 369V354.455H84.4653V361.401H84.6428L90.7437 354.455H93.5065L87.64 361.003L93.5278 369H90.8857L86.184 362.501L84.4653 364.476V369H82.2707ZM97.555 362.523V369H95.4315V354.455H97.5266V359.866H97.6616C97.9173 359.279 98.3079 358.813 98.8334 358.467C99.359 358.122 100.046 357.949 100.893 357.949C101.641 357.949 102.295 358.103 102.853 358.411C103.417 358.718 103.852 359.178 104.16 359.788C104.473 360.394 104.629 361.152 104.629 362.061V369H102.505V362.317C102.505 361.517 102.299 360.896 101.887 360.456C101.475 360.011 100.903 359.788 100.169 359.788C99.6668 359.788 99.217 359.895 98.8192 360.108C98.4263 360.321 98.1161 360.634 97.8888 361.045C97.6663 361.453 97.555 361.945 97.555 362.523ZM112.108 369.22C111.085 369.22 110.193 368.986 109.43 368.517C108.668 368.048 108.076 367.393 107.655 366.55C107.233 365.707 107.023 364.722 107.023 363.595C107.023 362.464 107.233 361.474 107.655 360.626C108.076 359.779 108.668 359.121 109.43 358.652C110.193 358.183 111.085 357.949 112.108 357.949C113.131 357.949 114.023 358.183 114.785 358.652C115.548 359.121 116.14 359.779 116.561 360.626C116.982 361.474 117.193 362.464 117.193 363.595C117.193 364.722 116.982 365.707 116.561 366.55C116.14 367.393 115.548 368.048 114.785 368.517C114.023 368.986 113.131 369.22 112.108 369.22ZM112.115 367.438C112.778 367.438 113.327 367.262 113.763 366.912C114.198 366.562 114.52 366.095 114.729 365.513C114.942 364.93 115.048 364.289 115.048 363.588C115.048 362.892 114.942 362.253 114.729 361.67C114.52 361.083 114.198 360.612 113.763 360.257C113.327 359.902 112.778 359.724 112.115 359.724C111.447 359.724 110.893 359.902 110.453 360.257C110.017 360.612 109.693 361.083 109.48 361.67C109.272 362.253 109.168 362.892 109.168 363.588C109.168 364.289 109.272 364.93 109.48 365.513C109.693 366.095 110.017 366.562 110.453 366.912C110.893 367.262 111.447 367.438 112.115 367.438ZM113.564 356.784L112.108 354.881L110.645 356.784H108.727V356.678L111.22 353.666H112.989L115.489 356.678V356.784H113.564ZM121.737 362.523V369H119.613V358.091H121.652V359.866H121.787C122.038 359.289 122.431 358.825 122.966 358.474C123.506 358.124 124.185 357.949 125.004 357.949C125.747 357.949 126.399 358.105 126.957 358.418C127.516 358.725 127.949 359.185 128.257 359.795C128.565 360.406 128.719 361.161 128.719 362.061V369H126.595V362.317C126.595 361.526 126.389 360.908 125.977 360.463C125.565 360.013 124.999 359.788 124.28 359.788C123.787 359.788 123.349 359.895 122.966 360.108C122.587 360.321 122.286 360.634 122.064 361.045C121.846 361.453 121.737 361.945 121.737 362.523ZM136.19 373.318C135.324 373.318 134.578 373.205 133.953 372.977C133.333 372.75 132.826 372.449 132.433 372.075C132.04 371.701 131.747 371.292 131.553 370.847L133.378 370.094C133.506 370.302 133.676 370.522 133.889 370.754C134.107 370.991 134.401 371.192 134.77 371.358C135.144 371.524 135.625 371.607 136.212 371.607C137.017 371.607 137.682 371.41 138.208 371.017C138.733 370.629 138.996 370.009 138.996 369.156V367.011H138.861C138.733 367.243 138.548 367.501 138.307 367.786C138.07 368.07 137.744 368.316 137.327 368.524C136.91 368.732 136.368 368.837 135.7 368.837C134.839 368.837 134.062 368.635 133.371 368.233C132.684 367.826 132.14 367.227 131.737 366.436C131.34 365.641 131.141 364.663 131.141 363.503C131.141 362.343 131.337 361.348 131.73 360.52C132.128 359.691 132.672 359.057 133.364 358.616C134.055 358.171 134.839 357.949 135.715 357.949C136.392 357.949 136.939 358.062 137.355 358.29C137.772 358.512 138.096 358.773 138.328 359.071C138.565 359.369 138.747 359.632 138.875 359.859H139.031V358.091H141.112V369.241C141.112 370.179 140.895 370.948 140.459 371.55C140.023 372.151 139.434 372.596 138.69 372.885C137.952 373.174 137.119 373.318 136.19 373.318ZM136.169 367.075C136.78 367.075 137.296 366.933 137.717 366.649C138.144 366.36 138.466 365.948 138.683 365.413C138.906 364.874 139.017 364.227 139.017 363.474C139.017 362.741 138.908 362.094 138.69 361.536C138.473 360.977 138.153 360.541 137.732 360.229C137.31 359.911 136.789 359.753 136.169 359.753C135.53 359.753 134.997 359.919 134.571 360.25C134.145 360.577 133.823 361.022 133.605 361.585C133.392 362.149 133.286 362.778 133.286 363.474C133.286 364.189 133.395 364.817 133.612 365.357C133.83 365.896 134.152 366.318 134.578 366.621C135.009 366.924 135.539 367.075 136.169 367.075ZM153.949 369.22C152.893 369.22 151.984 368.981 151.221 368.503C150.464 368.02 149.881 367.355 149.474 366.507C149.067 365.66 148.863 364.689 148.863 363.595C148.863 362.487 149.072 361.509 149.488 360.662C149.905 359.81 150.492 359.144 151.25 358.666C152.007 358.188 152.9 357.949 153.927 357.949C154.756 357.949 155.494 358.103 156.143 358.411C156.792 358.714 157.315 359.14 157.713 359.689C158.115 360.238 158.354 360.88 158.43 361.614H156.363C156.25 361.102 155.989 360.662 155.582 360.293C155.18 359.923 154.64 359.739 153.963 359.739C153.371 359.739 152.852 359.895 152.407 360.207C151.967 360.515 151.624 360.955 151.377 361.528C151.131 362.097 151.008 362.769 151.008 363.545C151.008 364.341 151.129 365.027 151.37 365.605C151.612 366.183 151.953 366.63 152.393 366.947C152.838 367.265 153.361 367.423 153.963 367.423C154.365 367.423 154.73 367.35 155.056 367.203C155.388 367.052 155.665 366.836 155.887 366.557C156.115 366.277 156.273 365.941 156.363 365.548H158.43C158.354 366.254 158.125 366.884 157.741 367.438C157.358 367.991 156.844 368.427 156.2 368.744C155.561 369.062 154.81 369.22 153.949 369.22ZM165.346 369.22C164.323 369.22 163.431 368.986 162.669 368.517C161.906 368.048 161.314 367.393 160.893 366.55C160.472 365.707 160.261 364.722 160.261 363.595C160.261 362.464 160.472 361.474 160.893 360.626C161.314 359.779 161.906 359.121 162.669 358.652C163.431 358.183 164.323 357.949 165.346 357.949C166.369 357.949 167.261 358.183 168.024 358.652C168.786 359.121 169.378 359.779 169.799 360.626C170.221 361.474 170.431 362.464 170.431 363.595C170.431 364.722 170.221 365.707 169.799 366.55C169.378 367.393 168.786 368.048 168.024 368.517C167.261 368.986 166.369 369.22 165.346 369.22ZM165.353 367.438C166.016 367.438 166.565 367.262 167.001 366.912C167.437 366.562 167.759 366.095 167.967 365.513C168.18 364.93 168.287 364.289 168.287 363.588C168.287 362.892 168.18 362.253 167.967 361.67C167.759 361.083 167.437 360.612 167.001 360.257C166.565 359.902 166.016 359.724 165.353 359.724C164.686 359.724 164.132 359.902 163.691 360.257C163.256 360.612 162.931 361.083 162.718 361.67C162.51 362.253 162.406 362.892 162.406 363.588C162.406 364.289 162.51 364.93 162.718 365.513C162.931 366.095 163.256 366.562 163.691 366.912C164.132 367.262 164.686 367.438 165.353 367.438ZM164.473 356.635L166.135 353.361H168.372L166.17 356.635H164.473ZM180.148 365.3L180.134 362.707H180.503L184.85 358.091H187.392L182.435 363.347H182.101L180.148 365.3ZM178.195 369V354.455H180.318V369H178.195ZM185.084 369L181.178 363.815L182.641 362.331L187.69 369H185.084ZM193.63 369.22C192.555 369.22 191.63 368.991 190.853 368.531C190.081 368.067 189.485 367.416 189.063 366.578C188.647 365.735 188.438 364.748 188.438 363.616C188.438 362.499 188.647 361.514 189.063 360.662C189.485 359.81 190.072 359.144 190.825 358.666C191.582 358.188 192.468 357.949 193.481 357.949C194.096 357.949 194.693 358.051 195.271 358.254C195.848 358.458 196.367 358.777 196.826 359.213C197.285 359.649 197.648 360.214 197.913 360.911C198.178 361.602 198.31 362.442 198.31 363.432V364.185H189.639V362.594H196.229C196.229 362.035 196.116 361.54 195.889 361.109C195.661 360.674 195.342 360.33 194.93 360.08C194.523 359.829 194.044 359.703 193.495 359.703C192.899 359.703 192.378 359.85 191.933 360.143C191.492 360.432 191.151 360.811 190.91 361.28C190.673 361.744 190.555 362.248 190.555 362.793V364.036C190.555 364.765 190.683 365.385 190.938 365.896C191.199 366.408 191.561 366.798 192.025 367.068C192.489 367.333 193.031 367.466 193.651 367.466C194.054 367.466 194.421 367.409 194.752 367.295C195.084 367.177 195.37 367.002 195.612 366.77C195.853 366.538 196.038 366.251 196.166 365.911L198.175 366.273C198.015 366.865 197.726 367.383 197.309 367.828C196.897 368.268 196.379 368.612 195.754 368.858C195.133 369.099 194.425 369.22 193.63 369.22ZM189.724 356.784L192.607 354.32H194.191L197.082 356.784H194.994L193.417 355.378L191.826 356.784H189.724ZM196.322 355.207L197.806 352.615H199.972L197.877 355.207H196.322ZM205.809 358.091V359.795H199.85V358.091H205.809ZM201.448 355.477H203.572V365.797C203.572 366.209 203.633 366.519 203.756 366.727C203.879 366.931 204.038 367.071 204.232 367.146C204.431 367.217 204.647 367.253 204.879 367.253C205.049 367.253 205.198 367.241 205.326 367.217C205.454 367.194 205.553 367.175 205.624 367.161L206.008 368.915C205.885 368.962 205.71 369.009 205.482 369.057C205.255 369.109 204.971 369.137 204.63 369.142C204.071 369.152 203.55 369.052 203.067 368.844C202.585 368.635 202.194 368.313 201.896 367.878C201.597 367.442 201.448 366.895 201.448 366.237V355.477ZM220.916 373.091V367.303H220.788C220.66 367.535 220.476 367.8 220.234 368.098C219.997 368.396 219.671 368.657 219.254 368.879C218.837 369.102 218.298 369.213 217.635 369.213C216.754 369.213 215.968 368.988 215.277 368.538C214.59 368.084 214.051 367.437 213.658 366.599C213.269 365.757 213.075 364.746 213.075 363.567C213.075 362.388 213.272 361.379 213.665 360.541C214.062 359.703 214.607 359.062 215.298 358.616C215.989 358.171 216.773 357.949 217.649 357.949C218.326 357.949 218.871 358.062 219.283 358.29C219.699 358.512 220.021 358.773 220.248 359.071C220.48 359.369 220.66 359.632 220.788 359.859H220.966V358.091H223.04V373.091H220.916ZM218.104 367.402C218.714 367.402 219.23 367.241 219.652 366.919C220.078 366.592 220.4 366.14 220.618 365.562C220.84 364.985 220.952 364.312 220.952 363.545C220.952 362.788 220.843 362.125 220.625 361.557C220.407 360.989 220.087 360.546 219.666 360.229C219.245 359.911 218.724 359.753 218.104 359.753C217.464 359.753 216.932 359.919 216.506 360.25C216.079 360.581 215.757 361.034 215.54 361.607C215.327 362.179 215.22 362.826 215.22 363.545C215.22 364.275 215.329 364.93 215.547 365.513C215.765 366.095 216.086 366.557 216.513 366.898C216.944 367.234 217.474 367.402 218.104 367.402ZM232.855 364.476V358.091H234.986V369H232.898V367.111H232.784C232.533 367.693 232.131 368.179 231.577 368.567C231.028 368.95 230.343 369.142 229.524 369.142C228.824 369.142 228.203 368.988 227.663 368.68C227.128 368.368 226.707 367.906 226.399 367.295C226.096 366.685 225.945 365.929 225.945 365.03V358.091H228.068V364.774C228.068 365.518 228.274 366.109 228.686 366.55C229.098 366.99 229.633 367.21 230.291 367.21C230.689 367.21 231.084 367.111 231.477 366.912C231.875 366.713 232.204 366.412 232.465 366.01C232.73 365.607 232.86 365.096 232.855 364.476ZM241.064 369.241C240.373 369.241 239.748 369.114 239.189 368.858C238.63 368.598 238.188 368.221 237.861 367.729C237.539 367.236 237.378 366.633 237.378 365.918C237.378 365.302 237.496 364.795 237.733 364.398C237.97 364 238.289 363.685 238.692 363.453C239.094 363.221 239.544 363.046 240.041 362.928C240.538 362.809 241.045 362.719 241.561 362.658C242.215 362.582 242.745 362.52 243.152 362.473C243.559 362.421 243.855 362.338 244.04 362.224C244.224 362.111 244.317 361.926 244.317 361.67V361.621C244.317 361 244.142 360.52 243.791 360.179C243.446 359.838 242.93 359.668 242.243 359.668C241.528 359.668 240.965 359.826 240.553 360.143C240.145 360.456 239.864 360.804 239.707 361.188L237.712 360.733C237.948 360.07 238.294 359.535 238.749 359.128C239.208 358.716 239.736 358.418 240.332 358.233C240.929 358.044 241.556 357.949 242.215 357.949C242.65 357.949 243.112 358.001 243.6 358.105C244.092 358.205 244.551 358.389 244.977 358.659C245.408 358.929 245.761 359.315 246.036 359.817C246.31 360.314 246.448 360.96 246.448 361.756V369H244.374V367.509H244.288C244.151 367.783 243.945 368.053 243.671 368.318C243.396 368.583 243.043 368.804 242.612 368.979C242.181 369.154 241.665 369.241 241.064 369.241ZM241.526 367.537C242.113 367.537 242.615 367.421 243.031 367.189C243.453 366.957 243.772 366.654 243.99 366.28C244.213 365.901 244.324 365.496 244.324 365.065V363.659C244.248 363.735 244.101 363.806 243.884 363.872C243.671 363.934 243.427 363.988 243.152 364.036C242.877 364.078 242.61 364.118 242.35 364.156C242.089 364.189 241.871 364.218 241.696 364.241C241.284 364.294 240.908 364.381 240.567 364.504C240.231 364.627 239.961 364.805 239.757 365.037C239.558 365.264 239.459 365.567 239.459 365.946C239.459 366.472 239.653 366.869 240.041 367.139C240.43 367.404 240.924 367.537 241.526 367.537ZM243.195 356.585H241.519L241.462 355.136C241.964 355.113 242.319 355.046 242.527 354.938C242.735 354.824 242.837 354.661 242.832 354.447C242.837 354.192 242.693 354.009 242.399 353.901C242.11 353.792 241.758 353.737 241.341 353.737L241.405 352.565C242.48 352.565 243.294 352.736 243.848 353.077C244.407 353.418 244.684 353.877 244.679 354.455C244.684 354.923 244.53 355.269 244.217 355.491C243.91 355.709 243.569 355.847 243.195 355.903V356.585ZM259.761 358.091V359.795H253.802V358.091H259.761ZM255.401 355.477H257.524V365.797C257.524 366.209 257.586 366.519 257.709 366.727C257.832 366.931 257.99 367.071 258.185 367.146C258.383 367.217 258.599 367.253 258.831 367.253C259.001 367.253 259.151 367.241 259.278 367.217C259.406 367.194 259.506 367.175 259.577 367.161L259.96 368.915C259.837 368.962 259.662 369.009 259.435 369.057C259.207 369.109 258.923 369.137 258.582 369.142C258.024 369.152 257.503 369.052 257.02 368.844C256.537 368.635 256.146 368.313 255.848 367.878C255.55 367.442 255.401 366.895 255.401 366.237V355.477ZM262.16 369V358.091H264.284V369H262.16ZM262.409 356.635L260.214 353.361H262.452L264.106 356.635H262.409ZM267.191 369V358.091H269.229V359.866H269.364C269.591 359.265 269.963 358.796 270.479 358.46C270.995 358.119 271.613 357.949 272.333 357.949C273.062 357.949 273.673 358.119 274.165 358.46C274.662 358.801 275.029 359.27 275.266 359.866H275.38C275.64 359.284 276.054 358.82 276.623 358.474C277.191 358.124 277.868 357.949 278.654 357.949C279.643 357.949 280.451 358.259 281.076 358.879C281.706 359.5 282.02 360.435 282.02 361.685V369H279.897V361.884C279.897 361.145 279.696 360.61 279.293 360.278C278.891 359.947 278.41 359.781 277.851 359.781C277.16 359.781 276.623 359.994 276.239 360.42C275.856 360.842 275.664 361.384 275.664 362.047V369H273.547V361.749C273.547 361.157 273.363 360.681 272.993 360.321C272.624 359.961 272.143 359.781 271.552 359.781C271.149 359.781 270.777 359.888 270.437 360.101C270.1 360.309 269.828 360.6 269.62 360.974C269.416 361.348 269.314 361.782 269.314 362.274V369H267.191ZM292.213 365.3L292.199 362.707H292.568L296.914 358.091H299.457L294.5 363.347H294.166L292.213 365.3ZM290.26 369V354.455H292.383V369H290.26ZM297.149 369L293.243 363.815L294.706 362.331L299.755 369H297.149ZM301.442 369V358.091H303.566V369H301.442ZM302.515 356.408C302.146 356.408 301.828 356.285 301.563 356.038C301.303 355.787 301.173 355.489 301.173 355.143C301.173 354.793 301.303 354.495 301.563 354.249C301.828 353.998 302.146 353.872 302.515 353.872C302.884 353.872 303.199 353.998 303.459 354.249C303.725 354.495 303.857 354.793 303.857 355.143C303.857 355.489 303.725 355.787 303.459 356.038C303.199 356.285 302.884 356.408 302.515 356.408ZM311.175 369.22C310.1 369.22 309.174 368.991 308.398 368.531C307.626 368.067 307.029 367.416 306.608 366.578C306.191 365.735 305.983 364.748 305.983 363.616C305.983 362.499 306.191 361.514 306.608 360.662C307.029 359.81 307.616 359.144 308.369 358.666C309.127 358.188 310.012 357.949 311.025 357.949C311.641 357.949 312.238 358.051 312.815 358.254C313.393 358.458 313.911 358.777 314.371 359.213C314.83 359.649 315.192 360.214 315.457 360.911C315.722 361.602 315.855 362.442 315.855 363.432V364.185H307.183V362.594H313.774C313.774 362.035 313.66 361.54 313.433 361.109C313.206 360.674 312.886 360.33 312.474 360.08C312.067 359.829 311.589 359.703 311.04 359.703C310.443 359.703 309.922 359.85 309.477 360.143C309.037 360.432 308.696 360.811 308.454 361.28C308.218 361.744 308.099 362.248 308.099 362.793V364.036C308.099 364.765 308.227 365.385 308.483 365.896C308.743 366.408 309.105 366.798 309.569 367.068C310.033 367.333 310.576 367.466 311.196 367.466C311.598 367.466 311.965 367.409 312.297 367.295C312.628 367.177 312.915 367.002 313.156 366.77C313.398 366.538 313.582 366.251 313.71 365.911L315.72 366.273C315.559 366.865 315.27 367.383 314.854 367.828C314.442 368.268 313.923 368.612 313.298 368.858C312.678 369.099 311.97 369.22 311.175 369.22ZM307.268 356.784L310.152 354.32H311.736L314.626 356.784H312.538L310.961 355.378L309.371 356.784H307.268ZM313.866 355.207L315.351 352.615H317.517L315.422 355.207H313.866ZM318.261 369V358.091H320.299V359.866H320.434C320.662 359.265 321.033 358.796 321.549 358.46C322.066 358.119 322.683 357.949 323.403 357.949C324.132 357.949 324.743 358.119 325.236 358.46C325.733 358.801 326.1 359.27 326.336 359.866H326.45C326.71 359.284 327.125 358.82 327.693 358.474C328.261 358.124 328.938 357.949 329.724 357.949C330.714 357.949 331.521 358.259 332.146 358.879C332.776 359.5 333.091 360.435 333.091 361.685V369H330.967V361.884C330.967 361.145 330.766 360.61 330.363 360.278C329.961 359.947 329.48 359.781 328.922 359.781C328.23 359.781 327.693 359.994 327.309 360.42C326.926 360.842 326.734 361.384 326.734 362.047V369H324.618V361.749C324.618 361.157 324.433 360.681 324.064 360.321C323.694 359.961 323.214 359.781 322.622 359.781C322.219 359.781 321.848 359.888 321.507 360.101C321.171 360.309 320.898 360.6 320.69 360.974C320.487 361.348 320.385 361.782 320.385 362.274V369H318.261ZM341.33 373.091V358.091H343.404V359.859H343.581C343.704 359.632 343.882 359.369 344.114 359.071C344.346 358.773 344.668 358.512 345.08 358.29C345.492 358.062 346.036 357.949 346.713 357.949C347.594 357.949 348.38 358.171 349.071 358.616C349.763 359.062 350.305 359.703 350.698 360.541C351.096 361.379 351.294 362.388 351.294 363.567C351.294 364.746 351.098 365.757 350.705 366.599C350.312 367.437 349.772 368.084 349.086 368.538C348.399 368.988 347.615 369.213 346.735 369.213C346.072 369.213 345.53 369.102 345.108 368.879C344.692 368.657 344.365 368.396 344.128 368.098C343.891 367.8 343.709 367.535 343.581 367.303H343.453V373.091H341.33ZM343.411 363.545C343.411 364.312 343.522 364.985 343.745 365.562C343.967 366.14 344.289 366.592 344.711 366.919C345.132 367.241 345.648 367.402 346.259 367.402C346.893 367.402 347.424 367.234 347.85 366.898C348.276 366.557 348.598 366.095 348.816 365.513C349.038 364.93 349.15 364.275 349.15 363.545C349.15 362.826 349.041 362.179 348.823 361.607C348.61 361.034 348.288 360.581 347.857 360.25C347.431 359.919 346.898 359.753 346.259 359.753C345.643 359.753 345.123 359.911 344.696 360.229C344.275 360.546 343.955 360.989 343.738 361.557C343.52 362.125 343.411 362.788 343.411 363.545ZM355.847 362.523V369H353.724V354.455H355.819V359.866H355.954C356.209 359.279 356.6 358.813 357.126 358.467C357.651 358.122 358.338 357.949 359.185 357.949C359.933 357.949 360.587 358.103 361.146 358.411C361.709 358.718 362.145 359.178 362.452 359.788C362.765 360.394 362.921 361.152 362.921 362.061V369H360.798V362.317C360.798 361.517 360.592 360.896 360.18 360.456C359.768 360.011 359.195 359.788 358.461 359.788C357.959 359.788 357.509 359.895 357.111 360.108C356.718 360.321 356.408 360.634 356.181 361.045C355.958 361.453 355.847 361.945 355.847 362.523ZM372.715 364.476V358.091H374.846V369H372.758V367.111H372.644C372.393 367.693 371.991 368.179 371.437 368.567C370.888 368.95 370.204 369.142 369.384 369.142C368.684 369.142 368.063 368.988 367.524 368.68C366.989 368.368 366.567 367.906 366.259 367.295C365.956 366.685 365.805 365.929 365.805 365.03V358.091H367.928V364.774C367.928 365.518 368.134 366.109 368.546 366.55C368.958 366.99 369.493 367.21 370.151 367.21C370.549 367.21 370.945 367.111 371.338 366.912C371.735 366.713 372.064 366.412 372.325 366.01C372.59 365.607 372.72 365.096 372.715 364.476ZM369.512 356.635L367.318 353.361H369.555L371.21 356.635H369.512ZM385.216 362.523V369H383.092V354.455H385.188V359.866H385.323C385.578 359.279 385.969 358.813 386.494 358.467C387.02 358.122 387.707 357.949 388.554 357.949C389.302 357.949 389.956 358.103 390.514 358.411C391.078 358.718 391.513 359.178 391.821 359.788C392.134 360.394 392.29 361.152 392.29 362.061V369H390.166V362.317C390.166 361.517 389.96 360.896 389.548 360.456C389.136 360.011 388.564 359.788 387.83 359.788C387.328 359.788 386.878 359.895 386.48 360.108C386.087 360.321 385.777 360.634 385.55 361.045C385.327 361.453 385.216 361.945 385.216 362.523ZM404.293 357.331H405.934C405.934 358.448 405.68 359.331 405.174 359.98C404.672 360.624 403.815 360.946 402.603 360.946V359.753C403.086 359.753 403.448 359.653 403.689 359.455C403.931 359.251 404.092 358.969 404.172 358.609C404.253 358.245 404.293 357.819 404.293 357.331ZM399.769 369.22C398.746 369.22 397.854 368.986 397.091 368.517C396.329 368.048 395.737 367.393 395.316 366.55C394.894 365.707 394.684 364.722 394.684 363.595C394.684 362.464 394.894 361.474 395.316 360.626C395.737 359.779 396.329 359.121 397.091 358.652C397.854 358.183 398.746 357.949 399.769 357.949C400.792 357.949 401.684 358.183 402.446 358.652C403.209 359.121 403.801 359.779 404.222 360.626C404.643 361.474 404.854 362.464 404.854 363.595C404.854 364.722 404.643 365.707 404.222 366.55C403.801 367.393 403.209 368.048 402.446 368.517C401.684 368.986 400.792 369.22 399.769 369.22ZM399.776 367.438C400.439 367.438 400.988 367.262 401.424 366.912C401.859 366.562 402.181 366.095 402.39 365.513C402.603 364.93 402.709 364.289 402.709 363.588C402.709 362.892 402.603 362.253 402.39 361.67C402.181 361.083 401.859 360.612 401.424 360.257C400.988 359.902 400.439 359.724 399.776 359.724C399.108 359.724 398.554 359.902 398.114 360.257C397.678 360.612 397.354 361.083 397.141 361.67C396.933 362.253 396.828 362.892 396.828 363.588C396.828 364.289 396.933 364.93 397.141 365.513C397.354 366.095 397.678 366.562 398.114 366.912C398.554 367.262 399.108 367.438 399.776 367.438ZM399.769 372.764C399.404 372.764 399.089 372.641 398.824 372.395C398.559 372.149 398.426 371.85 398.426 371.5C398.426 371.15 398.559 370.851 398.824 370.605C399.089 370.359 399.404 370.236 399.769 370.236C400.138 370.236 400.453 370.359 400.713 370.605C400.979 370.851 401.111 371.15 401.111 371.5C401.111 371.85 400.979 372.149 400.713 372.395C400.453 372.641 400.138 372.764 399.769 372.764ZM407.411 373.091V358.091H409.485V359.859H409.663C409.786 359.632 409.963 359.369 410.195 359.071C410.427 358.773 410.749 358.512 411.161 358.29C411.573 358.062 412.118 357.949 412.795 357.949C413.675 357.949 414.461 358.171 415.153 358.616C415.844 359.062 416.386 359.703 416.779 360.541C417.177 361.379 417.376 362.388 417.376 363.567C417.376 364.746 417.179 365.757 416.786 366.599C416.393 367.437 415.853 368.084 415.167 368.538C414.48 368.988 413.697 369.213 412.816 369.213C412.153 369.213 411.611 369.102 411.19 368.879C410.773 368.657 410.446 368.396 410.209 368.098C409.973 367.8 409.79 367.535 409.663 367.303H409.535V373.091H407.411ZM409.492 363.545C409.492 364.312 409.603 364.985 409.826 365.562C410.048 366.14 410.37 366.592 410.792 366.919C411.213 367.241 411.729 367.402 412.34 367.402C412.975 367.402 413.505 367.234 413.931 366.898C414.357 366.557 414.679 366.095 414.897 365.513C415.119 364.93 415.231 364.275 415.231 363.545C415.231 362.826 415.122 362.179 414.904 361.607C414.691 361.034 414.369 360.581 413.938 360.25C413.512 359.919 412.979 359.753 412.34 359.753C411.725 359.753 411.204 359.911 410.778 360.229C410.356 360.546 410.037 360.989 409.819 361.557C409.601 362.125 409.492 362.788 409.492 363.545Z" fill="#B3B3B3"/>
<defs>
<linearGradient id="paint0_linear_297_16247" x1="347.887" y1="171.584" x2="347.887" y2="97.5422" gradientUnits="userSpaceOnUse">
<stop stop-color="white" stop-opacity="0.2"/>
<stop offset="0.6741" stop-color="white" stop-opacity="0.6265"/>
<stop offset="0.7903" stop-color="white" stop-opacity="0.7"/>
</linearGradient>
<linearGradient id="paint1_linear_297_16247" x1="370.753" y1="171.584" x2="370.753" y2="97.5422" gradientUnits="userSpaceOnUse">
<stop stop-color="white" stop-opacity="0.2"/>
<stop offset="0.6741" stop-color="white" stop-opacity="0.6265"/>
<stop offset="0.7903" stop-color="white" stop-opacity="0.7"/>
</linearGradient>
<clipPath id="clip0_297_16247">
<rect width="499" height="329.844" fill="white" transform="translate(0 0.656738)"/>
</clipPath>
</defs>
</svg>
