<svg width="537" height="476" viewBox="0 0 537 476" fill="none" xmlns="http://www.w3.org/2000/svg">
<g clip-path="url(#clip0_321_36596)">
<path d="M390.89 59.4786C359.867 59.4786 331.412 70.1762 308.84 88.0412C279.528 64.9344 242.514 51.2415 202.292 51.2415C106.976 51.2415 29.7394 128.478 29.7394 223.794C29.7394 319.109 106.976 396.346 202.292 396.346C263.268 396.346 316.863 364.681 347.565 316.97C361.151 321.677 375.807 324.244 390.997 324.244C464.062 324.244 523.433 264.979 523.433 191.808C523.326 118.743 464.062 59.4786 390.89 59.4786Z" fill="#CDDBF0"/>
<path opacity="0.3" d="M420.95 227.324C419.346 226.682 417.741 226.254 416.136 226.147C416.029 226.147 416.029 226.147 415.922 226.147C415.388 226.147 414.96 226.04 414.425 226.04C414.318 226.04 414.318 226.04 414.211 226.04C413.676 226.04 413.248 226.04 412.713 226.04H412.606C412.499 226.04 412.285 226.04 412.178 226.04L413.89 221.868C417.741 212.775 398.271 195.873 370.351 184.106C367.034 182.715 363.825 181.431 360.616 180.361C359.439 175.013 358.155 170.306 355.267 169.664C351.63 168.808 350.988 174.157 350.881 177.366C350.346 177.152 349.704 177.045 349.169 176.938C348.207 175.12 347.244 172.552 347.03 169.557C346.709 163.566 348.956 154.152 343.393 151.478C337.83 148.804 336.974 155.65 334.193 157.79C331.411 159.929 330.342 154.259 329.379 148.269C328.523 142.171 327.667 134.255 321.249 135.004C314.83 135.752 315.044 150.301 316.328 163.566C316.756 167.845 317.505 171.803 318.253 175.12C315.579 176.082 313.653 177.473 312.798 179.506L310.444 185.175C298.677 213.096 311.835 245.189 339.649 256.849C351.095 261.663 363.183 262.305 374.309 259.417C374.416 259.417 374.523 259.524 374.63 259.524C374.737 259.524 374.737 259.524 374.844 259.631C374.951 259.631 375.165 259.738 375.272 259.738C375.379 259.738 375.486 259.738 375.486 259.845C375.699 259.845 375.806 259.952 376.02 259.952C376.127 259.952 376.127 259.952 376.234 260.059C376.555 260.165 376.769 260.165 377.09 260.272C377.09 260.272 377.197 260.272 377.304 260.272C377.518 260.379 377.839 260.379 378.053 260.486C378.16 260.486 378.267 260.593 378.374 260.593C378.588 260.7 378.802 260.7 379.016 260.807C379.123 260.807 379.23 260.914 379.337 260.914C379.551 261.021 379.872 261.021 380.086 261.128C380.192 261.128 380.299 261.128 380.406 261.235C380.727 261.342 381.155 261.449 381.476 261.449C389.285 263.161 400.839 264.872 411.002 263.054C420.308 261.342 428.653 252.249 429.722 242.835C430.899 235.882 427.476 230.105 420.95 227.324ZM409.718 253.533C405.653 254.282 401.16 254.282 396.881 253.961C396.239 253.961 395.597 253.854 394.955 253.747C394.848 253.747 394.741 253.747 394.634 253.747C394.099 253.64 393.564 253.64 392.923 253.533C392.816 253.533 392.816 253.533 392.709 253.533C392.067 253.426 391.532 253.319 390.89 253.319C390.783 253.319 390.676 253.319 390.676 253.319C390.355 253.212 390.034 253.212 389.606 253.105C396.132 249.147 401.802 243.798 406.295 237.273C406.402 237.273 406.402 237.166 406.509 237.166C407.257 236.845 408.006 236.631 408.862 236.31C408.969 236.31 408.969 236.31 409.076 236.203C409.932 235.989 410.895 235.775 411.75 235.668C411.857 235.668 411.857 235.668 411.964 235.668C412.392 235.561 412.927 235.561 413.355 235.561C414.746 235.561 416.029 235.668 417.206 236.203C419.881 237.273 420.843 238.984 420.522 241.766C420.095 246.473 415.281 252.57 409.718 253.533Z" fill="#403867"/>
<path opacity="0.3" d="M460.317 270.328H403.834C399.127 270.328 395.276 274.179 395.276 278.886V307.021C395.276 311.728 399.127 315.579 403.834 315.579H409.183V326.063L419.667 315.579H460.317C465.024 315.579 468.876 311.728 468.876 307.021V278.993C468.983 274.179 465.131 270.328 460.317 270.328Z" fill="#403867"/>
<path opacity="0.3" d="M205.715 74.6692H163.138C160.357 74.6692 158.003 76.9157 158.003 79.804V109.222C158.003 112.004 160.25 114.357 163.138 114.357H179.72L184.426 122.594L189.133 114.357H205.715C208.496 114.357 210.85 112.111 210.85 109.222V79.804C210.743 76.9157 208.496 74.6692 205.715 74.6692Z" fill="#403867"/>
<path opacity="0.3" d="M440.848 235.24L269.793 220.156C266.905 219.942 264.765 217.375 264.979 214.38L275.356 96.4922C275.57 93.6039 278.137 91.4644 281.133 91.6783L452.187 106.762C455.076 106.976 457.215 109.543 457.001 112.539L446.625 230.426C446.304 233.314 443.736 235.454 440.848 235.24Z" fill="#403867"/>
<path opacity="0.3" d="M76.1669 195.873L233.742 139.176C236.738 138.106 240.161 139.604 241.338 142.599L282.951 245.296C286.375 253.64 282.096 263.054 273.751 266.156L121.953 321.784C112.432 325.314 101.841 320.928 97.562 311.728L61.5112 235.24C59.7996 231.71 61.5112 227.538 65.1483 226.04L79.1622 220.37L72.6367 203.682C71.353 200.58 72.9576 197.05 76.1669 195.873Z" fill="#403867"/>
<path opacity="0.3" d="M144.632 330.128C149.552 329.272 162.924 330.128 171.803 336.225C180.682 342.323 185.603 357.728 185.603 357.728C185.603 357.728 190.524 338.793 173.943 318.146C157.362 297.5 128.371 302.956 128.371 302.956C128.371 302.956 112.539 269.579 89.218 270.328C65.6833 271.184 55.0927 281.347 55.0927 281.347C55.0927 281.347 70.3903 276.961 72.2089 282.737C74.0274 288.407 66.6461 288.407 59.1578 288.3C51.6695 288.193 38.5114 292.686 31.558 300.923C24.6046 309.16 19.3628 322.532 19.3628 322.532C19.3628 322.532 35.837 307.342 57.1252 307.235C78.4135 307.128 82.9064 316.97 82.9064 319.644C82.9064 322.319 69.9624 315.793 47.4974 319.751C24.6046 323.816 21.7162 329.058 19.2558 331.625C16.9023 334.193 14.1209 343.286 13.5861 350.774C12.9442 358.262 13.5861 364.467 13.5861 364.467C13.5861 364.467 23.7488 349.597 40.7579 347.779C57.7671 345.96 63.2229 353.769 62.688 356.016C62.0461 358.262 52.5253 354.197 36.4789 359.011C23.9627 362.755 15.9395 373.881 14.8698 375.7C13.8 377.518 15.1907 383.83 17.1163 389.392C19.0418 394.955 22.786 400.197 22.786 400.197C22.786 400.197 28.1348 391.318 36.158 389.499C44.0742 387.681 45.8928 390.676 45.4649 394.741C45.037 398.806 35.5161 395.49 30.8092 403.192C25.9953 410.895 27.172 414.104 30.1673 421.806C33.1626 429.508 31.3441 437.211 31.3441 437.211C31.3441 437.211 39.9021 433.574 46.6416 435.071C53.3811 436.569 59.0508 439.671 61.1903 437.211C63.3298 434.643 62.795 426.406 60.8694 420.415C58.9438 414.425 65.1484 407.685 68.6786 414.853C72.2088 422.02 73.9205 430.792 72.7437 434.857C71.567 438.922 70.7112 439.671 70.8182 440.527C70.8182 441.383 89.111 443.522 97.0273 439.778C104.943 436.034 104.73 427.69 103.981 421.806C103.232 415.922 97.0273 397.737 93.4971 391.532C90.0738 385.434 90.3948 379.658 95.4226 380.727C100.557 381.797 114.678 403.727 116.39 417.527C118.529 434.536 114.999 436.997 114.999 436.997C114.999 436.997 125.697 437.639 134.683 432.504C143.669 427.369 147.627 425.336 148.804 416.885C149.98 408.434 151.478 391.96 138.32 373.667C125.162 355.374 119.385 350.881 117.032 347.565C114.678 344.249 128.05 342.43 137.464 352.7C146.878 362.862 155.757 374.951 158.431 389.606C161.106 404.262 160.785 413.034 160.785 413.034C160.785 413.034 174.264 398.378 176.938 385.434C179.613 372.49 177.58 359.76 169.45 350.667C161.32 341.467 151.906 336.76 146.45 335.37C141.315 333.979 139.711 330.984 144.632 330.128ZM152.334 311.514C158.004 311.407 160.25 316.007 159.073 318.253C158.004 320.5 150.622 318.253 150.622 318.253C145.487 317.719 143.027 318.253 142.92 316.114C142.92 314.081 146.771 311.621 152.334 311.514ZM102.162 295.788C98.7389 297.607 89.218 296.43 85.5808 291.937C81.8367 287.444 87.5064 285.733 92.2133 286.161C96.9203 286.589 102.162 290.333 102.162 290.333C104.73 291.83 105.585 293.97 102.162 295.788Z" fill="#403867"/>
<path d="M140.994 325.635C145.915 324.779 159.287 325.635 168.166 331.732C177.045 337.83 181.966 353.235 181.966 353.235C181.966 353.235 186.887 334.3 170.306 313.653C153.617 293.114 124.627 298.463 124.627 298.463C124.627 298.463 108.795 265.086 85.4738 265.835C62.0461 266.584 51.4555 276.854 51.4555 276.854C51.4555 276.854 66.7531 272.468 68.5716 278.244C70.3902 283.914 63.0089 283.914 55.5206 283.807C48.0323 283.7 34.8742 288.193 27.9208 296.43C21.0743 304.667 15.7255 318.039 15.7255 318.039C15.7255 318.039 32.1998 302.849 53.488 302.742C74.7762 302.635 79.2692 312.477 79.2692 315.151C79.2692 317.825 66.3251 311.3 43.8602 315.258C20.9674 319.323 18.079 324.565 15.6186 327.132C13.2651 329.7 10.4837 338.793 9.94884 346.281C9.30699 353.769 9.94884 359.974 9.94884 359.974C9.94884 359.974 20.1116 345.104 37.1207 343.286C54.0229 341.467 59.5857 349.276 59.0508 351.523C58.4089 353.769 48.8881 349.704 32.8417 354.518C20.3255 358.262 12.3023 369.388 11.2326 371.206C10.1628 373.025 11.5535 379.337 13.479 384.899C15.4046 390.462 19.1488 395.704 19.1488 395.704C19.1488 395.704 24.4976 386.825 32.5208 385.006C40.437 383.188 42.2556 386.183 41.8277 390.248C41.3998 394.313 31.8789 390.997 27.172 398.699C22.358 406.402 23.5348 409.611 26.5301 417.313C29.5254 425.015 27.7068 432.718 27.7068 432.718C27.7068 432.718 36.2649 429.08 43.0044 430.578C49.7439 432.076 55.4136 435.178 57.5531 432.718C59.6926 430.15 59.1578 421.913 57.2322 415.922C55.3066 409.932 61.5112 403.192 65.0414 410.36C68.5716 417.527 70.2833 426.299 69.1065 430.364C67.9298 434.429 67.074 435.178 67.181 436.034C67.181 436.89 85.4738 439.029 93.3901 435.285C101.306 431.541 101.092 423.197 100.343 417.313C99.5947 411.429 93.3901 393.243 89.8598 387.039C86.4366 380.941 86.7576 375.165 91.7854 376.234C96.9203 377.304 111.041 399.234 112.753 413.034C114.892 430.043 111.362 432.504 111.362 432.504C111.362 432.504 122.06 433.146 131.046 428.011C140.032 422.876 143.99 420.843 145.166 412.392C146.343 403.941 147.841 387.467 134.683 369.174C121.525 350.881 115.748 346.388 113.395 343.072C111.041 339.756 124.413 337.937 133.827 348.207C143.241 358.369 152.12 370.458 154.794 385.113C157.469 399.769 157.148 408.541 157.148 408.541C157.148 408.541 170.627 393.885 173.301 380.941C175.975 367.997 173.943 355.267 165.813 346.174C157.683 336.974 148.269 332.267 142.813 330.877C137.678 329.486 136.073 326.491 140.994 325.635ZM148.804 307.021C154.473 306.914 156.72 311.514 155.543 313.76C154.473 316.007 147.092 313.76 147.092 313.76C141.957 313.225 139.497 313.76 139.39 311.621C139.283 309.588 143.134 307.128 148.804 307.021ZM98.5249 291.295C95.1017 293.114 85.5808 291.937 81.9436 287.444C78.1995 282.951 83.8692 281.24 88.5761 281.668C93.2831 282.095 98.5249 285.84 98.5249 285.84C101.092 287.337 101.948 289.477 98.5249 291.295Z" fill="#7BA859"/>
<path d="M125.162 293.328C125.162 293.328 104.516 314.295 83.8692 344.356C63.2229 374.309 27.8138 432.718 27.8138 432.718C27.8138 432.718 77.0228 359.118 90.9296 341.681C104.837 324.244 129.869 296.537 129.869 296.537L125.162 293.328Z" fill="#3D5539"/>
<path opacity="0.3" d="M3.20931 150.836L73.4925 66.9668C80.125 59.0506 92.9621 61.2971 96.4923 71.0319L134.041 173.836C137.571 183.571 129.227 193.519 119.064 191.808L11.1255 172.766C0.962816 170.947 -3.53017 158.752 3.20931 150.836Z" fill="#403867"/>
<path d="M8.986 145.166L79.2692 61.2972C85.9017 53.3809 98.7388 55.6274 102.269 65.3622L139.818 168.166C143.348 177.901 135.004 187.85 124.841 186.138L17.0092 167.203C6.7395 165.385 2.24651 153.189 8.986 145.166Z" fill="#545172"/>
<path d="M89.8598 68.4645C90.7156 68.5715 90.9295 69.2134 91.0365 69.4273L128.585 172.231C128.692 172.445 128.906 173.087 128.371 173.729C127.836 174.371 127.194 174.264 126.98 174.264L19.0417 155.329C18.8277 155.329 18.1859 155.222 17.865 154.366C17.544 153.51 17.9719 153.082 18.0789 152.869L88.3621 68.9994C88.576 68.7854 89.004 68.3575 89.8598 68.4645Z" fill="#FFC672"/>
<path d="M82.3715 136.608L73.7065 135.111C71.46 134.683 69.9623 132.65 70.2832 130.404L73.9204 103.339C74.6692 97.8829 79.8041 94.1387 85.2599 95.1015C90.7156 96.0643 94.2458 101.306 93.0691 106.762L87.2924 133.506C86.7575 135.538 84.618 137.036 82.3715 136.608Z" fill="#545172"/>
<path d="M84.19 149.552C83.3342 154.152 78.9482 157.255 74.3483 156.399C69.7483 155.543 66.646 151.157 67.5018 146.557C68.3576 141.957 72.7436 138.855 77.3436 139.711C81.9435 140.566 85.0458 144.952 84.19 149.552Z" fill="#545172"/>
<path d="M436.141 226.575L265.086 211.491C262.198 211.277 260.058 208.71 260.272 205.715L270.649 87.8272C270.863 84.9388 273.43 82.7993 276.426 83.0133L447.48 98.0969C450.369 98.3108 452.508 100.878 452.294 103.874L441.811 221.761C441.597 224.649 439.029 226.896 436.141 226.575Z" fill="#E7E6E9"/>
<path d="M452.187 103.981C452.401 101.092 450.262 98.5248 447.373 98.2038L276.319 83.1202C273.43 82.9063 270.863 85.0458 270.542 87.9341L269.686 97.9899L451.331 113.929L452.187 103.981Z" fill="#545172"/>
<path d="M425.122 103.981C424.908 106.334 422.876 108.046 420.522 107.832C418.169 107.618 416.457 105.585 416.671 103.232C416.885 100.878 418.918 99.1667 421.271 99.3806C423.625 99.5946 425.336 101.627 425.122 103.981Z" fill="#FFFDFF"/>
<path d="M436.783 105.05C436.569 107.404 434.536 109.115 432.183 108.901C429.829 108.687 428.118 106.655 428.332 104.301C428.546 101.948 430.578 100.236 432.932 100.45C435.285 100.664 436.997 102.697 436.783 105.05Z" fill="#FFFDFF"/>
<path d="M448.443 106.013C448.229 108.367 446.197 110.078 443.843 109.864C441.49 109.65 439.778 107.618 439.992 105.264C440.206 102.911 442.239 101.199 444.592 101.413C446.945 101.627 448.657 103.66 448.443 106.013Z" fill="#FFFDFF"/>
<path d="M375.863 133.545L280.27 125.139L275.332 181.301L370.925 189.707L375.863 133.545Z" fill="#F7C4A5"/>
<path d="M429.635 138.298L388.925 134.734L388.533 139.21L429.243 142.774L429.635 138.298Z" fill="#898192"/>
<path d="M428.667 148.669L387.958 145.105L387.566 149.581L428.275 153.145L428.667 148.669Z" fill="#898192"/>
<path d="M427.816 158.943L387.107 155.38L386.715 159.856L427.424 163.419L427.816 158.943Z" fill="#898192"/>
<path d="M426.849 169.315L386.14 165.751L385.748 170.227L426.457 173.791L426.849 169.315Z" fill="#898192"/>
<path d="M425.994 179.589L385.284 176.025L384.893 180.501L425.602 184.064L425.994 179.589Z" fill="#898192"/>
<path d="M425.036 189.854L384.327 186.29L383.935 190.766L424.644 194.329L425.036 189.854Z" fill="#898192"/>
<path d="M423.641 206.011L382.931 202.447L382.539 206.923L423.249 210.487L423.641 206.011Z" fill="#898192"/>
<path d="M422.79 216.285L382.08 212.721L381.688 217.197L422.398 220.761L422.79 216.285Z" fill="#898192"/>
<path d="M369.937 201.307L329.227 197.743L328.835 202.219L369.545 205.783L369.937 201.307Z" fill="#898192"/>
<path d="M368.979 211.572L328.269 208.008L327.877 212.484L368.587 216.048L368.979 211.572Z" fill="#898192"/>
<path d="M315.596 196.492L274.886 192.928L274.494 197.404L315.204 200.968L315.596 196.492Z" fill="#898192"/>
<path d="M314.628 206.863L273.919 203.299L273.527 207.775L314.237 211.339L314.628 206.863Z" fill="#898192"/>
<path d="M330.071 160.259C333.905 149.395 328.206 137.48 317.342 133.646C306.477 129.812 294.562 135.51 290.728 146.375C286.894 157.239 292.593 169.154 303.457 172.988C314.321 176.822 326.236 171.123 330.071 160.259Z" fill="#FF796D"/>
<path d="M360.989 161.666L314.951 157.618L313.855 170.086L359.893 174.134L360.989 161.666Z" fill="#81A6D9"/>
<path d="M319.644 156.185L334.728 134.576L345.853 158.431L319.644 156.185Z" fill="#7BA859"/>
<path opacity="0.3" d="M124.627 298.463C124.627 298.463 108.795 265.086 85.4738 265.835C84.1901 265.835 82.9063 265.942 81.7296 266.049L89.111 281.561C93.7109 282.203 98.6318 285.733 98.6318 285.733C101.199 287.337 102.055 289.477 98.6318 291.188C97.562 291.723 95.9574 292.044 94.0318 291.937L101.306 307.342C105.585 316.542 116.283 320.821 125.697 317.398L139.711 312.263C139.604 312.049 139.497 311.835 139.497 311.514C139.39 309.374 143.241 307.021 148.804 306.914C150.194 306.914 151.371 307.128 152.334 307.556L160.143 304.667C143.99 294.826 124.627 298.463 124.627 298.463Z" fill="#403867"/>
<path opacity="0.3" d="M124.734 186.138C135.004 187.957 143.348 178.008 139.711 168.166L136.18 158.538L81.0878 178.436L124.734 186.138Z" fill="#403867"/>
<path d="M79.8041 183.357L237.38 126.659C240.375 125.59 243.798 127.087 244.975 130.083L286.589 232.78C290.012 241.124 285.733 250.538 277.389 253.64L125.59 309.374C116.069 312.905 105.478 308.519 101.199 299.319L65.1484 222.831C63.4368 219.301 65.1484 215.129 68.7856 213.631L82.9064 207.961L76.3808 191.273C75.0971 188.064 76.7018 184.533 79.8041 183.357Z" fill="#FFFDFF"/>
<path d="M82.7994 207.854L68.6786 213.524C65.0414 215.022 63.4368 219.194 65.0414 222.724L101.092 299.212C102.697 302.635 105.157 305.416 108.153 307.342C123.557 304.56 114.571 282.523 114.571 282.523L82.7994 207.854Z" fill="#D0CDD3"/>
<path d="M154.261 209.381L103.063 230.02L123.702 281.218L174.9 260.579L154.261 209.381Z" fill="#81A6D9"/>
<path d="M167.528 242.334L116.33 262.973L123.65 281.13L174.848 260.491L167.528 242.334Z" fill="#BBDE95"/>
<path d="M125.162 252.784L161.855 228.18L167.524 242.301L127.408 258.454L125.162 252.784Z" fill="#3D5539"/>
<path d="M138.534 253.961L111.79 251.607L116.283 262.947L138.534 253.961Z" fill="#7BA859"/>
<path d="M130.939 235.133C132.329 238.663 130.618 242.621 127.194 244.012C123.664 245.403 119.706 243.691 118.315 240.268C116.925 236.738 118.636 232.78 122.06 231.389C125.59 229.998 129.548 231.71 130.939 235.133Z" fill="#FFC672"/>
<path d="M197.536 191.924L159.634 207.204L161.274 211.272L199.176 195.992L197.536 191.924Z" fill="#898192"/>
<path d="M201.255 201.252L163.353 216.531L164.993 220.599L202.895 205.32L201.255 201.252Z" fill="#898192"/>
<path d="M205.113 210.638L167.211 225.917L168.851 229.985L206.753 214.706L205.113 210.638Z" fill="#898192"/>
<path d="M208.872 220.064L170.97 235.343L172.61 239.411L210.512 224.132L208.872 220.064Z" fill="#898192"/>
<path d="M212.605 229.382L174.703 244.661L176.343 248.729L214.245 233.45L212.605 229.382Z" fill="#898192"/>
<path d="M216.463 238.768L178.561 254.047L180.201 258.115L218.103 242.836L216.463 238.768Z" fill="#898192"/>
<path d="M245.573 172.566L207.671 187.846L209.311 191.914L247.213 176.634L245.573 172.566Z" fill="#898192"/>
<path d="M249.293 181.893L211.39 197.172L213.03 201.24L250.932 185.961L249.293 181.893Z" fill="#898192"/>
<path d="M253.151 191.279L215.249 206.558L216.889 210.626L254.791 195.347L253.151 191.279Z" fill="#898192"/>
<path d="M256.91 200.705L219.008 215.984L220.648 220.052L258.55 204.773L256.91 200.705Z" fill="#898192"/>
<path d="M260.642 210.024L222.74 225.303L224.38 229.371L262.282 214.092L260.642 210.024Z" fill="#898192"/>
<path d="M264.501 219.41L226.599 234.689L228.239 238.757L266.141 223.478L264.501 219.41Z" fill="#898192"/>
<path d="M223.533 256.312L185.631 271.592L187.271 275.66L225.173 260.38L223.533 256.312Z" fill="#898192"/>
<path d="M166.934 279.109L129.032 294.388L130.672 298.456L168.574 283.177L166.934 279.109Z" fill="#898192"/>
<path d="M240.629 160.367L98.1488 217.804L99.7887 221.872L242.269 164.435L240.629 160.367Z" fill="#898192"/>
<path d="M271.531 236.854L233.629 252.133L235.269 256.201L273.171 240.922L271.531 236.854Z" fill="#898192"/>
<path d="M93.4971 261.021L103.767 256.849L102.055 252.784L91.8925 256.849L93.4971 261.021Z" fill="#898192"/>
<path d="M97.2412 270.328L107.725 266.156L106.013 262.091L95.6366 266.263L97.2412 270.328Z" fill="#898192"/>
<path d="M89.7529 251.607L99.8086 247.542L98.097 243.477L88.0413 247.542L89.7529 251.607Z" fill="#898192"/>
<path d="M82.1576 232.887L91.8924 228.928L90.0738 224.863L80.553 228.715L82.1576 232.887Z" fill="#898192"/>
<path d="M109.971 271.398L99.3807 275.57L101.092 279.742L111.683 275.463L109.971 271.398Z" fill="#898192"/>
<path d="M85.9018 242.193L95.8505 238.235L94.0319 234.17L84.2971 238.128L85.9018 242.193Z" fill="#898192"/>
<path opacity="0.3" d="M469.731 243.156L444.485 236.417L451.331 261.663L456.573 256.314L467.485 267.333L475.401 259.417L464.49 248.398L469.731 243.156Z" fill="#403867"/>
<path d="M472.192 235.668L446.945 228.928L453.685 254.175L458.927 248.826L469.945 259.845L477.862 251.928L466.95 240.91L472.192 235.668Z" fill="#FFFDFF"/>
<path d="M65.6833 375.165C65.6833 375.165 66.4321 375.913 67.6089 377.197C68.7856 378.588 70.4972 380.513 72.3158 382.974C74.1344 385.434 76.1669 388.43 77.9855 391.746C78.9483 393.457 79.8041 395.169 80.6599 396.988C81.5157 398.806 82.2646 400.732 82.9064 402.657C83.6553 404.583 84.1901 406.508 84.618 408.434C84.832 409.397 85.0459 410.36 85.2599 411.322C85.4738 412.285 85.5808 413.248 85.6878 414.211C85.7948 415.174 85.9018 416.136 86.0087 416.992C86.0087 417.955 86.1157 418.811 86.1157 419.667C86.1157 421.378 86.1157 423.09 86.0087 424.587C86.0087 425.336 85.9017 426.085 85.7948 426.727C85.6878 427.369 85.5808 428.118 85.5808 428.653C85.3669 429.829 85.1529 430.899 84.939 431.755C84.5111 433.466 84.1901 434.429 84.1901 434.429C84.1901 434.429 84.4041 433.466 84.832 431.755C85.0459 430.899 85.1529 429.829 85.3669 428.653C85.4739 428.011 85.4738 427.369 85.5808 426.727C85.6878 426.085 85.6878 425.336 85.6878 424.587C85.7948 423.09 85.6878 421.485 85.6878 419.667C85.5808 418.811 85.5808 417.955 85.4739 416.992C85.3669 416.136 85.2599 415.174 85.0459 414.211C84.832 413.248 84.725 412.392 84.5111 411.429C84.2971 410.467 84.0832 409.504 83.7622 408.541C83.2274 406.615 82.5855 404.69 81.8367 402.871C81.0878 401.053 80.232 399.234 79.3762 397.416C78.5204 395.704 77.5576 393.992 76.5948 392.388C74.6693 389.178 72.6367 386.397 70.7112 384.044C68.8926 381.69 67.181 379.871 65.8972 378.588C64.7205 377.304 63.9717 376.662 63.9717 376.662L65.6833 375.165Z" fill="#3D5539"/>
<path d="M62.581 378.374C62.581 378.374 62.474 378.267 62.153 377.946C61.8321 377.732 61.4042 377.304 60.8693 376.876C59.6926 376.02 57.981 374.737 55.6275 373.667C53.381 372.597 50.4927 371.527 47.3904 370.993C45.7857 370.779 44.1811 370.565 42.4695 370.565C41.6137 370.565 40.7579 370.672 39.9021 370.672C39.0463 370.779 38.1904 370.886 37.3346 370.993C35.623 371.313 33.9114 371.634 32.3068 372.169C31.451 372.383 30.7021 372.704 29.9533 373.025C29.2045 373.346 28.4556 373.667 27.7068 373.988C26.2091 374.63 24.8185 375.379 23.5347 376.127C22.251 376.876 21.0743 377.625 20.0045 378.374C19.4697 378.695 18.9348 379.123 18.5069 379.444C18.079 379.765 17.5441 380.192 17.1162 380.513C16.2604 381.155 15.5116 381.69 14.9767 382.225C13.7999 383.188 13.1581 383.83 13.1581 383.83C13.1581 383.83 13.7999 383.188 14.9767 382.225C15.5116 381.69 16.2604 381.048 17.0092 380.406C17.4371 380.086 17.865 379.658 18.2929 379.337C18.7208 379.016 19.2557 378.588 19.7906 378.16C20.8603 377.304 22.0371 376.555 23.3208 375.699C24.6045 374.951 25.9952 374.095 27.4929 373.346C28.2417 372.918 28.9905 372.597 29.7393 372.276C30.4882 371.955 31.344 371.634 32.0928 371.313C33.6975 370.672 35.4091 370.244 37.2277 369.816C38.0835 369.602 38.9393 369.495 39.9021 369.388C40.7579 369.281 41.7206 369.174 42.5765 369.174C44.2881 369.067 46.1067 369.174 47.7113 369.388C51.0276 369.816 54.1299 370.779 56.5903 371.848C59.0508 372.918 60.9763 374.095 62.367 375.058C63.0089 375.486 63.5437 375.913 63.8647 376.234C64.1856 376.555 64.3995 376.662 64.3995 376.662L62.581 378.374Z" fill="#3D5539"/>
<path d="M89.004 339.756C89.004 339.756 88.79 339.542 88.3621 339.221C87.9342 338.793 87.1854 338.258 86.2226 337.616C84.404 336.332 81.6226 334.514 77.9855 333.016C76.1669 332.16 74.2413 331.411 71.9948 330.77C69.8553 330.021 67.5018 329.593 65.0414 329.058C62.5809 328.63 60.0135 328.309 57.4461 328.309C56.1624 328.202 54.8787 328.309 53.488 328.309C52.2043 328.416 50.8136 328.416 49.5299 328.523C46.8555 328.737 44.288 329.165 41.7206 329.7C40.4369 330.021 39.1532 330.235 37.9765 330.663C36.6927 330.984 35.516 331.304 34.3393 331.732C31.9858 332.481 29.7393 333.337 27.5998 334.193C25.5673 335.156 23.5347 336.011 21.7161 336.974C20.8603 337.402 20.0045 337.83 19.1487 338.258C18.3999 338.686 17.651 339.114 16.9022 339.542C15.5115 340.29 14.2278 341.039 13.265 341.681C11.3395 342.965 10.1627 343.607 10.1627 343.607C10.1627 343.607 11.2325 342.858 13.265 341.574C14.2278 340.932 15.4045 340.183 16.7952 339.328C17.5441 338.9 18.1859 338.472 19.0417 337.937C19.8975 337.509 20.6464 337.081 21.6091 336.546C23.3208 335.584 25.3533 334.621 27.3858 333.658C29.5254 332.802 31.7719 331.732 34.1253 330.984C35.3021 330.556 36.4788 330.128 37.7625 329.807C39.0462 329.379 40.2229 329.058 41.5067 328.737C44.0741 328.095 46.7485 327.667 49.4229 327.239C50.7066 327.025 52.0973 327.025 53.488 326.918C54.8787 326.918 56.1624 326.811 57.553 326.811C60.2274 326.811 62.7949 327.025 65.3623 327.453C67.8227 327.881 70.2832 328.309 72.5297 328.951C74.7762 329.593 76.9157 330.342 78.7343 331.091C82.4784 332.588 85.4738 334.407 87.5063 335.69C88.4691 336.332 89.2179 336.974 89.7528 337.295C90.2877 337.723 90.6086 337.937 90.5016 337.937L89.004 339.756Z" fill="#3D5539"/>
<path d="M86.4366 345.96C86.4366 345.96 87.8273 346.602 90.0738 347.779C92.3203 349.063 95.5296 350.881 99.1668 353.555C100.985 354.839 102.911 356.337 104.836 358.048C106.762 359.653 108.688 361.579 110.613 363.504C112.539 365.537 114.464 367.676 116.176 370.03C117.995 372.276 119.599 374.844 121.097 377.304C122.594 379.872 123.878 382.439 125.055 385.22C125.59 386.611 126.125 387.895 126.66 389.285C126.874 389.927 127.087 390.676 127.301 391.318C127.515 391.96 127.729 392.709 127.836 393.351C128.05 393.992 128.157 394.634 128.371 395.276C128.478 395.918 128.692 396.56 128.799 397.202C128.906 397.843 129.12 398.485 129.227 399.127C129.334 399.769 129.441 400.411 129.548 401.053C129.976 403.513 130.19 405.974 130.297 408.113C130.297 409.183 130.404 410.253 130.404 411.322C130.404 412.285 130.404 413.248 130.404 414.211C130.297 416.029 130.297 417.527 130.19 418.811C129.976 421.378 129.762 422.769 129.762 422.769C129.762 422.769 129.869 421.271 130.083 418.704C130.19 417.42 130.19 415.922 130.19 414.104C130.19 413.248 130.19 412.285 130.083 411.215C130.083 410.253 129.976 409.183 129.869 408.113C129.655 405.974 129.441 403.62 128.906 401.16C128.799 400.518 128.692 399.876 128.585 399.341C128.478 398.699 128.264 398.057 128.157 397.416C128.05 396.774 127.836 396.132 127.729 395.49C127.515 394.848 127.301 394.206 127.087 393.564C126.874 392.923 126.66 392.281 126.446 391.639C126.232 390.997 125.911 390.355 125.697 389.713C125.269 388.43 124.627 387.146 124.092 385.755C122.915 383.188 121.525 380.62 120.027 378.16C118.422 375.699 116.818 373.346 114.999 371.1C113.181 368.853 111.255 366.821 109.436 364.895C107.511 362.969 105.585 361.258 103.66 359.653C101.734 358.048 99.8086 356.658 98.097 355.481C94.5668 353.021 91.3575 351.202 89.111 350.132C86.8645 348.956 85.5808 348.421 85.5808 348.421L86.4366 345.96Z" fill="#3D5539"/>
<path d="M104.516 319.537C104.516 319.537 103.874 318.467 102.483 316.649C101.841 315.686 100.878 314.616 99.8086 313.439C98.7389 312.263 97.5621 310.872 96.0645 309.481C93.1761 306.7 89.6459 303.812 85.3669 301.244C83.2274 299.96 80.9809 298.784 78.5204 297.821C76.06 296.858 73.5995 296.002 71.0321 295.361L69.1066 294.933L67.181 294.612C65.8973 294.398 64.6136 294.291 63.2229 294.184C61.9392 294.077 60.6555 294.077 59.3717 293.97C58.088 293.97 56.8043 294.077 55.5206 294.077C54.2369 294.184 53.0602 294.291 51.8834 294.398C50.7067 294.505 49.53 294.826 48.3532 294.933C47.1765 295.147 46.1067 295.361 45.037 295.681C43.9672 296.002 43.0044 296.216 42.0416 296.537C40.1161 297.179 38.4045 297.714 36.9068 298.356C35.4091 298.998 34.0185 299.426 32.9487 299.96C30.8092 300.923 29.6324 301.458 29.6324 301.458C29.6324 301.458 30.8092 300.816 32.9487 299.853C34.0185 299.319 35.3022 298.784 36.7998 298.142C38.2975 297.5 40.0091 296.858 41.9347 296.216C42.8975 295.895 43.8602 295.574 44.93 295.361C45.9998 295.04 47.0695 294.719 48.2463 294.505C49.423 294.291 50.4927 293.97 51.7765 293.863C52.9532 293.756 54.2369 293.542 55.5206 293.328C56.8043 293.221 58.088 293.114 59.3717 293.114C60.6555 293.114 62.0461 293.007 63.3299 293.221C64.6136 293.328 66.0043 293.328 67.3949 293.542L69.4275 293.863L71.46 294.291C74.1344 294.826 76.7018 295.681 79.2693 296.537C81.7297 297.5 84.1902 298.677 86.4367 299.853C90.9296 302.314 94.6738 305.309 97.7761 307.984C99.2738 309.374 100.557 310.658 101.734 311.942C102.804 313.225 103.767 314.295 104.516 315.258C105.264 316.221 105.799 316.97 106.227 317.505C106.441 317.825 106.548 318.039 106.655 318.146C106.762 318.253 106.762 318.36 106.762 318.36L104.516 319.537Z" fill="#3D5539"/>
<path d="M104.088 318.788C104.088 318.788 105.585 319.216 108.046 320.179C110.506 321.142 113.929 322.639 117.994 324.672C120.027 325.742 122.167 326.918 124.306 328.202C126.553 329.486 128.799 330.984 131.046 332.588C132.222 333.337 133.292 334.3 134.469 335.049C135.646 335.904 136.822 336.867 137.892 337.83C139.069 338.793 140.139 339.756 141.208 340.718C142.278 341.681 143.348 342.751 144.418 343.821C145.487 344.89 146.45 345.96 147.52 347.03C148.483 348.1 149.445 349.276 150.408 350.346C151.264 351.523 152.227 352.593 153.083 353.769C153.938 354.946 154.794 356.123 155.543 357.3C156.292 358.476 157.041 359.653 157.79 360.83C158.431 362.007 159.18 363.076 159.715 364.253C160.25 365.43 160.892 366.5 161.427 367.569C161.962 368.639 162.389 369.709 162.817 370.779C163.245 371.741 163.673 372.811 163.994 373.774C164.315 374.737 164.743 375.592 164.957 376.448C165.492 378.16 166.027 379.658 166.348 380.941C166.989 383.509 167.31 384.899 167.31 384.899C167.31 384.899 166.882 383.509 166.241 380.941C165.92 379.658 165.278 378.267 164.743 376.448C164.422 375.592 164.101 374.737 163.673 373.774C163.245 372.811 162.924 371.848 162.389 370.886C161.962 369.923 161.427 368.853 160.892 367.783C160.357 366.713 159.715 365.644 159.18 364.574C158.538 363.504 157.897 362.327 157.148 361.258C156.506 360.081 155.65 359.011 154.901 357.834C154.152 356.658 153.19 355.588 152.334 354.411C151.478 353.235 150.515 352.165 149.552 351.095C148.59 350.025 147.627 348.955 146.557 347.886C145.487 346.816 144.525 345.746 143.455 344.783C142.385 343.821 141.315 342.751 140.139 341.788C139.069 340.825 137.892 339.863 136.715 339.007C135.646 338.044 134.362 337.295 133.292 336.439C132.115 335.583 130.939 334.835 129.869 334.086C127.515 332.588 125.269 331.197 123.129 329.914C120.883 328.63 118.85 327.56 116.818 326.597C112.86 324.672 109.436 323.281 106.976 322.425C104.516 321.57 103.232 321.142 103.232 321.142L104.088 318.788Z" fill="#3D5539"/>
<path opacity="0.3" d="M368.853 283.807L366.5 274.393C366.5 274.393 340.932 267.654 321.677 271.505C302.421 275.356 284.877 285.84 284.877 285.84C284.877 285.84 273.11 283.807 263.482 291.83C263.482 291.83 244.761 285.198 222.617 290.654C193.306 297.928 177.366 311.942 177.366 311.942L179.934 321.891L187.85 325.207C187.85 325.207 189.241 343.821 199.724 350.453C210.101 357.086 233.529 355.053 247.863 348.742C261.77 342.537 265.407 335.476 266.477 324.565C267.547 312.798 266.905 304.133 266.905 304.133C266.905 304.133 269.152 298.677 275.249 297.607C281.347 296.537 286.054 299.212 286.054 299.212C286.054 299.212 289.37 316.221 296.751 323.281C305.202 331.411 316.97 335.476 334.086 330.983C350.881 326.704 361.151 322.639 363.183 316.007C365.323 309.374 363.183 288.942 363.183 288.942L368.853 283.807Z" fill="#403867"/>
<path d="M267.44 286.268C267.44 286.268 248.719 279.635 226.575 285.091C197.264 292.365 181.324 306.379 181.324 306.379L183.892 316.328L191.808 319.644C191.808 319.644 193.199 338.258 203.682 344.89C214.059 351.523 237.487 349.49 251.821 343.179C265.728 336.974 269.365 329.914 270.435 319.002C271.505 307.235 270.863 298.57 270.863 298.57C270.863 298.57 273.11 293.114 279.207 292.044C285.305 290.975 290.012 293.649 290.012 293.649C290.012 293.649 293.328 310.658 300.709 317.718C309.16 325.849 320.928 329.914 338.044 325.421C354.839 321.142 365.109 317.077 367.141 310.444C369.281 303.812 367.141 283.379 367.141 283.379L372.811 278.137L370.458 268.724C370.458 268.724 344.89 261.984 325.635 265.835C306.379 269.793 288.835 280.277 288.835 280.277C288.835 280.277 277.068 278.244 267.44 286.268Z" fill="#545172"/>
<path d="M197.585 309.374L202.185 329.593C202.185 329.593 206.036 340.29 219.836 339.756C233.635 339.221 252.035 336.011 258.561 326.17C263.696 318.467 261.556 302.956 260.379 296.644C260.058 294.933 258.668 293.649 256.956 293.435C248.077 292.472 220.157 290.654 199.189 305.202C197.906 306.165 197.264 307.877 197.585 309.374Z" fill="#CDDBF0"/>
<path d="M296.965 288.407C296.537 286.589 297.286 284.77 298.891 283.914C304.347 281.026 317.077 274.821 328.737 273.323C339.756 271.933 349.169 273.43 353.448 274.286C355.053 274.607 356.23 275.891 356.551 277.496C357.834 284.342 360.937 302.742 359.011 306.914C356.658 312.049 330.235 320.286 318.253 317.718C306.7 315.151 302.742 310.551 296.965 288.407Z" fill="#CDDBF0"/>
<g opacity="0.2">
<path opacity="0.2" d="M224.436 294.826L201.329 325.956L202.185 329.593C202.185 329.593 205.608 339.114 217.482 339.756L252.035 293.007C245.51 292.686 235.347 292.579 224.436 294.826Z" fill="#FFFDFF"/>
<path opacity="0.2" d="M261.77 312.798C261.984 306.593 261.021 300.174 260.379 296.751C260.272 295.895 259.845 295.147 259.203 294.612L226.04 339.435C232.352 338.793 239.091 337.616 244.868 335.583L261.77 312.798Z" fill="#FFFDFF"/>
</g>
<g opacity="0.2">
<path opacity="0.2" d="M328.737 273.217C323.923 273.858 318.895 275.249 314.188 276.961L299.319 296.965C302.849 308.198 306.165 313.012 311.835 315.579L343.5 272.789C339.435 272.575 334.3 272.575 328.737 273.217Z" fill="#FFFDFF"/>
<path opacity="0.2" d="M356.551 277.496C356.23 275.891 355.053 274.714 353.448 274.286C352.807 274.179 352.058 273.965 351.202 273.858L318.681 317.719C323.067 318.574 329.165 318.039 335.37 316.756L358.048 286.161C357.514 282.737 356.979 279.528 356.551 277.496Z" fill="#FFFDFF"/>
</g>
<path d="M241.98 296.323C241.98 296.323 251.928 295.788 253.105 300.923C254.282 306.058 247.542 307.449 240.482 306.807C233.315 306.165 230.105 304.881 229.249 301.672C228.18 298.463 234.17 296.323 241.98 296.323Z" fill="#FFFDFF"/>
<path d="M224.649 302.1C224.649 304.24 222.938 305.951 220.798 305.951C218.659 305.951 216.947 304.24 216.947 302.1C216.947 299.961 218.659 298.249 220.798 298.249C222.938 298.249 224.649 299.961 224.649 302.1Z" fill="#FFFDFF"/>
<path d="M342.43 277.175C342.43 277.175 352.379 276.64 353.555 281.775C354.732 286.909 347.993 288.3 340.932 287.658C333.765 287.016 330.556 285.733 329.7 282.523C328.737 279.314 334.621 277.068 342.43 277.175Z" fill="#FFFDFF"/>
<path d="M325.1 282.844C325.1 284.984 323.388 286.695 321.249 286.695C319.109 286.695 317.398 284.984 317.398 282.844C317.398 280.705 319.109 278.993 321.249 278.993C323.388 278.993 325.1 280.705 325.1 282.844Z" fill="#FFFDFF"/>
<path d="M347.565 374.095C343.072 374.095 338.793 375.165 335.156 377.09C332.16 370.137 325.207 365.323 317.184 365.323C306.379 365.323 297.607 374.095 297.607 384.899C297.607 385.969 297.714 387.039 297.928 388.109C297.821 388.109 297.714 388.109 297.607 388.109C288.621 388.109 281.24 395.383 281.24 404.476H374.309C374.416 403.406 374.523 402.229 374.523 401.16C374.523 386.183 362.434 374.095 347.565 374.095Z" fill="#CDDBF0"/>
<path d="M418.49 11.4464C424.374 11.4464 429.936 12.9441 434.75 15.4045C438.708 6.31158 447.694 0 458.285 0C472.406 0 483.852 11.4464 483.852 25.5672C483.852 27.0649 483.745 28.4556 483.424 29.8463C483.531 29.8463 483.638 29.8463 483.852 29.8463C495.619 29.8463 505.247 39.3671 505.247 51.2415H383.402C383.188 49.8508 383.081 48.3531 383.081 46.8554C383.188 27.2789 399.02 11.4464 418.49 11.4464Z" fill="#CDDBF0"/>
<path opacity="0.3" d="M413.676 220.584C412.071 219.942 410.467 219.515 408.862 219.408C408.755 219.408 408.755 219.408 408.648 219.408C408.113 219.408 407.685 219.301 407.15 219.301C407.043 219.301 407.043 219.301 406.936 219.301C406.402 219.301 405.974 219.301 405.439 219.301H405.332C405.225 219.301 405.011 219.301 404.904 219.301L406.616 215.129C410.467 206.036 390.997 189.133 363.076 177.366C359.76 175.975 356.551 174.692 353.342 173.622C352.165 168.273 350.881 163.566 347.993 162.924C344.356 162.069 343.714 167.417 343.607 170.627C343.072 170.413 342.43 170.306 341.895 170.199C340.932 168.38 339.97 165.813 339.756 162.817C339.435 156.827 341.681 147.413 336.118 144.738C330.556 142.064 329.7 148.91 326.918 151.05C324.137 153.19 323.067 147.52 322.105 141.529C321.249 135.432 320.393 127.515 313.974 128.264C307.556 129.013 307.77 143.562 309.053 156.827C309.481 161.106 310.23 165.064 310.979 168.38C308.305 169.343 306.379 170.734 305.523 172.766L303.17 178.436C298.142 190.417 297.714 203.147 301.03 214.808L419.774 225.291C418.383 223.259 416.243 221.654 413.676 220.584Z" fill="#403867"/>
<path opacity="0.3" d="M298.249 165.278C301.085 165.278 303.384 162.979 303.384 160.143C303.384 157.307 301.085 155.008 298.249 155.008C295.413 155.008 293.114 157.307 293.114 160.143C293.114 162.979 295.413 165.278 298.249 165.278Z" fill="#403867"/>
<path opacity="0.3" d="M364.253 169.771C366.607 169.771 368.532 167.845 368.532 165.492C368.532 163.138 366.607 161.213 364.253 161.213C361.9 161.213 359.974 163.138 359.974 165.492C359.974 167.845 361.9 169.771 364.253 169.771Z" fill="#403867"/>
<path opacity="0.3" d="M343.179 136.608C344.997 136.608 346.388 135.218 346.388 133.399C346.388 131.58 344.997 130.19 343.179 130.19C341.36 130.19 339.97 131.58 339.97 133.399C339.97 135.218 341.36 136.608 343.179 136.608Z" fill="#403867"/>
<path opacity="0.3" d="M321.57 111.79C325.314 111.79 328.416 108.688 328.416 104.943C328.416 101.199 325.314 98.0969 321.57 98.0969C317.826 98.0969 314.723 101.199 314.723 104.943C314.723 108.688 317.826 111.79 321.57 111.79Z" fill="#403867"/>
<path d="M369.067 250.217L372.169 241.124C372.383 241.231 391.532 247.649 406.188 244.975C411.75 243.905 416.564 237.915 417.099 233.208C417.42 230.426 416.35 228.715 413.783 227.645C409.29 225.719 402.337 228.822 400.304 229.998L395.383 221.761C396.667 221.012 407.792 214.701 417.527 218.766C424.053 221.547 427.476 227.324 426.727 234.17C425.657 243.584 417.313 252.677 408.006 254.389C390.783 257.491 369.923 250.538 369.067 250.217Z" fill="#FF796D"/>
<path d="M393.351 245.403C382.332 244.547 372.276 241.231 372.169 241.124L369.067 250.217C369.388 250.324 373.025 251.607 378.481 252.784C383.723 251.073 388.751 248.612 393.351 245.403Z" fill="#935771"/>
<path d="M395.383 221.654L400.304 229.891C401.802 229.036 406.081 227.11 410.039 226.896C410.895 225.291 411.75 223.58 412.499 221.761L414.211 217.696C405.332 215.984 396.453 221.012 395.383 221.654Z" fill="#935771"/>
<path d="M336.332 248.291C308.412 236.524 295.361 204.431 307.128 176.617L309.481 170.948L410.36 213.417L408.006 219.087C396.346 246.9 364.253 259.952 336.332 248.291Z" fill="#FF796D"/>
<path opacity="0.2" d="M323.281 183.25L326.17 178.971L316.649 172.552L313.76 176.831C299.854 197.478 305.309 225.505 325.956 239.519C327.56 240.589 329.272 241.552 330.984 242.407C314.188 227.645 310.551 202.292 323.281 183.25Z" fill="#FFFDFF"/>
<path opacity="0.2" d="M390.462 217.803L392.388 213.096L403.085 217.375L401.16 222.082C391.96 245.189 365.644 256.528 342.537 247.328C340.718 246.58 339.007 245.724 337.295 244.868C359.011 250.324 382.011 239.091 390.462 217.803Z" fill="#FFFDFF"/>
<path d="M410.395 213.3C414.244 204.151 394.762 187.225 366.881 175.495C339 163.764 313.278 161.67 309.429 170.819C305.58 179.967 325.061 196.893 352.942 208.624C380.823 220.355 406.546 222.448 410.395 213.3Z" fill="#E7E6E9"/>
<path d="M401.718 209.649C404.422 203.224 387.896 190.139 364.807 180.425C341.718 170.71 320.809 168.044 318.106 174.47C315.402 180.895 331.928 193.98 355.017 203.694C378.106 213.409 399.015 216.075 401.718 209.649Z" fill="#CBCACB"/>
<g opacity="0.2">
<path opacity="0.2" d="M418.597 245.938C418.49 245.938 418.383 245.831 418.276 245.724C417.099 244.975 416.778 243.584 417.527 242.408C424.587 231.175 415.922 224.97 415.601 224.756C414.532 224.008 414.211 222.51 414.96 221.44C415.708 220.37 417.206 220.05 418.276 220.798C418.383 220.905 430.899 229.891 421.485 244.975C420.95 245.938 419.667 246.366 418.597 245.938Z" fill="#FFFDFF"/>
</g>
<path d="M318.36 178.222C321.142 185.175 335.797 195.659 355.053 203.682C369.923 209.887 383.83 213.31 392.602 213.096C392.495 213.096 392.495 212.989 392.388 212.989C384.364 209.887 367.248 197.692 360.723 184.106C356.979 176.296 356.979 162.283 351.844 161.106C346.709 159.929 347.458 171.055 347.458 171.055C347.458 171.055 343.821 166.883 343.607 160.999C343.286 155.008 345.532 145.594 339.969 142.92C334.407 140.246 333.551 147.092 330.77 149.232C327.988 151.371 326.918 145.701 325.956 139.711C325.1 133.613 324.244 125.697 317.825 126.446C311.407 127.194 311.621 141.743 312.905 155.008C314.402 168.166 318.36 178.222 318.36 178.222Z" fill="#6F4C61"/>
<path d="M301.993 163.459C304.829 163.459 307.128 161.16 307.128 158.324C307.128 155.489 304.829 153.19 301.993 153.19C299.157 153.19 296.858 155.489 296.858 158.324C296.858 161.16 299.157 163.459 301.993 163.459Z" fill="#6F4C61"/>
<path d="M372.276 163.673C372.276 166.027 370.351 167.952 367.997 167.952C365.644 167.952 363.718 166.027 363.718 163.673C363.718 161.32 365.644 159.394 367.997 159.394C370.351 159.394 372.276 161.32 372.276 163.673Z" fill="#6F4C61"/>
<path d="M350.132 131.58C350.132 133.399 348.742 134.79 346.923 134.79C345.104 134.79 343.714 133.399 343.714 131.58C343.714 129.762 345.104 128.371 346.923 128.371C348.635 128.371 350.132 129.762 350.132 131.58Z" fill="#6F4C61"/>
<path d="M314.616 76.9158C314.616 79.2692 312.691 81.1948 310.337 81.1948C307.984 81.1948 306.058 79.2692 306.058 76.9158C306.058 74.5623 307.984 72.6367 310.337 72.6367C312.691 72.6367 314.616 74.4553 314.616 76.9158Z" fill="#6F4C61"/>
<path d="M332.16 103.125C332.16 106.869 329.058 109.971 325.314 109.971C321.57 109.971 318.467 106.869 318.467 103.125C318.467 99.3807 321.57 96.2784 325.314 96.2784C329.058 96.2784 332.16 99.2738 332.16 103.125Z" fill="#6F4C61"/>
<path opacity="0.3" d="M315.793 150.301C315.793 150.301 314.295 142.385 315.044 137.357C315.793 132.436 317.612 130.511 319.002 132.757C320.5 135.111 319.323 144.204 319.002 147.948C318.788 151.585 316.649 153.617 315.793 150.301Z" fill="#FFFDFF"/>
<path opacity="0.3" d="M318.039 159.822C318.985 159.822 319.751 159.056 319.751 158.111C319.751 157.165 318.985 156.399 318.039 156.399C317.094 156.399 316.328 157.165 316.328 158.111C316.328 159.056 317.094 159.822 318.039 159.822Z" fill="#FFFDFF"/>
<path opacity="0.3" d="M330.449 153.938C330.556 153.725 333.765 148.483 335.584 149.338C337.509 150.194 336.332 153.938 333.016 156.292C329.7 158.859 329.272 155.757 330.449 153.938Z" fill="#FFFDFF"/>
<path opacity="0.3" d="M356.23 180.575C356.23 180.575 357.941 185.71 359.974 188.706C362.113 191.808 363.825 193.199 361.579 195.231C359.439 197.264 356.444 193.305 354.625 188.599C352.7 183.892 350.881 177.687 352.7 176.617C354.625 175.547 355.16 177.687 356.23 180.575Z" fill="#FFFDFF"/>
<path opacity="0.3" d="M353.769 170.841C353.769 170.841 354.625 167.524 353.555 166.455C352.379 165.385 351.523 166.027 351.202 168.487C350.774 170.841 352.914 173.087 353.769 170.841Z" fill="#FFFDFF"/>
<path opacity="0.3" d="M299.747 159.073C300.81 159.073 301.672 158.211 301.672 157.148C301.672 156.084 300.81 155.222 299.747 155.222C298.683 155.222 297.821 156.084 297.821 157.148C297.821 158.211 298.683 159.073 299.747 159.073Z" fill="#FFFDFF"/>
<path opacity="0.3" d="M309.588 76.7018C310.356 76.7018 310.979 76.0792 310.979 75.3111C310.979 74.543 310.356 73.9204 309.588 73.9204C308.82 73.9204 308.198 74.543 308.198 75.3111C308.198 76.0792 308.82 76.7018 309.588 76.7018Z" fill="#FFFDFF"/>
<path opacity="0.3" d="M326.277 101.199C326.277 102.59 325.1 103.767 323.709 103.767C322.319 103.767 321.142 102.59 321.142 101.199C321.142 99.8086 322.319 98.6318 323.709 98.6318C325.1 98.6318 326.277 99.7016 326.277 101.199Z" fill="#FFFDFF"/>
<path opacity="0.3" d="M347.137 130.511C347.137 131.153 346.602 131.58 346.067 131.58C345.425 131.58 344.997 131.046 344.997 130.511C344.997 129.976 345.532 129.441 346.067 129.441C346.709 129.334 347.137 129.869 347.137 130.511Z" fill="#FFFDFF"/>
<path opacity="0.3" d="M368.211 162.39C368.211 163.245 367.569 163.887 366.714 163.887C365.858 163.887 365.216 163.245 365.216 162.39C365.216 161.534 365.858 160.892 366.714 160.892C367.569 160.892 368.211 161.534 368.211 162.39Z" fill="#FFFDFF"/>
<path d="M209.78 70.2832H167.203C164.422 70.2832 162.069 72.5297 162.069 75.418V104.836C162.069 107.618 164.315 109.971 167.203 109.971H183.785L188.492 118.208L193.199 109.971H209.78C212.561 109.971 214.915 107.725 214.915 104.836V75.418C214.808 72.5297 212.561 70.2832 209.78 70.2832Z" fill="#FFFDFF"/>
<path d="M202.398 78.6274C198.547 74.7762 192.236 74.7762 188.385 78.6274C184.533 74.7762 178.222 74.7762 174.371 78.6274C170.52 82.4785 170.52 88.7901 174.371 92.6412L188.385 106.655L202.398 92.6412C206.25 88.7901 206.25 82.4785 202.398 78.6274Z" fill="#F06F76"/>
<path d="M455.076 266.691H398.592C393.885 266.691 390.034 270.542 390.034 275.249V303.277C390.034 307.984 393.885 311.835 398.592 311.835H403.941V322.318L414.425 311.835H455.076C459.783 311.835 463.634 307.984 463.634 303.277V275.249C463.741 270.542 459.89 266.691 455.076 266.691Z" fill="#FFFDFF"/>
<path d="M413.783 289.263C413.783 292.151 411.429 294.505 408.541 294.505C405.653 294.505 403.299 292.151 403.299 289.263C403.299 286.375 405.653 284.021 408.541 284.021C411.429 284.021 413.783 286.375 413.783 289.263Z" fill="#545172"/>
<path d="M426.834 294.505C429.729 294.505 432.076 292.158 432.076 289.263C432.076 286.368 429.729 284.021 426.834 284.021C423.939 284.021 421.592 286.368 421.592 289.263C421.592 292.158 423.939 294.505 426.834 294.505Z" fill="#545172"/>
<path d="M450.476 289.263C450.476 292.151 448.122 294.505 445.234 294.505C442.345 294.505 439.992 292.151 439.992 289.263C439.992 286.375 442.345 284.021 445.234 284.021C448.122 284.021 450.476 286.375 450.476 289.263Z" fill="#545172"/>
<path d="M129.12 29.3114H125.269V25.4603C125.269 23.5347 123.664 21.9301 121.739 21.9301C119.813 21.9301 118.208 23.5347 118.208 25.4603V29.3114H114.464C112.539 29.3114 110.934 30.916 110.934 32.8416C110.934 34.7672 112.539 36.3718 114.464 36.3718H118.315V40.2229C118.315 42.1485 119.92 43.7531 121.846 43.7531C123.771 43.7531 125.376 42.1485 125.376 40.2229V36.3718H129.227C131.153 36.3718 132.757 34.7672 132.757 32.8416C132.65 30.916 131.046 29.3114 129.12 29.3114Z" fill="#FFC672"/>
<path d="M490.699 164.422H486.847V160.571C486.847 158.645 485.243 157.041 483.317 157.041C481.392 157.041 479.787 158.645 479.787 160.571V164.422H476.043C474.117 164.422 472.513 166.027 472.513 167.952C472.513 169.878 474.117 171.482 476.043 171.482H479.894V175.334C479.894 177.259 481.499 178.864 483.424 178.864C485.35 178.864 486.954 177.259 486.954 175.334V171.482H490.806C492.731 171.482 494.336 169.878 494.336 167.952C494.229 166.027 492.624 164.422 490.699 164.422Z" fill="#FFC672"/>
<path d="M189.989 412.713H186.138V408.862C186.138 406.937 184.534 405.332 182.608 405.332C180.682 405.332 179.078 406.937 179.078 408.862V412.713H175.227C173.301 412.713 171.696 414.318 171.696 416.243C171.696 418.169 173.301 419.774 175.227 419.774H179.078V423.625C179.078 425.55 180.682 427.155 182.608 427.155C184.534 427.155 186.138 425.55 186.138 423.625V419.774H189.989C191.915 419.774 193.52 418.169 193.52 416.243C193.52 414.318 191.915 412.713 189.989 412.713Z" fill="#FFC672"/>
<path d="M13.3721 205.501C13.3721 207.64 11.6605 209.245 9.62795 209.245C7.48843 209.245 5.88379 207.533 5.88379 205.501C5.88379 203.361 7.5954 201.757 9.62795 201.757C11.6605 201.757 13.3721 203.468 13.3721 205.501Z" fill="#CDDBF0"/>
<path d="M246.366 103.125C246.366 105.264 244.654 106.869 242.621 106.869C240.482 106.869 238.877 105.157 238.877 103.125C238.877 100.985 240.589 99.3806 242.621 99.3806C244.654 99.2736 246.366 100.985 246.366 103.125Z" fill="#FFFDFF"/>
<path d="M237.38 375.806C237.38 377.946 235.668 379.551 233.635 379.551C231.603 379.551 229.891 377.839 229.891 375.806C229.891 373.667 231.603 372.062 233.635 372.062C235.668 372.062 237.38 373.667 237.38 375.806Z" fill="#FFFDFF"/>
<path d="M477.861 121.311C479.929 121.311 481.606 119.634 481.606 117.567C481.606 115.499 479.929 113.822 477.861 113.822C475.794 113.822 474.117 115.499 474.117 117.567C474.117 119.634 475.794 121.311 477.861 121.311Z" fill="#FFFDFF"/>
<path d="M248.612 418.49C248.612 419.774 247.542 420.843 246.259 420.843C244.975 420.843 243.905 419.774 243.905 418.49C243.905 417.206 244.975 416.136 246.259 416.136C247.542 416.243 248.612 417.206 248.612 418.49Z" fill="#CDDBF0"/>
<path d="M477.754 207.854C477.754 209.138 476.685 210.208 475.401 210.208C474.117 210.208 473.048 209.138 473.048 207.854C473.048 206.57 474.117 205.501 475.401 205.501C476.685 205.501 477.754 206.57 477.754 207.854Z" fill="#FFFDFF"/>
<path d="M52.4182 236.31C52.4182 237.594 51.3485 238.663 50.0648 238.663C48.7811 238.663 47.7113 237.594 47.7113 236.31C47.7113 235.026 48.7811 233.956 50.0648 233.956C51.3485 233.956 52.4182 235.026 52.4182 236.31Z" fill="#FFFDFF"/>
<path d="M384.899 73.9204C384.899 75.2041 383.83 76.2738 382.546 76.2738C381.262 76.2738 380.193 75.2041 380.193 73.9204C380.193 72.6366 381.262 71.5669 382.546 71.5669C383.83 71.5669 384.899 72.6366 384.899 73.9204Z" fill="#FFFDFF"/>
<path d="M165.706 126.98C165.706 128.264 164.636 129.334 163.352 129.334C162.069 129.334 160.999 128.264 160.999 126.98C160.999 125.697 162.069 124.627 163.352 124.627C164.636 124.627 165.706 125.697 165.706 126.98Z" fill="#FFFDFF"/>
<path d="M458.178 375.806C458.178 377.411 456.894 378.695 455.289 378.695C453.685 378.695 452.401 377.411 452.401 375.806C452.401 374.202 453.685 372.918 455.289 372.918C456.894 372.918 458.178 374.202 458.178 375.806Z" fill="#CDDBF0"/>
<path d="M525.038 116.604C525.038 118.636 523.433 120.348 521.294 120.348C519.154 120.348 517.549 118.743 517.549 116.604C517.549 114.571 519.154 112.86 521.294 112.86C523.433 112.86 525.038 114.571 525.038 116.604Z" fill="#CDDBF0"/>
<path d="M262.412 39.0462L279.314 22.144" stroke="#CDDBF0" stroke-width="6.7301" stroke-miterlimit="10" stroke-linecap="round"/>
<path d="M521.294 239.412L532.419 228.287" stroke="#CDDBF0" stroke-width="6.7301" stroke-miterlimit="10" stroke-linecap="round"/>
<path d="M381.583 416.243L406.188 391.639" stroke="#CDDBF0" stroke-width="6.7301" stroke-miterlimit="10" stroke-linecap="round"/>
<path d="M3.74426 285.305L14.8698 274.179" stroke="#CDDBF0" stroke-width="6.7301" stroke-miterlimit="10" stroke-linecap="round"/>
</g>
<path d="M128.877 470.967V453.512H130.991V461.285H140.298V453.512H142.412V470.967H140.298V463.16H130.991V470.967H128.877ZM146.37 470.967V457.876H148.382V470.967H146.37ZM147.393 455.694C147.001 455.694 146.663 455.56 146.379 455.293C146.1 455.026 145.961 454.705 145.961 454.33C145.961 453.955 146.1 453.634 146.379 453.367C146.663 453.1 147.001 452.967 147.393 452.967C147.785 452.967 148.12 453.1 148.399 453.367C148.683 453.634 148.825 453.955 148.825 454.33C148.825 454.705 148.683 455.026 148.399 455.293C148.12 455.56 147.785 455.694 147.393 455.694ZM157.554 471.239C156.293 471.239 155.205 470.961 154.29 470.404C153.381 469.842 152.679 469.058 152.185 468.052C151.696 467.041 151.452 465.864 151.452 464.523C151.452 463.183 151.696 462.001 152.185 460.978C152.679 459.95 153.367 459.148 154.247 458.575C155.134 457.995 156.168 457.705 157.35 457.705C158.032 457.705 158.705 457.819 159.37 458.046C160.034 458.273 160.64 458.643 161.185 459.154C161.73 459.66 162.165 460.33 162.489 461.166C162.813 462.001 162.975 463.029 162.975 464.251V465.103H152.884V463.364H160.929C160.929 462.626 160.782 461.967 160.486 461.387C160.196 460.808 159.782 460.35 159.242 460.015C158.708 459.68 158.077 459.512 157.35 459.512C156.549 459.512 155.855 459.711 155.27 460.109C154.691 460.501 154.245 461.012 153.932 461.643C153.62 462.273 153.463 462.95 153.463 463.671V464.83C153.463 465.819 153.634 466.657 153.975 467.345C154.321 468.026 154.801 468.546 155.415 468.904C156.029 469.256 156.742 469.433 157.554 469.433C158.083 469.433 158.56 469.359 158.986 469.211C159.418 469.058 159.79 468.83 160.103 468.529C160.415 468.222 160.657 467.842 160.827 467.387L162.77 467.933C162.566 468.592 162.222 469.171 161.739 469.671C161.256 470.166 160.659 470.552 159.949 470.83C159.239 471.103 158.441 471.239 157.554 471.239ZM159.02 456.308L157.247 453.921L155.475 456.308H153.566V456.171L156.327 452.626H158.168L160.929 456.171V456.308H159.02ZM157.247 475.296C156.855 475.296 156.517 475.163 156.233 474.896C155.955 474.629 155.816 474.308 155.816 473.933C155.816 473.558 155.955 473.237 156.233 472.97C156.517 472.702 156.855 472.569 157.247 472.569C157.64 472.569 157.975 472.702 158.253 472.97C158.537 473.237 158.679 473.558 158.679 473.933C158.679 474.308 158.537 474.629 158.253 474.896C157.975 475.163 157.64 475.296 157.247 475.296ZM168.046 463.092V470.967H166.034V457.876H167.978V459.921H168.148C168.455 459.256 168.921 458.722 169.546 458.319C170.171 457.91 170.978 457.705 171.966 457.705C172.853 457.705 173.628 457.887 174.293 458.251C174.958 458.609 175.475 459.154 175.844 459.887C176.213 460.614 176.398 461.535 176.398 462.648V470.967H174.387V462.785C174.387 461.756 174.12 460.955 173.586 460.381C173.051 459.802 172.318 459.512 171.387 459.512C170.745 459.512 170.171 459.651 169.665 459.93C169.165 460.208 168.77 460.614 168.48 461.148C168.191 461.683 168.046 462.33 168.046 463.092ZM192.142 471.239C190.914 471.239 189.858 470.95 188.971 470.37C188.085 469.791 187.403 468.992 186.926 467.975C186.448 466.958 186.21 465.796 186.21 464.489C186.21 463.16 186.454 461.987 186.943 460.97C187.437 459.947 188.125 459.148 189.005 458.575C189.892 457.995 190.926 457.705 192.108 457.705C193.028 457.705 193.858 457.876 194.596 458.217C195.335 458.558 195.94 459.035 196.412 459.648C196.883 460.262 197.176 460.978 197.289 461.796H195.278C195.125 461.2 194.784 460.671 194.255 460.211C193.733 459.745 193.028 459.512 192.142 459.512C191.358 459.512 190.67 459.717 190.079 460.126C189.494 460.529 189.037 461.1 188.707 461.839C188.383 462.572 188.221 463.433 188.221 464.421C188.221 465.433 188.38 466.313 188.698 467.063C189.022 467.813 189.477 468.396 190.062 468.81C190.653 469.225 191.346 469.433 192.142 469.433C192.664 469.433 193.139 469.342 193.565 469.16C193.991 468.978 194.352 468.717 194.647 468.376C194.943 468.035 195.153 467.626 195.278 467.148H197.289C197.176 467.921 196.894 468.617 196.446 469.237C196.002 469.85 195.414 470.339 194.681 470.702C193.954 471.06 193.108 471.239 192.142 471.239ZM202.241 463.092V470.967H200.23V453.512H202.241V459.921H202.412C202.718 459.245 203.179 458.708 203.792 458.31C204.412 457.907 205.235 457.705 206.264 457.705C207.156 457.705 207.937 457.884 208.608 458.242C209.278 458.595 209.798 459.137 210.167 459.87C210.542 460.597 210.73 461.523 210.73 462.648V470.967H208.718V462.785C208.718 461.745 208.448 460.941 207.909 460.373C207.375 459.799 206.633 459.512 205.684 459.512C205.025 459.512 204.434 459.651 203.912 459.93C203.394 460.208 202.985 460.614 202.684 461.148C202.389 461.683 202.241 462.33 202.241 463.092ZM226.205 457.296H227.978C227.978 458.16 227.864 458.884 227.637 459.47C227.409 460.049 227.012 460.487 226.443 460.782C225.875 461.072 225.08 461.217 224.057 461.217V459.819C224.762 459.819 225.262 459.734 225.557 459.563C225.858 459.387 226.04 459.114 226.103 458.745C226.171 458.37 226.205 457.887 226.205 457.296ZM222.659 465.614V457.876H224.671V470.967H222.659V468.751H222.523C222.216 469.416 221.739 469.981 221.091 470.447C220.443 470.907 219.625 471.137 218.637 471.137C217.818 471.137 217.091 470.958 216.455 470.6C215.818 470.237 215.318 469.691 214.955 468.964C214.591 468.231 214.409 467.308 214.409 466.194V457.876H216.421V466.058C216.421 467.012 216.688 467.773 217.222 468.342C217.762 468.91 218.449 469.194 219.284 469.194C219.784 469.194 220.293 469.066 220.81 468.81C221.333 468.555 221.77 468.163 222.122 467.634C222.48 467.106 222.659 466.433 222.659 465.614ZM233.191 471.273C232.362 471.273 231.609 471.117 230.933 470.805C230.257 470.487 229.72 470.029 229.322 469.433C228.924 468.83 228.725 468.103 228.725 467.251C228.725 466.501 228.873 465.893 229.169 465.427C229.464 464.955 229.859 464.586 230.353 464.319C230.848 464.052 231.393 463.853 231.99 463.722C232.592 463.586 233.197 463.478 233.805 463.398C234.6 463.296 235.245 463.22 235.74 463.168C236.24 463.112 236.603 463.018 236.831 462.887C237.064 462.756 237.18 462.529 237.18 462.205V462.137C237.18 461.296 236.95 460.643 236.49 460.177C236.035 459.711 235.345 459.478 234.419 459.478C233.458 459.478 232.706 459.688 232.16 460.109C231.615 460.529 231.231 460.978 231.01 461.455L229.1 460.773C229.441 459.978 229.896 459.359 230.464 458.916C231.038 458.467 231.663 458.154 232.339 457.978C233.021 457.796 233.691 457.705 234.35 457.705C234.771 457.705 235.254 457.756 235.799 457.859C236.35 457.955 236.882 458.157 237.393 458.464C237.91 458.771 238.339 459.234 238.68 459.853C239.021 460.472 239.191 461.302 239.191 462.342V470.967H237.18V469.194H237.078C236.941 469.478 236.714 469.782 236.396 470.106C236.078 470.43 235.654 470.705 235.126 470.933C234.598 471.16 233.953 471.273 233.191 471.273ZM233.498 469.467C234.294 469.467 234.964 469.31 235.51 468.998C236.061 468.685 236.475 468.282 236.754 467.788C237.038 467.293 237.18 466.773 237.18 466.228V464.387C237.095 464.489 236.907 464.583 236.618 464.668C236.333 464.748 236.004 464.819 235.629 464.881C235.26 464.938 234.899 464.989 234.546 465.035C234.2 465.075 233.919 465.109 233.703 465.137C233.18 465.205 232.691 465.316 232.237 465.47C231.788 465.617 231.424 465.842 231.146 466.143C230.873 466.438 230.737 466.842 230.737 467.353C230.737 468.052 230.995 468.58 231.512 468.938C232.035 469.291 232.697 469.467 233.498 469.467ZM254.931 471.239C253.703 471.239 252.647 470.95 251.76 470.37C250.874 469.791 250.192 468.992 249.715 467.975C249.238 466.958 248.999 465.796 248.999 464.489C248.999 463.16 249.243 461.987 249.732 460.97C250.226 459.947 250.914 459.148 251.794 458.575C252.681 457.995 253.715 457.705 254.897 457.705C255.817 457.705 256.647 457.876 257.385 458.217C258.124 458.558 258.729 459.035 259.201 459.648C259.672 460.262 259.965 460.978 260.078 461.796H258.067C257.914 461.2 257.573 460.671 257.044 460.211C256.522 459.745 255.817 459.512 254.931 459.512C254.147 459.512 253.459 459.717 252.868 460.126C252.283 460.529 251.826 461.1 251.496 461.839C251.172 462.572 251.01 463.433 251.01 464.421C251.01 465.433 251.169 466.313 251.488 467.063C251.811 467.813 252.266 468.396 252.851 468.81C253.442 469.225 254.135 469.433 254.931 469.433C255.453 469.433 255.928 469.342 256.354 469.16C256.78 468.978 257.141 468.717 257.436 468.376C257.732 468.035 257.942 467.626 258.067 467.148H260.078C259.965 467.921 259.684 468.617 259.235 469.237C258.792 469.85 258.203 470.339 257.47 470.702C256.743 471.06 255.897 471.239 254.931 471.239ZM268.337 471.239C267.155 471.239 266.118 470.958 265.226 470.396C264.34 469.833 263.647 469.046 263.147 468.035C262.652 467.023 262.405 465.842 262.405 464.489C262.405 463.126 262.652 461.935 263.147 460.918C263.647 459.901 264.34 459.112 265.226 458.549C266.118 457.987 267.155 457.705 268.337 457.705C269.519 457.705 270.553 457.987 271.439 458.549C272.331 459.112 273.024 459.901 273.519 460.918C274.019 461.935 274.269 463.126 274.269 464.489C274.269 465.842 274.019 467.023 273.519 468.035C273.024 469.046 272.331 469.833 271.439 470.396C270.553 470.958 269.519 471.239 268.337 471.239ZM268.337 469.433C269.235 469.433 269.973 469.202 270.553 468.742C271.132 468.282 271.561 467.677 271.84 466.927C272.118 466.177 272.257 465.364 272.257 464.489C272.257 463.614 272.118 462.799 271.84 462.043C271.561 461.288 271.132 460.677 270.553 460.211C269.973 459.745 269.235 459.512 268.337 459.512C267.439 459.512 266.701 459.745 266.121 460.211C265.542 460.677 265.113 461.288 264.834 462.043C264.556 462.799 264.417 463.614 264.417 464.489C264.417 465.364 264.556 466.177 264.834 466.927C265.113 467.677 265.542 468.282 266.121 468.742C266.701 469.202 267.439 469.433 268.337 469.433ZM267.417 456.103L269.496 452.148H271.848L269.189 456.103H267.417ZM284.362 470.967V453.512H286.373V459.955H286.544C286.691 459.728 286.896 459.438 287.157 459.086C287.424 458.728 287.805 458.41 288.299 458.131C288.799 457.847 289.475 457.705 290.328 457.705C291.43 457.705 292.402 457.981 293.243 458.532C294.083 459.083 294.74 459.864 295.211 460.876C295.683 461.887 295.919 463.08 295.919 464.455C295.919 465.842 295.683 467.043 295.211 468.06C294.74 469.072 294.086 469.856 293.251 470.413C292.416 470.964 291.453 471.239 290.362 471.239C289.521 471.239 288.848 471.1 288.342 470.822C287.836 470.538 287.447 470.217 287.174 469.859C286.902 469.495 286.691 469.194 286.544 468.955H286.305V470.967H284.362ZM286.339 464.421C286.339 465.41 286.484 466.282 286.774 467.038C287.064 467.788 287.487 468.376 288.044 468.802C288.6 469.222 289.282 469.433 290.089 469.433C290.93 469.433 291.632 469.211 292.194 468.768C292.762 468.319 293.189 467.717 293.473 466.961C293.762 466.2 293.907 465.353 293.907 464.421C293.907 463.501 293.765 462.671 293.481 461.933C293.203 461.188 292.779 460.6 292.211 460.168C291.649 459.731 290.941 459.512 290.089 459.512C289.271 459.512 288.583 459.72 288.027 460.134C287.47 460.543 287.049 461.117 286.765 461.856C286.481 462.589 286.339 463.444 286.339 464.421ZM302.848 471.273C302.018 471.273 301.265 471.117 300.589 470.805C299.913 470.487 299.376 470.029 298.978 469.433C298.581 468.83 298.382 468.103 298.382 467.251C298.382 466.501 298.529 465.893 298.825 465.427C299.12 464.955 299.515 464.586 300.01 464.319C300.504 464.052 301.049 463.853 301.646 463.722C302.248 463.586 302.853 463.478 303.461 463.398C304.257 463.296 304.902 463.22 305.396 463.168C305.896 463.112 306.26 463.018 306.487 462.887C306.72 462.756 306.836 462.529 306.836 462.205V462.137C306.836 461.296 306.606 460.643 306.146 460.177C305.691 459.711 305.001 459.478 304.075 459.478C303.115 459.478 302.362 459.688 301.816 460.109C301.271 460.529 300.887 460.978 300.666 461.455L298.757 460.773C299.098 459.978 299.552 459.359 300.12 458.916C300.694 458.467 301.319 458.154 301.995 457.978C302.677 457.796 303.348 457.705 304.007 457.705C304.427 457.705 304.91 457.756 305.456 457.859C306.007 457.955 306.538 458.157 307.049 458.464C307.566 458.771 307.995 459.234 308.336 459.853C308.677 460.472 308.848 461.302 308.848 462.342V470.967H306.836V469.194H306.734C306.598 469.478 306.37 469.782 306.052 470.106C305.734 470.43 305.311 470.705 304.782 470.933C304.254 471.16 303.609 471.273 302.848 471.273ZM303.154 469.467C303.95 469.467 304.62 469.31 305.166 468.998C305.717 468.685 306.132 468.282 306.41 467.788C306.694 467.293 306.836 466.773 306.836 466.228V464.387C306.751 464.489 306.564 464.583 306.274 464.668C305.99 464.748 305.66 464.819 305.285 464.881C304.916 464.938 304.555 464.989 304.203 465.035C303.856 465.075 303.575 465.109 303.359 465.137C302.836 465.205 302.348 465.316 301.893 465.47C301.444 465.617 301.081 465.842 300.802 466.143C300.529 466.438 300.393 466.842 300.393 467.353C300.393 468.052 300.652 468.58 301.169 468.938C301.691 469.291 302.353 469.467 303.154 469.467ZM305.029 456.103H303.359V454.262C303.956 454.228 304.376 454.146 304.62 454.015C304.87 453.884 304.995 453.683 304.995 453.41C304.995 453.103 304.816 452.879 304.458 452.737C304.1 452.595 303.666 452.523 303.154 452.523L303.223 451.228C304.399 451.228 305.288 451.433 305.89 451.842C306.498 452.251 306.802 452.796 306.802 453.478C306.802 454.058 306.618 454.481 306.248 454.748C305.879 455.015 305.473 455.183 305.029 455.251V456.103ZM314.53 463.092V470.967H312.519V457.876H314.462V459.921H314.632C314.939 459.256 315.405 458.722 316.03 458.319C316.655 457.91 317.462 457.705 318.451 457.705C319.337 457.705 320.113 457.887 320.777 458.251C321.442 458.609 321.959 459.154 322.328 459.887C322.698 460.614 322.882 461.535 322.882 462.648V470.967H320.871V462.785C320.871 461.756 320.604 460.955 320.07 460.381C319.536 459.802 318.803 459.512 317.871 459.512C317.229 459.512 316.655 459.651 316.149 459.93C315.649 460.208 315.255 460.614 314.965 461.148C314.675 461.683 314.53 462.33 314.53 463.092ZM339.001 457.876V459.58H332.217V457.876H339.001ZM334.194 454.739H336.206V467.217C336.206 467.785 336.288 468.211 336.453 468.495C336.623 468.773 336.839 468.961 337.1 469.058C337.368 469.148 337.649 469.194 337.944 469.194C338.166 469.194 338.348 469.183 338.49 469.16C338.632 469.131 338.745 469.109 338.831 469.092L339.24 470.898C339.103 470.95 338.913 471.001 338.669 471.052C338.424 471.109 338.115 471.137 337.74 471.137C337.171 471.137 336.615 471.015 336.069 470.771C335.529 470.526 335.081 470.154 334.723 469.654C334.37 469.154 334.194 468.523 334.194 467.762V454.739ZM342.027 470.967V457.876H344.038V470.967H342.027ZM343.049 455.694C342.657 455.694 342.319 455.56 342.035 455.293C341.757 455.026 341.618 454.705 341.618 454.33C341.618 453.955 341.757 453.634 342.035 453.367C342.319 453.1 342.657 452.967 343.049 452.967C343.441 452.967 343.777 453.1 344.055 453.367C344.339 453.634 344.481 453.955 344.481 454.33C344.481 454.705 344.339 455.026 344.055 455.293C343.777 455.56 343.441 455.694 343.049 455.694ZM349.733 463.092V470.967H347.722V457.876H349.665V459.921H349.836C350.142 459.256 350.608 458.722 351.233 458.319C351.858 457.91 352.665 457.705 353.654 457.705C354.54 457.705 355.316 457.887 355.98 458.251C356.645 458.609 357.162 459.154 357.532 459.887C357.901 460.614 358.086 461.535 358.086 462.648V470.967H356.074V462.785C356.074 461.756 355.807 460.955 355.273 460.381C354.739 459.802 354.006 459.512 353.074 459.512C352.432 459.512 351.858 459.651 351.353 459.93C350.853 460.208 350.458 460.614 350.168 461.148C349.878 461.683 349.733 462.33 349.733 463.092ZM370.522 463.092V470.967H368.511V457.876H370.454V459.921H370.625C370.931 459.256 371.397 458.722 372.022 458.319C372.647 457.91 373.454 457.705 374.443 457.705C375.329 457.705 376.105 457.887 376.769 458.251C377.434 458.609 377.951 459.154 378.321 459.887C378.69 460.614 378.875 461.535 378.875 462.648V470.967H376.863V462.785C376.863 461.756 376.596 460.955 376.062 460.381C375.528 459.802 374.795 459.512 373.863 459.512C373.221 459.512 372.647 459.651 372.142 459.93C371.642 460.208 371.247 460.614 370.957 461.148C370.667 461.683 370.522 462.33 370.522 463.092ZM386.402 471.273C385.573 471.273 384.82 471.117 384.144 470.805C383.468 470.487 382.931 470.029 382.533 469.433C382.135 468.83 381.936 468.103 381.936 467.251C381.936 466.501 382.084 465.893 382.38 465.427C382.675 464.955 383.07 464.586 383.564 464.319C384.059 464.052 384.604 463.853 385.201 463.722C385.803 463.586 386.408 463.478 387.016 463.398C387.811 463.296 388.456 463.22 388.951 463.168C389.451 463.112 389.814 463.018 390.041 462.887C390.274 462.756 390.391 462.529 390.391 462.205V462.137C390.391 461.296 390.161 460.643 389.701 460.177C389.246 459.711 388.556 459.478 387.63 459.478C386.669 459.478 385.916 459.688 385.371 460.109C384.826 460.529 384.442 460.978 384.22 461.455L382.311 460.773C382.652 459.978 383.107 459.359 383.675 458.916C384.249 458.467 384.874 458.154 385.55 457.978C386.232 457.796 386.902 457.705 387.561 457.705C387.982 457.705 388.465 457.756 389.01 457.859C389.561 457.955 390.093 458.157 390.604 458.464C391.121 458.771 391.55 459.234 391.891 459.853C392.232 460.472 392.402 461.302 392.402 462.342V470.967H390.391V469.194H390.289C390.152 469.478 389.925 469.782 389.607 470.106C389.289 470.43 388.865 470.705 388.337 470.933C387.809 471.16 387.164 471.273 386.402 471.273ZM386.709 469.467C387.505 469.467 388.175 469.31 388.72 468.998C389.272 468.685 389.686 468.282 389.965 467.788C390.249 467.293 390.391 466.773 390.391 466.228V464.387C390.306 464.489 390.118 464.583 389.828 464.668C389.544 464.748 389.215 464.819 388.84 464.881C388.47 464.938 388.11 464.989 387.757 465.035C387.411 465.075 387.13 465.109 386.914 465.137C386.391 465.205 385.902 465.316 385.448 465.47C384.999 465.617 384.635 465.842 384.357 466.143C384.084 466.438 383.948 466.842 383.948 467.353C383.948 468.052 384.206 468.58 384.723 468.938C385.246 469.291 385.908 469.467 386.709 469.467ZM386.845 456.103L384.186 452.148H386.539L388.618 456.103H386.845ZM401.392 471.239C400.21 471.239 399.173 470.958 398.281 470.396C397.394 469.833 396.701 469.046 396.201 468.035C395.707 467.023 395.46 465.842 395.46 464.489C395.46 463.126 395.707 461.935 396.201 460.918C396.701 459.901 397.394 459.112 398.281 458.549C399.173 457.987 400.21 457.705 401.392 457.705C402.573 457.705 403.608 457.987 404.494 458.549C405.386 459.112 406.079 459.901 406.573 460.918C407.073 461.935 407.323 463.126 407.323 464.489C407.323 465.842 407.073 467.023 406.573 468.035C406.079 469.046 405.386 469.833 404.494 470.396C403.608 470.958 402.573 471.239 401.392 471.239ZM401.392 469.433C402.289 469.433 403.028 469.202 403.608 468.742C404.187 468.282 404.616 467.677 404.894 466.927C405.173 466.177 405.312 465.364 405.312 464.489C405.312 463.614 405.173 462.799 404.894 462.043C404.616 461.288 404.187 460.677 403.608 460.211C403.028 459.745 402.289 459.512 401.392 459.512C400.494 459.512 399.755 459.745 399.176 460.211C398.596 460.677 398.167 461.288 397.889 462.043C397.61 462.799 397.471 463.614 397.471 464.489C397.471 465.364 397.61 466.177 397.889 466.927C398.167 467.677 398.596 468.282 399.176 468.742C399.755 469.202 400.494 469.433 401.392 469.433Z" fill="#B3B3B3"/>
<defs>
<clipPath id="clip0_321_36596">
<rect width="536.056" height="441.918" fill="white"/>
</clipPath>
</defs>
</svg>
