<svg width="150" height="105" viewBox="0 0 150 105" fill="none" xmlns="http://www.w3.org/2000/svg">
<g clip-path="url(#clip0_899_64556)">
<path d="M57.312 45.4141L53.845 36.9941H28.3492L33.3963 98.962C33.3963 105.812 43.8437 104.575 50.7405 104.575H102.643L102.689 103.366L105.115 45.4141H57.312Z" fill="#006C99"/>
<path d="M102.531 103.861C102.531 103.861 38.6107 103.944 44.4478 103.861C50.285 103.778 49.9039 52.2334 49.9039 52.2334H117.933L113.518 94.0284C113.235 96.7268 111.955 99.2253 109.926 101.041C107.897 102.857 105.262 103.862 102.531 103.861Z" fill="white" stroke="#006C99" stroke-width="2" stroke-miterlimit="10"/>
<path d="M69.5346 83.3223C70.818 83.3223 71.8584 82.2889 71.8584 81.0142C71.8584 79.7394 70.818 78.7061 69.5346 78.7061C68.2513 78.7061 67.2109 79.7394 67.2109 81.0142C67.2109 82.2889 68.2513 83.3223 69.5346 83.3223Z" fill="#006C99"/>
<path d="M93.0505 83.3223C94.3339 83.3223 95.3742 82.2889 95.3742 81.0142C95.3742 79.7394 94.3339 78.7061 93.0505 78.7061C91.7672 78.7061 90.7268 79.7394 90.7268 81.0142C90.7268 82.2889 91.7672 83.3223 93.0505 83.3223Z" fill="#006C99"/>
<path d="M64.283 73.6841C64.1248 73.6828 63.9718 73.628 63.849 73.5289C63.7263 73.4297 63.6411 73.292 63.6076 73.1384C63.5741 72.9848 63.5942 72.8245 63.6646 72.6837C63.7349 72.543 63.8514 72.4302 63.9949 72.3639L71.5609 68.8556C71.6438 68.8166 71.7338 68.7943 71.8254 68.7899C71.9171 68.7855 72.0088 68.7991 72.0951 68.83C72.1815 68.8609 72.2608 68.9084 72.3287 68.9698C72.3965 69.0312 72.4514 69.1054 72.4904 69.1879C72.5671 69.3547 72.5751 69.5448 72.5125 69.7173C72.45 69.8899 72.3219 70.0313 72.1558 70.1112L64.5804 73.6195C64.4877 73.6638 64.3859 73.6859 64.283 73.6841Z" fill="#006C99"/>
<path d="M98.0977 73.3792C98.0086 73.3819 97.92 73.3662 97.8374 73.333L90.4666 70.2863C90.2953 70.2165 90.1589 70.082 90.0874 69.9123C90.016 69.7427 90.0153 69.5517 90.0855 69.3816C90.1558 69.2114 90.2912 69.0759 90.4621 69.0049C90.6329 68.9339 90.8251 68.9332 90.9964 69.003L98.3672 72.0128C98.4536 72.0481 98.5321 72.1002 98.5981 72.1658C98.6641 72.2315 98.7164 72.3095 98.7518 72.3954C98.7873 72.4813 98.8052 72.5732 98.8046 72.666C98.804 72.7588 98.7849 72.8506 98.7483 72.936C98.6976 73.0665 98.6083 73.1787 98.4922 73.2578C98.376 73.3369 98.2385 73.3792 98.0977 73.3792Z" fill="#006C99"/>
<path d="M85.2801 92.9337H80.0285C79.8436 92.9337 79.6664 92.8607 79.5356 92.7309C79.4049 92.601 79.3314 92.4249 79.3314 92.2413C79.3314 92.0576 79.4049 91.8815 79.5356 91.7516C79.6664 91.6218 79.8436 91.5488 80.0285 91.5488H85.2801C85.465 91.5488 85.6423 91.6218 85.7731 91.7516C85.9038 91.8815 85.9772 92.0576 85.9772 92.2413C85.9772 92.4249 85.9038 92.601 85.7731 92.7309C85.6423 92.8607 85.465 92.9337 85.2801 92.9337Z" fill="#006C99"/>
<path d="M134.543 84.624C137.109 84.624 139.19 82.5572 139.19 80.0078C139.19 77.4583 137.109 75.3916 134.543 75.3916C131.976 75.3916 129.895 77.4583 129.895 80.0078C129.895 82.5572 131.976 84.624 134.543 84.624Z" fill="#006C99"/>
<path d="M143.02 72.585C144.411 72.585 145.539 71.4648 145.539 70.083C145.539 68.7012 144.411 67.5811 143.02 67.5811C141.628 67.5811 140.501 68.7012 140.501 70.083C140.501 71.4648 141.628 72.585 143.02 72.585Z" fill="#006C99"/>
<path d="M69.6834 28.4727C71.6905 28.4727 73.3176 26.8565 73.3176 24.8628C73.3176 22.8691 71.6905 21.2529 69.6834 21.2529C67.6762 21.2529 66.0491 22.8691 66.0491 24.8628C66.0491 26.8565 67.6762 28.4727 69.6834 28.4727Z" fill="#006C99"/>
<path d="M38.2947 24.6787C38.2271 24.6787 38.1603 24.6638 38.0992 24.6351C38.0381 24.6064 37.9842 24.5645 37.9414 24.5125L34.1585 20.0994C34.1181 20.0543 34.0872 20.0016 34.0676 19.9444C34.048 19.8872 34.0402 19.8267 34.0445 19.7665C34.0488 19.7063 34.0653 19.6475 34.0928 19.5937C34.1204 19.5399 34.1585 19.4921 34.2049 19.4531C34.2993 19.3739 34.4211 19.3343 34.5444 19.343C34.6676 19.3516 34.7826 19.4077 34.8649 19.4993L38.6479 23.9124C38.7265 24.0072 38.7648 24.1289 38.7543 24.2514C38.7439 24.3739 38.6857 24.4875 38.5921 24.5679C38.5095 24.6391 38.404 24.6784 38.2947 24.6787Z" fill="#006C99"/>
<path d="M34.3816 24.5212C34.3227 24.523 34.2641 24.5124 34.2097 24.4901C34.1552 24.4678 34.1061 24.4344 34.0655 24.392C34.0223 24.3499 33.9879 24.2996 33.9644 24.2441C33.9409 24.1886 33.9288 24.129 33.9288 24.0688C33.9288 24.0087 33.9409 23.9491 33.9644 23.8936C33.9879 23.8381 34.0223 23.7878 34.0655 23.7457L37.9508 19.7296C38.0405 19.6581 38.1534 19.6214 38.2684 19.6264C38.3833 19.6315 38.4925 19.6779 38.5756 19.757C38.6586 19.8361 38.7099 19.9425 38.7198 20.0564C38.7296 20.1703 38.6975 20.2838 38.6293 20.3759L34.7348 24.3827C34.6894 24.4297 34.6343 24.4664 34.5734 24.4903C34.5124 24.5142 34.447 24.5247 34.3816 24.5212Z" fill="#006C99"/>
<path d="M24.5941 89.9423C24.5295 89.9433 24.4654 89.9307 24.4061 89.9052C24.3468 89.8797 24.2937 89.842 24.2502 89.7946L18.9521 84.1813C18.9088 84.1391 18.8745 84.0889 18.851 84.0334C18.8275 83.9779 18.8154 83.9183 18.8154 83.8581C18.8154 83.798 18.8275 83.7384 18.851 83.6829C18.8745 83.6274 18.9088 83.5771 18.9521 83.535C18.9953 83.4917 19.0467 83.4574 19.1034 83.4339C19.16 83.4105 19.2207 83.3984 19.2821 83.3984C19.3435 83.3984 19.4042 83.4105 19.4608 83.4339C19.5175 83.4574 19.5689 83.4917 19.6121 83.535L24.9101 89.1483C24.9758 89.2121 25.0205 89.2942 25.0384 89.3837C25.0563 89.4732 25.0465 89.566 25.0103 89.6499C24.9741 89.7338 24.9132 89.8049 24.8356 89.8537C24.758 89.9026 24.6673 89.9271 24.5755 89.9238L24.5941 89.9423Z" fill="#006C99"/>
<path d="M19.4169 89.6746C19.2963 89.6718 19.1809 89.6259 19.0916 89.5454C19.0058 89.4575 18.9579 89.34 18.9579 89.2176C18.9579 89.0953 19.0058 88.9777 19.0916 88.8899L24.3896 83.452C24.4328 83.4087 24.4842 83.3744 24.5409 83.3509C24.5975 83.3275 24.6582 83.3154 24.7196 83.3154C24.781 83.3154 24.8417 83.3275 24.8983 83.3509C24.955 83.3744 25.0064 83.4087 25.0496 83.452C25.0929 83.4941 25.1272 83.5444 25.1507 83.5999C25.1742 83.6553 25.1863 83.7149 25.1863 83.7751C25.1863 83.8353 25.1742 83.8949 25.1507 83.9504C25.1272 84.0059 25.0929 84.0561 25.0496 84.0982L19.7515 89.5454C19.6613 89.6304 19.5412 89.6768 19.4169 89.6746Z" fill="#006C99"/>
<path d="M2.37018 64.6079C3.6792 64.6079 4.74036 63.5539 4.74036 62.2537C4.74036 60.9535 3.6792 59.8994 2.37018 59.8994C1.06117 59.8994 0 60.9535 0 62.2537C0 63.5539 1.06117 64.6079 2.37018 64.6079Z" fill="#006C99"/>
<path d="M149.414 22.2775C149.416 18.0697 148.184 13.9524 145.868 10.4289C143.553 6.90539 140.254 4.12818 136.375 2.43661C132.496 0.745043 128.205 0.212379 124.026 0.90372C119.847 1.59506 115.962 3.48045 112.844 6.32952C109.727 9.1786 107.512 12.868 106.472 16.9468C105.431 21.0256 105.608 25.3173 106.983 29.2974C108.358 33.2775 110.87 36.7737 114.213 39.3587C117.555 41.9437 121.584 43.5056 125.806 43.8536C124.437 45.6276 122.804 47.1842 120.963 48.4698C120.925 48.4954 120.897 48.5323 120.882 48.5752C120.867 48.6181 120.866 48.6646 120.879 48.708C120.893 48.7514 120.92 48.7893 120.957 48.8162C120.994 48.8431 121.038 48.8576 121.084 48.8576C127.621 48.6338 133.808 45.8647 138.307 41.1485C141.677 39.2639 144.482 36.523 146.433 33.2069C148.385 29.8908 149.414 26.1187 149.414 22.2775V22.2775Z" stroke="#006C99" stroke-width="2" stroke-miterlimit="10"/>
<path d="M119.095 11.9096C121.656 10.5117 124.537 9.79315 127.46 9.82308C128.67 9.78625 129.877 9.97089 131.02 10.3678C132.935 11.1341 133.13 12.6759 132.331 14.4393C131.26 16.9935 129.44 19.1683 127.107 20.6804C125.919 21.4089 124.575 21.8515 123.184 21.9729C122.516 22.0396 121.841 21.999 121.186 21.8529C120.6 21.6959 119.941 21.4374 120.47 20.6342C120.789 20.3139 121.164 20.0542 121.576 19.8679C124.171 18.2516 127.245 17.5674 130.286 17.9291C130.956 18.0078 131.599 18.2364 132.168 18.5979C132.736 18.9593 133.214 19.444 133.567 20.0156C134.366 21.539 133.734 23.3578 132.972 24.7611C131.624 27.2169 129.468 29.3773 126.614 29.9497C125.866 30.1095 125.094 30.1314 124.337 30.0143C124.032 29.9869 123.736 29.9023 123.463 29.765C122.859 29.2757 123.37 28.6202 123.835 28.3248C125.071 27.5308 127.107 27.4015 128.482 27.3277C129.858 27.2538 131.652 27.2077 132.851 28.2509C133.347 28.695 133.739 29.2418 133.999 29.8528C134.26 30.4637 134.382 31.124 134.357 31.7869C134.264 34.8798 131.057 36.6432 128.232 36.4031C127.488 36.3385 127.488 37.4925 128.232 37.5572C131.42 37.8434 134.933 35.8769 135.454 32.544C135.583 31.7997 135.554 31.0369 135.37 30.3042C135.186 29.5715 134.85 28.8849 134.384 28.2882C133.918 27.6915 133.332 27.1978 132.663 26.8385C131.994 26.4792 131.257 26.2622 130.499 26.2013C128.64 26.0352 120.526 26.3306 122.134 30.0143C122.757 31.4361 125.09 31.353 126.363 31.1776C128.184 30.8958 129.879 30.0827 131.234 28.8418C133.65 26.6814 136.504 22.2037 134.273 19.0555C132.042 15.9072 127.172 16.4335 123.965 17.5229C122.478 18.0307 119.996 18.88 119.225 20.3665C118.453 21.8529 119.857 22.8131 121.14 23.0623C124.978 23.7917 128.771 21.5482 131.076 18.6585C132.474 17.0926 133.455 15.2041 133.929 13.1652C134.208 11.2726 133 9.92464 131.29 9.27837C127.256 7.75502 122.116 8.96446 118.463 10.9402C117.803 11.291 118.388 12.2881 119.048 11.9373L119.095 11.9096Z" fill="#006C99"/>
</g>
<defs>
<clipPath id="clip0_899_64556">
<rect width="150" height="105" fill="white"/>
</clipPath>
</defs>
</svg>
