<svg width="239" height="209" viewBox="0 0 239 209" fill="none" xmlns="http://www.w3.org/2000/svg">
<path d="M111.639 168.548C115.375 165.983 116.281 165.517 117.3 163.302C117.979 161.903 117.413 160.737 116.507 159.688C116.054 159.222 115.601 158.406 114.129 158.406C108.808 158.173 108.921 163.535 107.789 164.817C106.996 165.634 106.091 166.45 104.958 166.799C102.128 167.615 99.2971 168.898 97.4856 171.346C95.9004 173.561 96.0136 177.058 97.9385 179.156C99.75 181.138 105.524 183.47 108.695 178.457C111.639 173.677 109.714 169.83 111.639 168.548Z" fill="#FB5D51"/>
<path d="M109.6 19.7984C102.467 11.2884 100.203 4.17727 91.7111 6.50878C86.1631 8.02427 85.7102 14.4359 91.4846 17.3503C95.4475 19.3321 104.619 22.7128 108.808 22.1299C109.261 22.1299 111.186 21.5471 109.6 19.7984Z" fill="#014596"/>
<path d="M193.047 30.9884C200.18 30.4055 204.822 31.921 206.86 26.3253C208.219 22.7115 205.162 19.9136 201.312 21.8954C198.708 23.2943 193.386 27.0248 192.028 29.4729C191.914 29.8226 191.461 31.1049 193.047 30.9884Z" fill="#014596"/>
<path d="M152.852 145.7C153.192 157.241 150.588 164.585 158.853 168.432C164.288 170.997 168.703 166.101 165.986 159.806C164.061 155.609 158.853 146.633 155.117 144.301C154.55 144.068 152.739 143.252 152.852 145.7Z" fill="#448FEA"/>
<path d="M49.7052 41.5971C49.5919 34.2528 51.2903 29.5898 46.082 27.0251C42.6853 25.393 39.7415 28.424 41.4398 32.3876C42.5721 35.0688 45.8555 40.8976 48.2333 42.4131C48.5729 42.6463 49.7052 43.2292 49.7052 41.5971Z" fill="#448FEA"/>
<path d="M85.371 168.78C83.2197 172.045 81.0685 173.443 82.5404 176.241C83.5594 178.106 85.7106 177.64 86.1635 175.425C86.5032 173.91 86.8429 170.296 86.2768 168.897C86.2768 168.664 85.9371 168.081 85.371 168.78Z" fill="#002245"/>
<path d="M225.428 127.396C228.712 131.825 229.731 135.439 234.033 134.623C236.864 134.04 237.317 130.776 234.486 129.144C232.561 127.978 228.033 126.113 225.994 126.23C225.655 126.23 224.749 126.463 225.428 127.396Z" fill="#014596"/>
<path d="M25.7017 64.6795C22.0786 60.4827 20.8331 56.8689 16.6438 58.1512C13.9264 58.9672 13.7 62.2314 16.6438 63.6303C18.6818 64.5629 23.324 66.1949 25.362 65.9618C25.5885 65.8452 26.4943 65.6121 25.7017 64.6795Z" fill="#002245"/>
<path d="M180.365 18.7481C187.272 12.9193 193.046 11.0541 191.348 3.82637C190.216 -0.953234 185.121 -1.41954 182.63 3.36007C180.932 6.6242 178.101 14.4348 178.441 17.9321C178.554 18.3984 178.893 20.0304 180.365 18.7481Z" fill="#FB5D51"/>
<path d="M25.7023 132.176C19.5882 134.857 15.1725 134.974 14.946 140.453C14.8328 144.067 18.3427 145.582 21.0601 142.551C22.8717 140.57 26.4949 135.673 26.9478 133.109C27.061 132.759 27.061 131.477 25.7023 132.176Z" fill="#448FEA"/>
<path d="M68.0469 47.6586C42.0054 57.9173 28.9847 87.9938 38.8352 114.806C48.7989 141.619 78.0106 155.025 104.052 144.883C130.094 134.624 143.114 104.548 133.264 77.7352C123.3 50.9227 94.0884 37.5165 68.0469 47.6586ZM90.0123 106.879C84.3511 109.094 78.0106 106.18 75.7461 100.351C73.5949 94.5221 76.4255 87.9938 82.0867 85.6623C87.7478 83.4474 94.0884 86.3618 96.3528 92.1906C98.5041 98.1359 95.6735 104.664 90.0123 106.879Z" fill="#448FEA"/>
<path d="M83.3329 52.9061L61.4807 61.5327L57.2915 50.2248C55.027 44.0463 57.9708 37.1684 63.9717 34.8368L64.1981 34.7203C70.199 32.3888 76.8792 35.4197 79.1436 41.5982L83.3329 52.9061Z" fill="#448FEA"/>
<path d="M62.726 59.898L48.007 78.5501L38.8358 70.8561C33.854 66.6594 33.1746 59.1985 37.1375 54.0692L37.2507 53.836C41.3268 48.7067 48.5731 48.0073 53.5549 52.0874L62.726 59.898Z" fill="#448FEA"/>
<path d="M48.3471 76.5698L44.6107 100.351L32.9487 98.486C26.6081 97.4368 22.3056 91.3749 23.3247 84.8467V84.6135C24.3437 78.0853 30.2313 73.6554 36.5718 74.7046L48.3471 76.5698Z" fill="#448FEA"/>
<path d="M44.0437 98.3691L52.4223 120.868L41.4396 125.182C35.4387 127.513 28.7585 124.482 26.494 118.304L26.3808 118.07C24.1163 111.892 27.0602 105.014 33.061 102.682L44.0437 98.3691Z" fill="#448FEA"/>
<path d="M50.8372 119.469L68.953 134.624L61.4803 144.066C57.4042 149.196 50.1579 149.895 45.176 145.815L44.9496 145.698C39.9678 141.502 39.2884 134.041 43.2512 128.911L50.8372 119.469Z" fill="#448FEA"/>
<path d="M66.9155 134.275L90.0132 138.122L88.2016 150.13C87.1826 156.658 81.295 161.088 74.9544 160.039H74.728C68.3874 158.99 64.0849 152.928 65.104 146.399L66.9155 134.275Z" fill="#448FEA"/>
<path d="M88.0884 138.822L109.941 130.195L114.13 141.503C116.394 147.682 113.451 154.56 107.45 156.891L107.223 157.008C101.222 159.339 94.5421 156.308 92.2777 150.13L88.0884 138.822Z" fill="#448FEA"/>
<path d="M108.695 131.826L123.414 113.174L132.586 120.868C137.567 125.065 138.247 132.525 134.284 137.655L134.171 137.888C130.095 143.017 122.848 143.717 117.866 139.637L108.695 131.826Z" fill="#448FEA"/>
<path d="M123.075 115.156L126.811 91.375L138.473 93.2402C144.814 94.2894 149.116 100.351 148.097 106.88V107.113C147.078 113.641 141.191 118.071 134.85 117.022L123.075 115.156Z" fill="#448FEA"/>
<path d="M127.377 93.3569L118.998 70.8578L129.981 66.5445C135.982 64.213 142.662 67.2439 144.926 73.4225L145.04 73.6556C147.304 79.8341 144.36 86.7121 138.359 89.0436L127.377 93.3569Z" fill="#448FEA"/>
<path d="M120.584 72.2558L102.468 57.101L109.941 47.6583C114.017 42.529 121.263 41.8295 126.245 45.9097L126.471 46.0263C131.453 50.223 132.132 57.6838 128.17 62.8132L120.584 72.2558Z" fill="#448FEA"/>
<path d="M104.393 57.4522L81.4082 53.6052L83.2198 41.5979C84.2388 35.0696 90.1264 30.6398 96.4669 31.6889H96.6934C103.034 32.7381 107.336 38.8001 106.317 45.3283L104.393 57.4522Z" fill="#448FEA"/>
<path d="M188.517 54.3036C168.363 58.034 154.89 77.8519 158.513 98.6024C162.136 119.353 181.384 133.225 201.538 129.495C221.692 125.765 235.165 105.947 231.542 85.1962C227.919 64.4457 208.671 50.5732 188.517 54.3036ZM196.443 100.118C192.027 100.934 187.838 97.9029 187.045 93.3565C186.253 88.81 189.196 84.4967 193.612 83.6807C198.028 82.8647 202.217 85.8956 203.01 90.4421C203.802 94.9886 200.858 99.3019 196.443 100.118Z" fill="#FB5D51"/>
<path d="M198.821 60.0156L181.838 63.1631L180.252 54.3033C179.46 49.5237 182.517 44.9773 187.159 44.0447H187.386C192.028 43.2287 196.443 46.3762 197.349 51.1558L198.821 60.0156Z" fill="#FB5D51"/>
<path d="M170.289 72.1397L164.401 88.9266L156.249 85.8956C151.833 84.2636 149.455 79.2508 151.154 74.5878L151.267 74.4712C152.852 69.9247 157.721 67.4766 162.25 69.2253L170.289 72.1397Z" fill="#FB5D51"/>
<path d="M166.326 103.732L177.422 117.372L170.741 123.201C167.118 126.348 161.684 125.882 158.74 122.151L158.627 122.035C155.569 118.304 156.022 112.709 159.646 109.678L166.326 103.732Z" fill="#FB5D51"/>
<path d="M190.782 123.083L207.765 119.936L209.35 128.795C210.143 133.575 207.086 138.121 202.444 139.054H202.217C197.575 139.87 193.159 136.722 192.254 131.943L190.782 123.083Z" fill="#FB5D51"/>
<path d="M219.314 110.844L225.202 94.0566L233.354 97.0876C237.769 98.7197 240.147 103.732 238.449 108.395L238.336 108.512C236.75 113.059 231.882 115.507 227.353 113.758L219.314 110.844Z" fill="#FB5D51"/>
<path d="M223.391 79.3685L212.295 65.7291L218.975 59.9004C222.598 56.7528 228.033 57.2191 230.977 60.9495L231.09 61.0661C234.147 64.7965 233.694 70.3922 230.071 73.4232L223.391 79.3685Z" fill="#FB5D51"/>
<path d="M163.382 15.2508C154.211 9.77177 142.549 12.9193 137.114 22.2454C131.793 31.688 134.85 43.6954 143.908 49.291C153.079 54.7701 164.741 51.6225 170.176 42.2964C175.61 32.9704 172.553 20.8465 163.382 15.2508ZM151.607 36.0013C149.569 34.8356 149.003 32.1543 150.135 30.056C151.267 27.9576 153.871 27.3747 155.909 28.5405C157.947 29.7062 158.514 32.3875 157.381 34.4859C156.136 36.5842 153.532 37.2837 151.607 36.0013Z" fill="#F3BA18"/>
<path d="M168.137 18.7488L158.853 13.1532L161.57 8.25696C163.042 5.57572 166.326 4.75969 168.93 6.27517H169.043C171.647 7.79066 172.44 11.1714 170.968 13.8526L168.137 18.7488Z" fill="#F3BA18"/>
<path d="M149.682 12.57L140.284 18.0491L137.567 13.1529C136.095 10.4717 137.001 7.09097 139.605 5.57548H139.718C142.322 4.05999 145.606 4.9926 147.078 7.67385L149.682 12.57Z" fill="#F3BA18"/>
<path d="M135.303 25.8594L135.189 37.0507H129.755C126.811 37.0507 124.433 34.486 124.433 31.455V31.3385C124.433 28.3075 126.924 25.8594 129.868 25.8594H135.303Z" fill="#F3BA18"/>
<path d="M139.378 45.4434L148.662 51.039L145.945 55.9352C144.473 58.6164 141.19 59.4325 138.585 57.917H138.472C135.868 56.4015 135.075 53.0208 136.547 50.3395L139.378 45.4434Z" fill="#F3BA18"/>
<path d="M157.72 51.5064L167.118 46.0273L169.835 50.9235C171.307 53.6048 170.401 56.9855 167.797 58.5009H167.684C165.08 60.0164 161.796 59.0838 160.324 56.4026L157.72 51.5064Z" fill="#F3BA18"/>
<path d="M172.213 38.2167L172.327 27.0254H177.761C180.705 27.0254 183.083 29.5901 183.083 32.621V32.7376C183.083 35.7686 180.592 38.2167 177.648 38.2167H172.213Z" fill="#F3BA18"/>
<path d="M204.419 145.367L199.949 146.656L201.262 151.483L205.732 150.194L204.419 145.367Z" fill="#E8A181"/>
<path d="M213.879 205.852L213.766 208.416L222.031 208.999C222.031 208.999 222.711 207.251 219.88 206.551C217.05 205.852 215.691 205.502 215.691 205.502L213.879 205.852Z" fill="#002245"/>
<path d="M199.5 204.919L199.387 207.483L191.121 206.901C191.121 206.901 190.668 205.035 193.612 204.802C196.556 204.453 197.801 204.336 197.801 204.336L199.5 204.919Z" fill="#002245"/>
<path d="M212.747 125.416C212.747 125.416 211.162 122.851 212.973 122.035C214.785 121.102 216.03 124.6 216.03 124.6L212.747 125.416Z" fill="#F4AE87"/>
<path d="M201.425 170.763L215.804 169.131L219.541 187.783L218.408 206.085L213.993 205.736C213.993 205.736 212.747 199.907 212.974 193.495C212.974 191.98 213.54 187.9 213.54 187.9L209.35 177.408C209.237 177.058 208.898 176.825 208.445 176.708C208.105 176.708 207.652 176.941 207.539 177.175L196.896 185.918C196.896 185.918 199.047 188.366 199.387 193.612C199.84 198.858 199.387 204.57 199.387 204.57L194.971 204.22L190.782 183.353L201.425 170.763Z" fill="#FB5D51"/>
<path d="M212.408 156.191C208.671 154.209 205.161 154.792 207.539 148.963C209.464 144.067 213.2 139.521 213.427 138.122C213.653 136.723 212.408 125.648 212.408 125.648L216.031 124.482L218.748 136.956C218.861 137.889 218.861 138.472 218.635 139.054L215.125 148.614L212.408 156.191Z" fill="#F3BA18"/>
<path d="M216.168 123.416L211.181 124.965L211.802 127.085L216.789 125.537L216.168 123.416Z" fill="#014596"/>
<path d="M186.932 131.477C186.932 131.477 188.404 128.796 186.48 128.096C184.555 127.28 183.649 130.777 183.649 130.777L186.932 131.477Z" fill="#F4AE87"/>
<path d="M198.708 160.154C200.859 156.424 204.256 155.141 199.274 151.411C195.085 148.263 190.329 145.932 189.423 144.883C188.518 143.834 186.593 132.176 186.593 132.176L182.743 131.477L183.762 146.049C184.102 146.865 184.442 147.331 184.894 147.797L192.594 155.258L198.708 160.154Z" fill="#F3BA18"/>
<path d="M182.929 129.866L182.366 132.004L187.393 133.407L187.956 131.269L182.929 129.866Z" fill="#014596"/>
<path d="M198.255 150.363L207.653 147.681C209.917 146.982 212.181 148.497 212.521 150.829L215.918 169.481L200.859 171.346L195.538 155.609C194.745 153.394 195.991 150.946 198.255 150.363Z" fill="#F3BA18"/>
<path d="M202.905 147.555L202.033 147.807L208.537 171.716L209.41 171.465L202.905 147.555Z" fill="#230603"/>
<path d="M202.444 150.128L203.916 149.662L208.445 162.485L207.539 165.167C207.426 165.4 207.2 165.516 206.973 165.283L204.935 163.418L202.444 150.128Z" fill="#34BE8E"/>
<path d="M201.878 150.945C202.104 151.878 203.01 152.344 203.803 152.111C204.709 151.878 205.161 150.945 204.935 150.129C204.709 149.197 203.803 148.731 203.01 148.964C202.218 149.197 201.652 150.129 201.878 150.945Z" fill="#34BE8E"/>
<path d="M203.01 148.963C203.01 148.963 206.181 151.877 206.86 151.877C207.539 151.877 207.313 147.797 207.313 147.797L203.01 148.963Z" fill="#014596"/>
<path d="M203.01 148.963C203.01 148.963 201.765 153.16 201.198 153.509C200.632 153.859 198.821 150.245 198.821 150.245L203.01 148.963Z" fill="#014596"/>
<path d="M196.783 142.785C197.462 145.117 200.18 148.031 202.444 147.332C204.709 146.632 205.728 142.785 205.048 140.454C204.369 138.122 201.991 136.723 199.727 137.423C197.462 138.006 196.217 140.454 196.783 142.785Z" fill="#F4AE87"/>
<path d="M201.538 141.152C199.386 141.735 197.462 142.318 196.556 142.551C195.65 142.784 192.593 141.385 193.952 138.821C195.31 136.256 200.858 136.722 202.104 137.422C203.349 138.121 202.896 140.803 201.538 141.152Z" fill="#230603"/>
<path d="M204.369 145.815L203.69 143.483C203.69 143.483 204.822 141.268 204.029 140.336C203.124 139.287 202.105 140.919 202.105 140.919L200.633 139.636C200.633 139.636 198.821 139.636 198.255 138.587C197.689 137.538 198.595 135.323 199.727 135.09C200.859 134.973 207.086 136.605 207.539 137.655C207.992 138.704 206.181 143.367 206.181 143.367L204.369 145.815Z" fill="#230603"/>
<path d="M149.342 188.482L137.001 179.972L129.754 182.654L125.225 177.291C124.433 179.04 124.886 183.936 124.772 184.286L127.263 199.324C126.471 199.207 124.319 198.158 121.262 198.508C116.62 199.091 114.356 199.091 114.356 199.091L114.016 202.355C114.016 202.355 128.848 204.453 130.434 203.054C131.679 201.889 133.377 191.63 133.83 188.715C133.943 187.899 135.076 187.783 135.415 188.016L147.53 192.562C147.53 192.562 148.21 197.342 149.682 199.907C152.059 203.987 153.758 207.251 153.758 207.251L157.268 206.785L151.606 191.63C151.267 190.231 150.361 189.182 149.342 188.482Z" fill="#F4AE87"/>
<path d="M153.645 206.785L154.097 209L161.457 207.368C161.457 207.368 161.683 205.619 158.966 205.736C156.475 205.969 153.645 206.785 153.645 206.785Z" fill="#AD5549"/>
<path d="M100.77 158.755C100.77 158.755 100.203 156.074 98.5051 156.657C96.8067 157.357 98.1654 160.271 98.1654 160.271L100.77 158.755Z" fill="#F4AE87"/>
<path d="M115.149 199.091L112.545 198.625L110.846 206.202C110.846 206.202 112.318 207.135 113.337 204.57C114.356 202.122 115.149 199.091 115.149 199.091Z" fill="#AD5549"/>
<path d="M120.244 178.34C121.376 174.61 123.98 172.628 118.885 170.413C114.582 168.548 109.261 168.081 108.242 167.382C107.223 166.682 101.109 158.639 101.109 158.639L98.0518 160.271L104.166 170.18C104.619 170.879 105.072 171.112 105.525 171.462L113.79 175.192L120.244 178.34Z" fill="#002245"/>
<path d="M101.383 157.488L97.2026 159.822L98.1202 161.564L102.301 159.23L101.383 157.488Z" fill="#34BE8E"/>
<path d="M125.225 144.417C125.225 144.417 123.301 142.551 124.659 141.385C126.131 140.22 127.83 142.901 127.83 142.901L125.225 144.417Z" fill="#F4AE87"/>
<path d="M131.566 171.696C127.83 170.763 124.886 172.162 125.678 166.45C126.358 161.67 128.735 156.774 128.622 155.492C128.509 154.21 124.999 144.65 124.999 144.65L127.943 142.785L133.038 153.277C133.378 154.093 133.378 154.559 133.378 155.142L132.245 164.352L131.566 171.696Z" fill="#002245"/>
<path d="M127.931 141.919L123.844 144.422L124.828 146.125L128.915 143.622L127.931 141.919Z" fill="#34BE8E"/>
<path d="M137.567 180.205L124.772 184.402L127.263 199.44C127.263 199.44 134.057 200.489 140.397 197.808C146.738 195.127 151.267 190.93 151.267 190.93C151.267 190.93 151.38 189.764 149.455 188.599C147.644 187.316 137.567 180.205 137.567 180.205Z" fill="#F3BA18"/>
<path d="M125.678 165.05L117.979 169.596C116.167 170.646 114.016 173.21 115.262 175.076L124.093 181.487L125.338 187.549L137 180.788L132.585 176.358L131.339 166.332C130.32 164.234 127.49 164.001 125.678 165.05Z" fill="#002245"/>
<path d="M123.732 168.519L122.94 168.973L133.076 187.713L133.867 187.26L123.732 168.519Z" fill="#014596"/>
<path d="M118.772 169.479C119.677 171.578 122.055 172.51 124.093 171.578C126.131 170.645 127.037 168.197 126.131 166.099C125.225 164 122.848 163.068 120.81 164C118.772 164.933 117.866 167.381 118.772 169.479Z" fill="#E8A181"/>
<path d="M122.465 163.54L118.724 165.729L120.905 169.681L124.646 167.493L122.465 163.54Z" fill="#E8A181"/>
<path d="M122.055 158.988C123.074 160.97 123.074 164.584 121.263 165.75C119.338 166.799 116.281 164.934 115.262 163.069C114.243 161.087 114.809 158.639 116.734 157.589C118.545 156.424 120.923 157.123 122.055 158.988Z" fill="#F4AE87"/>
<path d="M119.112 165.984L118.093 164.118C118.093 164.118 115.942 163.536 115.942 162.253C115.828 160.971 117.527 161.321 117.527 161.321C117.527 161.321 124.094 157.59 124.094 156.191C124.094 155.142 116.168 155.375 115.376 156.075C114.583 156.774 111.639 161.904 111.979 162.953C112.318 163.885 116.508 165.634 116.508 165.634L119.112 165.984Z" fill="#FB5D51"/>
<path d="M43.8313 144.113L40.9624 147.871L44.434 150.681L47.3029 146.923L43.8313 144.113Z" fill="#63281D"/>
<path d="M24.5695 197.926L22.9844 199.674L28.6456 205.27C28.6456 205.27 30.1175 204.454 28.5323 202.122C26.9472 199.791 26.1546 198.742 26.1546 198.742L24.5695 197.926Z" fill="#FB5D51"/>
<path d="M43.5915 123.549C43.5915 123.549 45.856 121.917 44.6105 120.518C43.3651 119.003 41.1006 121.567 41.1006 121.567L43.5915 123.549Z" fill="#F4AE87"/>
<path d="M8.15211 158.988L7.35954 156.773L0 159.688C0 159.688 0.113224 161.437 2.83059 160.854C5.54796 160.271 6.79342 160.038 6.79342 160.038L8.15211 158.988Z" fill="#FB5D51"/>
<path d="M37.3636 185.568V167.965L30.6834 162.603L32.495 155.375C30.5702 155.725 26.7205 158.872 26.3809 159.105L15.7378 168.431C15.3982 167.615 13.9263 165.284 13.3601 164.584C10.1899 160.854 7.92541 158.406 7.92541 158.406L4.30225 160.271C4.30225 160.271 12.0015 174.493 13.9263 174.96C15.6246 175.426 25.1354 170.88 27.8528 169.597C28.5321 169.248 29.3247 170.18 29.3247 170.53L31.7024 183.47C31.7024 183.47 28.7586 185.918 27.5131 188.832C25.4751 193.379 24.0032 197.925 24.0032 197.925L27.1734 200.49L37.3636 185.568Z" fill="#002245"/>
<path d="M47.441 150.828L40.1946 144.999C38.4963 143.6 36.0054 144.066 34.7599 145.932L26.3813 159.221L37.364 168.081L47.8939 156.423C49.3658 154.791 49.1393 152.11 47.441 150.828Z" fill="#FB5D51"/>
<path d="M32.9478 150.594C36.9106 150.245 39.7412 152.11 39.7412 146.165C39.7412 141.152 38.0428 135.789 38.3825 134.507C38.7222 133.225 43.704 124.015 43.704 124.015L40.9866 121.684L34.1932 131.593C33.7403 132.409 33.6271 132.875 33.5139 133.458L33.2874 143.134L32.9478 150.594Z" fill="#FB5D51"/>
<path d="M41.1873 120.539L39.896 122.162L43.7504 125.412L45.0417 123.789L41.1873 120.539Z" fill="#014596"/>
<path d="M66.5752 142.202C66.5752 142.202 67.5942 139.52 69.2926 140.453C70.9909 141.385 69.0661 144.3 69.0661 144.3L66.5752 142.202Z" fill="#F4AE87"/>
<path d="M43.591 159.221C43.0249 155.14 40.5339 152.809 46.1951 151.293C50.9505 150.128 56.3853 150.477 57.5175 149.895C58.6497 149.312 66.2357 142.084 66.2357 142.084L69.0663 144.299L61.2539 153.392C60.6878 153.975 60.2349 154.324 59.6687 154.441L50.6108 157.006L43.591 159.221Z" fill="#FB5D51"/>
<path d="M66.1445 140.852L64.917 142.527L68.894 145.617L70.1215 143.942L66.1445 140.852Z" fill="#014596"/>
<path d="M47.441 150.828L40.1946 144.999C38.4963 143.6 36.0054 144.066 34.7599 145.932L26.3813 159.221L37.364 168.081L47.8939 156.423C49.3658 154.791 49.1393 152.11 47.441 150.828Z" fill="#FB5D51"/>
<path d="M44.283 146.522L30.1577 165.043L30.8701 165.619L44.9954 147.098L44.283 146.522Z" fill="#002245"/>
<path d="M43.8177 148.964L42.6855 148.031L34.1937 157.474L33.9673 160.155C33.9673 160.388 34.1937 160.621 34.4202 160.505L36.9111 159.689L43.8177 148.964Z" fill="white"/>
<path d="M44.0444 149.895C43.4783 150.594 42.5725 150.711 41.8931 150.128C41.2138 149.545 41.1006 148.612 41.6667 147.913C42.2328 147.214 43.1386 147.097 43.8179 147.68C44.384 148.263 44.4973 149.312 44.0444 149.895Z" fill="white"/>
<path d="M43.7044 147.797C43.7044 147.797 39.8548 149.079 39.2887 148.846C38.7226 148.613 40.3077 145.115 40.3077 145.115L43.7044 147.797Z" fill="#014596"/>
<path d="M43.7042 147.797C43.7042 147.797 43.3645 151.994 43.7042 152.46C44.0439 152.926 46.9877 150.478 46.9877 150.478L43.7042 147.797Z" fill="#014596"/>
<path d="M51.4034 144.65C50.0447 146.515 46.5348 147.914 44.8364 146.515C43.0248 145.116 43.5909 141.269 45.0628 139.521C46.4215 137.655 49.0257 137.422 50.8373 138.821C52.4224 140.22 52.7621 142.901 51.4034 144.65Z" fill="#F4AE87"/>
<path d="M43.7047 144.534L45.0634 142.785C45.0634 142.785 44.837 140.454 45.9692 139.871C47.1014 139.288 47.4411 141.037 47.4411 141.037C47.4411 141.037 53.5552 146.166 54.8007 145.583C55.8197 145.117 52.423 137.423 51.5172 136.84C50.6114 136.257 44.6105 135.441 43.818 136.141C43.0254 136.84 43.0254 141.62 43.0254 141.62L43.7047 144.534Z" fill="#221972"/>
</svg>
