<svg width="117" height="116" viewBox="0 0 117 116" fill="none" xmlns="http://www.w3.org/2000/svg">
<path d="M0.5 58C0.5 25.9675 26.4675 0 58.5 0C90.5325 0 116.5 25.9675 116.5 58C116.5 90.0325 90.5325 116 58.5 116C26.4675 116 0.5 90.0325 0.5 58Z" fill="white"/>
<g clip-path="url(#clip0_477_3170)">
<path d="M58.4963 108C30.9301 108 8.5 85.5712 8.5 57.9963C8.5 30.4215 30.9301 8 58.4963 8C86.0626 8 108.493 30.4301 108.493 57.9963C108.493 85.5626 86.0712 108 58.4963 108ZM58.4963 8.7597C31.3483 8.7597 9.2597 30.8483 9.2597 57.9963C9.2597 85.1444 31.3483 107.242 58.4963 107.242C85.6444 107.242 107.742 85.1517 107.742 57.9963C107.742 30.841 85.6517 8.7597 58.4963 8.7597Z" fill="#D4AF34"/>
<path d="M58.4963 103.411C33.4566 103.411 13.085 83.0396 13.085 57.9999C13.085 32.9603 33.4603 12.5898 58.4963 12.5898C83.5322 12.5898 103.911 32.9603 103.911 57.9963C103.911 83.0322 83.5396 103.411 58.4963 103.411ZM58.4963 13.3483C33.8786 13.3483 13.8483 33.3798 13.8483 57.9963C13.8483 82.6128 33.8786 102.652 58.4963 102.652C83.114 102.652 103.152 82.6213 103.152 57.9963C103.152 33.3712 83.1213 13.3483 58.4963 13.3483Z" fill="#D4AF34"/>
<path d="M40.1856 33.0533C38.4807 33.0518 36.794 33.4044 35.2323 34.0886L38.4541 37.3103C39.6713 37.0502 40.9314 37.0665 42.1415 37.3578C43.3517 37.6492 44.4811 38.2082 45.4466 38.9938C46.4121 39.7793 47.1891 40.7715 47.7204 41.8971C48.2518 43.0227 48.5239 44.2531 48.5168 45.4978C48.5097 46.7425 48.2236 47.9698 47.6794 49.0892C47.1353 50.2087 46.347 51.1919 45.3726 51.9664C44.3982 52.7409 43.2625 53.2871 42.0491 53.5646C40.8358 53.8421 39.5756 53.844 38.3614 53.5701L35.1543 56.7772C36.8414 57.5265 38.6746 57.8895 40.52 57.8396C42.3654 57.7898 44.1763 57.3285 45.8206 56.4893C47.4648 55.65 48.9009 54.4542 50.0238 52.9889C51.1468 51.5237 51.9283 49.8262 52.3113 48.0203C52.6943 46.2145 52.6691 44.3459 52.2375 42.551C51.8059 40.7561 50.9789 39.0802 49.8168 37.6459C48.6548 36.2115 47.187 35.0548 45.5207 34.2602C43.8544 33.4657 42.0317 33.0533 40.1856 33.0533ZM78.5389 53.5701C77.3256 53.8421 76.0668 53.8387 74.855 53.5603C73.6431 53.2818 72.5091 52.7353 71.5363 51.961C70.5634 51.1866 69.7765 50.2041 69.2332 49.0856C68.69 47.9671 68.4044 46.7411 68.3973 45.4977C68.3902 44.2543 68.6619 43.0252 69.1923 41.9006C69.7227 40.776 70.4984 39.7845 71.4624 38.9991C72.4263 38.2137 73.5541 37.6543 74.7626 37.3621C75.9712 37.0698 77.2299 37.0521 78.4463 37.3103L81.6655 34.0886C79.7754 33.2633 77.7092 32.9226 75.6541 33.0973C73.5991 33.2721 71.6201 33.9567 69.8964 35.0893C68.1727 36.2219 66.7588 37.7666 65.7828 39.5835C64.8068 41.4004 64.2994 43.4321 64.3067 45.4946C64.3141 47.5571 64.8358 49.5851 65.8247 51.395C66.8136 53.205 68.2384 54.7396 69.9701 55.8599C71.7017 56.9803 73.6855 57.6509 75.7418 57.811C77.798 57.9712 79.8618 57.6158 81.746 56.7772L78.5389 53.5701Z" fill="#0D7042"/>
<path d="M66.7748 44.4788C66.8779 43.6055 67.11 42.7524 67.4637 41.9473H50.3613C50.715 42.7524 50.9472 43.6055 51.0503 44.4788H66.7748Z" fill="#0D7042"/>
<path d="M66.7519 46.2305H51.0738C50.9925 47.1007 50.7816 47.954 50.4482 48.762H67.3799C67.0457 47.9541 66.8341 47.1009 66.7519 46.2305Z" fill="#0D7042"/>
<path d="M51.2334 53.0452H65.6665C65.1203 52.2528 64.6608 51.4041 64.2959 50.5137H52.6028C52.2388 51.4043 51.7796 52.2531 51.2334 53.0452Z" fill="#FFEB89"/>
<path d="M67.1057 54.7969H49.7899C48.8013 55.8141 47.658 56.6685 46.4023 57.3284H70.4933C69.238 56.6679 68.0948 55.8135 67.1057 54.7969Z" fill="#FFEB89"/>
<path d="M84.2242 59.2891H32.6194L27.5283 64.3009H89.2604L84.2242 59.2891Z" fill="#FFEB89"/>
<path d="M26.758 72.8509L29.0749 76.7884H26.4019L25.1935 74.5252H25.1008L23.9033 76.7884H21.3657L23.5777 72.8509L21.3535 68.9707H24.1582L25.2362 71.3376H25.3337L26.408 68.9707H29.0847L26.758 72.8509Z" fill="#0D7042"/>
<path d="M31.8153 73.746C31.8153 74.6105 32.2617 74.9483 32.8689 74.9483C33.4762 74.9483 33.9237 74.5935 33.9237 73.746V68.9707H36.3309V74.0923C36.3309 75.8165 35.0127 76.9287 32.8689 76.9287C30.7252 76.9287 29.4082 75.8165 29.4082 74.0923V68.9707H31.8153V73.746Z" fill="#0D7042"/>
<path d="M36.8945 76.7887L39.2675 68.971H42.3161L44.6659 76.7936H42.0978L41.76 75.312H39.6224L39.2736 76.7911L36.8945 76.7887ZM39.9614 66.8809H41.6686L43.0612 68.3308H41.4332L40.8601 67.7064H40.7284L40.1101 68.3308H38.4883L39.9614 66.8809ZM40.6491 70.955L40.0187 73.6194H41.3759L40.7662 70.955H40.6491Z" fill="#0D7042"/>
<path d="M45.3154 76.7884V68.9707H47.1202L49.7846 72.7509H49.8761V68.9707H52.0832V76.7933H50.2956L47.6128 72.9424H47.5214V76.7933L45.3154 76.7884Z" fill="#0D7042"/>
<path d="M57.7862 73.2468C57.7862 74.3699 58.2045 74.9711 58.9264 74.9711C59.6483 74.9711 60.0031 74.398 60.0031 73.6529H62.2761V74.0029C62.2761 75.7735 60.8726 76.9197 58.9008 76.9197C56.5839 76.9197 55.3193 75.4637 55.3193 73.2298V72.5249C55.3193 70.2836 56.5863 68.8398 58.9008 68.8398C60.8726 68.8398 62.2761 69.98 62.2761 71.7665V72.1042H60.0031C60.0031 71.3592 59.6373 70.7921 58.9264 70.7921C58.2155 70.7921 57.7862 71.3933 57.7862 72.5225V73.2468Z" fill="#0D7042"/>
<path d="M63.1641 74.0667V68.9707H65.5688V73.7265C65.5688 74.5922 66.0151 74.93 66.6223 74.93C67.2296 74.93 67.6771 74.5752 67.6771 73.7265V68.9707H70.0892C70.4221 68.9707 70.5538 68.8341 70.5538 68.489V67.5781H72.2902V68.8622C72.2902 69.8072 71.6805 70.5877 70.6574 70.5877H70.0843V74.0716C70.0843 75.7958 68.7661 76.9079 66.6223 76.9079C64.4786 76.9079 63.1641 75.7909 63.1641 74.0667Z" fill="#0D7042"/>
<path d="M75.5681 76.9206C73.1781 76.9206 71.8721 75.4707 71.8721 73.2757V72.5075C71.8721 70.2845 73.1781 68.8407 75.5681 68.8407C76.5364 68.8407 77.218 69.1163 77.9863 69.1163C78.6789 69.1163 78.7362 68.8114 78.7362 68.4688V67.5566H80.4727V68.8407C80.4727 69.7857 79.863 70.565 78.8399 70.565H78.8289C79.1289 71.1677 79.2779 71.8344 79.263 72.5075V73.2757C79.263 75.4707 77.968 76.9206 75.5681 76.9206ZM74.3353 73.305C74.3353 74.433 74.7999 75.0293 75.5681 75.0293C76.3364 75.0293 76.8059 74.433 76.8059 73.305V72.4734C76.8059 71.3503 76.3303 70.7491 75.5681 70.7491C74.806 70.7491 74.3353 71.3503 74.3353 72.4734V73.305Z" fill="#0D7042"/>
<path d="M80.5947 76.7884V68.9707H82.397L85.0627 72.7509H85.1542V68.9707H87.3601V76.7933H85.5749L82.8921 72.9424H82.7994V76.7933L80.5947 76.7884Z" fill="#0D7042"/>
<path d="M93.1134 71.6669C93.0671 71.2084 92.7 70.767 92.0074 70.767C91.205 70.767 90.788 71.3633 90.788 72.4462V73.2705C90.788 74.1473 91.0123 74.996 92.0659 74.996C92.8232 74.996 93.178 74.5082 93.178 74.0509V73.9583H92.2025V72.3657H95.4291V73.829C95.4291 75.3655 94.4889 76.9178 91.9964 76.9178C89.36 76.9178 88.3516 75.1923 88.3516 73.279V72.4132C88.3516 70.3622 89.6124 68.8379 92.0196 68.8379C94.3633 68.8379 95.434 70.2939 95.434 71.6633L93.1134 71.6669Z" fill="#0D7042"/>
</g>
<defs>
<clipPath id="clip0_477_3170">
<rect width="100" height="100" fill="white" transform="translate(8.5 8)"/>
</clipPath>
</defs>
</svg>
