<svg width="24" height="24" viewBox="0 0 24 24" fill="none" xmlns="http://www.w3.org/2000/svg">
<circle cx="12" cy="12" r="12" fill="url(#paint0_linear_372_31999)"/>
<path d="M7.26316 18H7.89474V9.78947H7.26316C6.92815 9.78947 6.60686 9.92256 6.36997 10.1594C6.13308 10.3963 6 10.7176 6 11.0526V16.7368C6 17.0719 6.13308 17.3931 6.36997 17.63C6.60686 17.8669 6.92815 18 7.26316 18ZM17.3684 9.78947H12.9474L13.656 7.66232C13.7192 7.47247 13.7365 7.27032 13.7063 7.07252C13.6761 6.87471 13.5993 6.68691 13.4823 6.52459C13.3653 6.36226 13.2114 6.23005 13.0333 6.13884C12.8552 6.04764 12.658 6.00005 12.4579 6H12.3158L9.15789 9.43453V18H16.1053L18.576 12.5709L18.6316 12.3158V11.0526C18.6316 10.7176 18.4985 10.3963 18.2616 10.1594C18.0247 9.92256 17.7034 9.78947 17.3684 9.78947Z" fill="white"/>
<defs>
<linearGradient id="paint0_linear_372_31999" x1="0" y1="12" x2="24" y2="12" gradientUnits="userSpaceOnUse">
<stop stop-color="#0274FF"/>
<stop offset="1" stop-color="#72ACF2"/>
</linearGradient>
</defs>
</svg>
