<svg width="24" height="24" viewBox="0 0 24 24" fill="none" xmlns="http://www.w3.org/2000/svg">
<path d="M5.68421 20H6.52632V9.05263H5.68421C5.23753 9.05263 4.80914 9.23007 4.49329 9.54593C4.17744 9.86178 4 10.2902 4 10.7368V18.3158C4 18.7625 4.17744 19.1909 4.49329 19.5067C4.80914 19.8226 5.23753 20 5.68421 20ZM19.1579 9.05263H13.2632L14.208 6.21642C14.2923 5.9633 14.3153 5.69376 14.275 5.43003C14.2347 5.16629 14.1324 4.91589 13.9764 4.69945C13.8204 4.48301 13.6152 4.30673 13.3778 4.18512C13.1403 4.06352 12.8773 4.00007 12.6105 4H12.4211L8.21053 8.57937V20H17.4737L20.768 12.7613L20.8421 12.4211V10.7368C20.8421 10.2902 20.6647 9.86178 20.3488 9.54593C20.033 9.23007 19.6046 9.05263 19.1579 9.05263Z" fill="url(#paint0_linear_677_757)"/>
<defs>
<linearGradient id="paint0_linear_677_757" x1="4" y1="12" x2="20.8421" y2="12" gradientUnits="userSpaceOnUse">
<stop stop-color="#0274FF"/>
<stop offset="1" stop-color="#72ACF2"/>
</linearGradient>
</defs>
</svg>
