<svg width="48" height="48" viewBox="0 0 48 48" fill="none" xmlns="http://www.w3.org/2000/svg">
<rect width="48" height="48" rx="24" fill="white" fill-opacity="0.16"/>
<path d="M22 29L17 24L18.41 22.58L22 26.17L29.59 18.58L31 20L22 29ZM24 14C22.6868 14 21.3864 14.2587 20.1732 14.7612C18.9599 15.2638 17.8575 16.0003 16.9289 16.9289C15.0536 18.8043 14 21.3478 14 24C14 26.6522 15.0536 29.1957 16.9289 31.0711C17.8575 31.9997 18.9599 32.7362 20.1732 33.2388C21.3864 33.7413 22.6868 34 24 34C26.6522 34 29.1957 32.9464 31.0711 31.0711C32.9464 29.1957 34 26.6522 34 24C34 22.6868 33.7413 21.3864 33.2388 20.1732C32.7362 18.9599 31.9997 17.8575 31.0711 16.9289C30.1425 16.0003 29.0401 15.2638 27.8268 14.7612C26.6136 14.2587 25.3132 14 24 14Z" fill="white"/>
</svg>
